<svg width="2131" height="1164" xmlns="http://www.w3.org/2000/svg" xmlns:xlink="http://www.w3.org/1999/xlink" xml:space="preserve" overflow="hidden"><defs><clipPath id="clip0"><rect x="0" y="0" width="2131" height="1164"/></clipPath></defs><g clip-path="url(#clip0)"><path d="M1007 121.099C1007 185.845 816.802 238.726 577.526 242 772.907 228.559 917.268 181.143 917.268 124.717 917.268 57.8534 714.469 3.66806 464.311 3.66806 456.5 3.66806 448.713 3.66806 441 3.84053 477.158 1.37864 515.011 0 553.994 0 804.226 0 1007 54.1608 1007 121.099Z" fill="#7EB3E0" fill-rule="evenodd" fill-opacity="1"/><path d="M505.436 247.832C559.696 249.085 613.833 245.373 667.921 240.677 723.952 235.916 779.557 227.049 834.29 214.15 853.271 209.603 872.054 203.751 890.837 198.49 897.205 199.351 897.18 205.497 897.426 211.028 897.991 223.542 897.672 236.08 897.672 248.618 897.672 315.612 897.057 382.63 897.991 449.598 898.384 478.141 885.403 494.097 868.267 507.569 861.777 512.658 854.647 516.542 848.599 522.59 827.775 532.94 805.427 534.735 783.62 539.209 756.871 544.716 729.852 548.06 702.881 551.502 683.213 553.96 663.545 556.074 643.876 557.279 595.296 560.229 546.665 564.138 498.011 562.688 443.087 561.065 388.163 559.246 333.289 553.001 265.212 545.306 197.528 534.956 131.147 513.518 98.6699 503.021 66.8562 490.286 37.9194 468.504 30.347 462.8 24.6187 454.441 17.0462 448.418 15.0793 452.671 16.1614 459.063 11.3425 461.301 7.72823 448.221 9.10504 434.651 10.1622 421.547 10.9492 411.713 11.6376 401.879 11.6376 391.873 11.6376 300.599 11.6947 209.308 11.8095 118 25.8232 150.845 51.6871 164.563 77.4774 177.2 132.819 204.243 191.111 217.076 249.772 227.107 314.372 238.491 379.764 244.804 445.349 245.988 454.79 246.111 464.206 248.913 473.77 247.758 484.292 247.192 494.864 242.694 505.436 247.832Z" fill="#E2EBF0" fill-rule="evenodd" fill-opacity="1"/><path d="M11.3833 1042.8C7.69875 1032.14 9.12334 1021.11 10.155 1010.43 10.9413 1002.35 11.629 994.338 11.629 986.256 11.629 911.877 11.6943 837.497 11.8253 763.117 14.6983 762.583 17.5973 763.91 19.0713 766.433 34.2999 788.541 57.6834 798.538 81.3863 807.725 135.915 828.875 193.072 838.946 250.572 847.592 289.529 853.439 328.804 856.239 367.981 859.875 380.925 861.078 393.943 861.226 406.937 861.987 458.272 865.033 509.731 865.893 561.091 864.173 651.8 861.103 742.239 854.593 831.548 837.03 846.728 834.058 861.784 830.422 876.841 826.738 881.557 825.583 886.47 824.085 891.284 826.738 896.098 829.391 896.688 834.697 896.688 839.708 896.933 907.725 897.351 975.743 896.442 1043.76 896.221 1061.42 883.498 1072.03 869.546 1080.31 862.78 1084.05 856.221 1088.15 849.896 1092.59 828.232 1100.41 805.414 1102.69 782.89 1106.37 739.144 1113.5 694.956 1116.74 650.867 1120.84 637.578 1122.07 624.167 1122.51 610.854 1122.95 562.663 1124.55 514.447 1127.18 466.231 1125.41 379.083 1122.12 292.034 1117.21 206.016 1101.78 161.042 1093.72 116.314 1084.34 73.6737 1066.7 53.1393 1058.18 33.1946 1048.58 17.3519 1031.8 15.0675 1035.75 16.1731 1040.94 11.3833 1042.8Z" fill="#E2EBF0" fill-rule="evenodd" fill-opacity="1"/><path d="M11.4684 758.789C7.75941 748.184 9.0122 737.137 10.2156 726.532 11.1588 717.832 11.6509 709.089 11.6895 700.338 11.8696 626.56 12.0006 552.799 12.0825 479.054 14.9926 478.707 17.8474 480.039 19.4509 482.491 37.2581 505.813 63.3669 516 89.427 525.697 139.533 544.33 191.923 553.438 244.509 561.563 281.007 567.185 317.751 570.867 354.545 573.666 369.576 574.795 384.707 575.605 399.812 576.513 452.595 579.729 505.427 578.968 558.234 578.281 665.789 576.931 772.461 567.185 877.289 541.752 882.718 540.426 888.244 538.487 893.549 542.366 897.209 545.999 896.84 550.762 896.865 555.278 897.045 621.904 897.045 688.522 896.865 755.131 896.865 774.598 883.798 785.474 869.233 794.753 861.545 799.663 852.826 802.879 845.679 808.746 823.205 816.356 799.65 818.836 776.366 822.174 731.074 828.68 685.488 832.558 639.877 835.799 571.891 840.709 503.855 840.709 436.016 838.867 353.341 836.412 270.839 829.514 189.491 813.508 140.564 803.935 91.785 793.354 47.5738 769.099 34.0406 761.735 20.2859 754.125 14.5632 741.04 13.6297 737.235 12.2788 737.996 13.6297 737.603 13.7867 737.877 13.8946 738.176 13.949 738.487 15.6439 745.631 19.2788 752.922 11.4684 758.789Z" fill="#E2EBF0" fill-rule="evenodd" fill-opacity="1"/><path d="M14.0001 1042 14.0001 1018.03C59.5155 1067.11 120.767 1077.1 180.055 1090.41 239.343 1103.73 300.202 1109.9 361.012 1114.36 424.302 1118.98 487.665 1121.47 551.078 1119.8 645.103 1117.34 738.859 1111.06 831.437 1092.9 837.648 1091.69 843.712 1089.94 849.898 1088.44 879.8 1075.18 912.574 1070.5 942.525 1057.34 964.473 1047.66 986.444 1038.24 1001.13 1017.76 1002.75 1015.5 1005.15 1013.06 1008.12 1014.37 1011.09 1015.67 1009.67 1018.77 1009.6 1021.08 1009.4 1027.38 1010.48 1033.73 1008.96 1040.01 1007.95 1057.78 995.454 1067.35 982.492 1076.04 954.579 1094.77 922.934 1104.83 890.896 1113.37 825.029 1130.9 757.787 1140.15 689.981 1146.08 623.68 1152.28 557.092 1154.84 490.513 1153.76 380.235 1151.3 270.227 1144.65 162.183 1120.21 119.565 1110.57 77.0931 1099.69 39.9247 1075.15 27.797 1067.15 16.4551 1057.83 14.0001 1042Z" fill="#7EB3E0" fill-rule="evenodd" fill-opacity="1"/><path d="M14.0001 758.69 14.0001 730.782C37.3433 764.788 72.6892 776.418 107.692 787.582 170.971 807.769 236.385 817.284 302.242 824.587 393.749 834.718 485.525 836.881 577.4 834.423 661.838 832.136 745.907 824.587 829.118 809.146 834.641 808.113 840.041 806.416 845.49 805.039 876.32 791.934 909.751 786.746 940.63 773.738 959.8 765.648 978.847 757.264 993.894 742.166 995.391 740.667 996.864 739.142 998.239 737.544 1001.11 734.224 1002.66 727.487 1007.76 729.307 1011.64 730.708 1009.28 736.929 1009.36 740.962 1009.36 746.199 1010.32 751.535 1008.74 756.723L1008.35 762.845C1006.27 783.746 989.648 792.352 974.478 801.179 952.583 813.891 928.725 822.202 904.302 828.841 899.957 830.021 896.104 828.3 892.029 828.374 844.636 840.463 796.494 849.384 747.92 855.077 716.845 858.741 685.721 862.232 654.499 864.175 599.369 867.642 544.043 869.756 488.839 868.748 380.69 866.806 272.983 859.872 166.97 836.783 124.628 827.587 82.7037 816.547 44.9526 793.974 32.0659 786.254 20.8976 776.763 14.4173 762.747 14.2702 761.321 14.1227 759.993 14.0001 758.69Z" fill="#7EB3E0" fill-rule="evenodd" fill-opacity="1"/><path d="M894.071 547.008C823.971 569.103 752.594 581.133 680.554 588.744 598.218 597.582 515.784 598.564 433.351 595.25 333.275 591.224 233.691 579.758 136.294 549.095 103.149 538.759 70.5684 526.19 41.2807 503.456 29.2933 494.321 19.8034 482.314 13.6881 468.545 13.4668 466.09 13.2459 463.782 13.0001 461.376L13.0001 432.972C29.8062 458.701 52.3126 472.498 75.6546 484.257 115.311 504.241 156.86 516.173 198.9 525.502 264.503 539.938 330.72 547.867 397.281 552.507 467.312 557.449 537.587 557.925 607.678 553.931 682.642 549.611 757.385 541.067 831.269 523.464 836.772 522.163 842.154 519.954 847.608 518.186 877.093 503.137 908.911 496.656 938.518 481.729 962.008 469.871 985.202 457.817 1001.1 431.597 1002.77 428.823 1005.28 425.852 1008.18 427.448 1011.07 429.044 1009.67 432.874 1009.58 435.721 1009.28 444.265 1010.63 452.907 1008.84 461.376 1008.69 463.831 1008.52 466.286 1008.37 468.865 1004.64 496.582 985.767 506.819 968.863 518.137 949.796 530.903 929.206 539.717 908.322 547.254 903.432 548.972 898.739 550.666 894.071 547.008Z" fill="#7EB3E0" fill-rule="evenodd" fill-opacity="1"/><path d="M894.616 542.774C917.268 535.402 940.14 528.496 961.712 517.977 980.634 508.737 997.788 497.751 1008.68 479 1008.83 536.458 1009.1 593.917 1009.05 651.376 1009.05 682.366 1009.05 713.332 1010.77 744.297 1010.99 748.451 1011.58 752.801 1009.22 756.709L1009.22 729.552C995.187 754.447 973.198 764.966 951.135 774.551 917.425 788.854 882.13 799.076 846 805 858.271 797.038 872.161 791.262 882.616 780.424 890.753 772.535 895.243 761.609 895.009 750.269 894.494 681.039 894.665 611.907 894.616 542.774Z" fill="#C2CFD6" fill-rule="evenodd" fill-opacity="1"/><path d="M1009.17 461.266 1009.17 431.012C992.836 459.452 969.249 472.863 945.122 484.681 913.772 500.029 881.586 512.263 848 518 860.555 507.875 874.117 499.563 884.461 485.49 891.35 476.545 894.996 465.534 894.805 454.254 894.583 373.714 894.805 293.198 894.657 212.657 894.657 207.999 895.394 203.071 892.421 199.124 912.863 191.303 933.55 184.192 953.083 173.208 975.195 160.729 997.111 147.588 1008.9 119 1008.9 210.434 1009 301.861 1009.2 393.279 1009.2 411.324 1010.35 429.369 1010.82 447.438 1011.07 452.097 1011.41 456.951 1009.17 461.266Z" fill="#C2CFD6" fill-rule="evenodd" fill-opacity="1"/><path d="M892.292 828.48C914.46 821.109 936.849 815.04 957.909 805.04 978.451 795.212 998.156 784.475 1009.04 763 1009.04 832.067 1009.49 901.135 1009.04 970.202 1009.04 989.858 1010.94 1009.51 1010.91 1029.17 1010.91 1033 1011.55 1036.96 1009.34 1040.52L1009.34 1017.87C995.052 1039.49 973.598 1049.76 952.145 1059.15 919.456 1073.25 885.149 1083.28 850 1089 861.01 1081.51 873.4 1076.05 882.759 1066.08 890.518 1057.8 895.075 1048.88 894.927 1036.96 894.484 971.873 894.73 906.737 894.681 841.65 894.533 837.178 895.74 832.412 892.292 828.48Z" fill="#C2CFD6" fill-rule="evenodd" fill-opacity="1"/><path d="M939 340.098C938.946 366.055 917.859 387.054 891.902 387 865.945 386.946 844.946 365.86 845 339.902 845.054 313.945 866.141 292.946 892.098 293 918.055 293.054 939.054 314.141 939 340.098Z" fill="#E9A254" fill-rule="evenodd" fill-opacity="1"/><path d="M892.099 927.003C918.056 927.058 939.055 948.369 939 974.601 938.945 1000.83 917.859 1022.06 891.901 1022 865.944 1021.94 844.945 1000.63 845 974.402 845 974.336 845 974.27 845.001 974.204 844.932 948.204 865.732 927.07 891.458 927 891.672 927 891.886 927 892.099 927.003Z" fill="#E9A254" fill-rule="evenodd" fill-opacity="1"/><path d="M891.683 641.001C917.639 640.825 938.823 661.725 938.999 687.682 939.175 713.639 918.276 734.823 892.32 734.999 866.364 735.175 845.18 714.276 845.004 688.319 845.004 688.237 845.003 688.156 845.003 688.075 844.718 662.363 865.331 641.288 891.043 641.004 891.256 641.002 891.47 641.001 891.683 641.001Z" fill="#E9A254" fill-rule="evenodd" fill-opacity="1"/><path d="M919 125.988C919 193.352 716.419 248 466.475 248 216.532 248 14.0001 193.352 14.0001 125.988 14.0001 58.6232 216.581 4.00013 466.475 4.00013 716.37 4.00013 919 58.5987 919 125.988Z" fill="#5197C7" fill-rule="evenodd" fill-opacity="1"/><path d="M963.5 340.5 1314.5 340.5" stroke="#437EB5" stroke-width="24.536" stroke-linecap="round" stroke-linejoin="miter" stroke-miterlimit="8" stroke-opacity="1" fill="none" fill-rule="evenodd"/><path d="M964 363C951.298 363 941 352.703 941 340 941 327.297 951.298 317 964 317 976.703 317 987 327.297 987 340 987 352.703 976.703 363 964 363Z" fill="#FFFFFF" fill-rule="evenodd" fill-opacity="1"/><path d="M964 366C978.359 366 990 354.36 990 340 990 325.641 978.359 314 964 314 949.641 314 938 325.641 938 340 938.014 354.354 949.646 365.987 964 366ZM964 320.103C974.989 320.103 983.897 329.011 983.897 340 983.897 350.989 974.989 359.897 964 359.897 953.011 359.897 944.104 350.989 944.104 340 944.117 329.017 953.017 320.117 964 320.103Z" fill="#437EB5" fill-rule="evenodd" fill-opacity="1"/><path d="M963.5 688.5 1314.5 688.5" stroke="#437EB5" stroke-width="24.536" stroke-linecap="round" stroke-linejoin="miter" stroke-miterlimit="8" stroke-opacity="1" fill="none" fill-rule="evenodd"/><path d="M964 711C951.298 711 941 700.703 941 688 941 675.297 951.298 665 964 665 976.703 665 987 675.297 987 688 987 700.703 976.703 711 964 711Z" fill="#FFFFFF" fill-rule="evenodd" fill-opacity="1"/><path d="M964 714C978.359 714 990 702.36 990 688 990 673.641 978.359 662 964 662 949.641 662 938 673.641 938 688 938.027 702.349 949.652 713.973 964 714ZM964 668.103C974.989 668.103 983.897 677.011 983.897 688 983.897 698.989 974.989 707.897 964 707.897 953.011 707.897 944.104 698.989 944.104 688 944.117 677.017 953.017 668.117 964 668.103Z" fill="#437EB5" fill-rule="evenodd" fill-opacity="1"/><path d="M963.5 974.5 1314.5 974.5" stroke="#437EB5" stroke-width="24.536" stroke-linecap="round" stroke-linejoin="miter" stroke-miterlimit="8" stroke-opacity="1" fill="none" fill-rule="evenodd"/><path d="M964 998C951.298 998 941 987.479 941 974.5 941 961.521 951.298 951 964 951 976.703 951 987 961.521 987 974.5 987 987.479 976.703 998 964 998Z" fill="#FFFFFF" fill-rule="evenodd" fill-opacity="1"/><path d="M964 1001C978.359 1001 990 989.136 990 974.5 990 959.865 978.359 948 964 948 949.641 948 938 959.865 938 974.5 938.014 989.13 949.646 1000.99 964 1001ZM964 954.245C974.989 954.245 983.897 963.325 983.897 974.525 983.897 985.725 974.989 994.805 964 994.805 953.011 994.805 944.104 985.725 944.104 974.525 944.104 974.517 944.104 974.509 944.104 974.5 944.117 963.31 953.021 954.245 964 954.245Z" fill="#437EB5" fill-rule="evenodd" fill-opacity="1"/><text fill="#5E92CB" fill-opacity="1" font-family="Century Gothic,Century Gothic_MSFontService,sans-serif" font-style="normal" font-variant="normal" font-weight="700" font-stretch="normal" font-size="46" text-anchor="start" direction="ltr" writing-mode="lr-tb" unicode-bidi="normal" text-decoration="none" transform="matrix(1 0 0 1 1338.08 348)">Permanent<tspan fill="#5E92CB" fill-opacity="1" font-family="Century Gothic,Century Gothic_MSFontService,sans-serif" font-style="normal" font-variant="normal" font-weight="700" font-stretch="normal" font-size="46" text-anchor="start" direction="ltr" writing-mode="lr-tb" unicode-bidi="normal" text-decoration="none" x="253.917" y="0">Volume</tspan><tspan fill="#5E92CB" fill-opacity="1" font-family="Century Gothic,Century Gothic_MSFontService,sans-serif" font-style="normal" font-variant="normal" font-weight="700" font-stretch="normal" font-size="46" text-anchor="start" direction="ltr" writing-mode="lr-tb" unicode-bidi="normal" text-decoration="none" x="-0.0775147" y="348">Temporary</tspan><tspan fill="#5E92CB" fill-opacity="1" font-family="Century Gothic,Century Gothic_MSFontService,sans-serif" font-style="normal" font-variant="normal" font-weight="700" font-stretch="normal" font-size="46" text-anchor="start" direction="ltr" writing-mode="lr-tb" unicode-bidi="normal" text-decoration="none" x="250.173" y="348">Volume</tspan><tspan fill="#437FB5" fill-opacity="1" font-family="Century Gothic,Century Gothic_MSFontService,sans-serif" font-style="normal" font-variant="normal" font-weight="700" font-stretch="normal" font-size="46" text-anchor="start" direction="ltr" writing-mode="lr-tb" unicode-bidi="normal" text-decoration="none" x="-0.186523" y="632">Backup</tspan><tspan fill="#437FB5" fill-opacity="1" font-family="Century Gothic,Century Gothic_MSFontService,sans-serif" font-style="normal" font-variant="normal" font-weight="700" font-stretch="normal" font-size="46" text-anchor="start" direction="ltr" writing-mode="lr-tb" unicode-bidi="normal" text-decoration="none" x="183.147" y="632">Volume</tspan></text><path d="M808 395C808 415.435 764.348 432 710.5 432 656.652 432 613 415.435 613 395 613 374.565 656.652 358 710.5 358 764.348 358 808 374.565 808 395Z" fill="#5385C2" fill-rule="evenodd" fill-opacity="1"/><path d="M836 432 692 432 692 417 836 417Z" fill="#5385C2" fill-rule="evenodd" fill-opacity="1"/><text fill="#4F4531" fill-opacity="1" font-family="Century Gothic,Century Gothic_MSFontService,sans-serif" font-style="normal" font-variant="normal" font-weight="700" font-stretch="normal" font-size="23" text-anchor="start" direction="ltr" writing-mode="lr-tb" unicode-bidi="normal" text-decoration="none" transform="matrix(1 0 0 1 650.729 405)">Active<tspan fill="#4F4531" fill-opacity="1" font-family="Century Gothic,Century Gothic_MSFontService,sans-serif" font-style="normal" font-variant="normal" font-weight="700" font-stretch="normal" font-size="23" text-anchor="start" direction="ltr" writing-mode="lr-tb" unicode-bidi="normal" text-decoration="none" x="77.9167" y="0">Log</tspan><tspan fill="#4F4531" fill-opacity="1" font-family="Century Gothic,Century Gothic_MSFontService,sans-serif" font-style="normal" font-variant="normal" font-weight="700" font-stretch="normal" font-size="23" text-anchor="start" direction="ltr" writing-mode="lr-tb" unicode-bidi="normal" text-decoration="none" x="0" y="0">Active</tspan><tspan fill="#4F4531" fill-opacity="1" font-family="Century Gothic,Century Gothic_MSFontService,sans-serif" font-style="normal" font-variant="normal" font-weight="700" font-stretch="normal" font-size="23" text-anchor="start" direction="ltr" writing-mode="lr-tb" unicode-bidi="normal" text-decoration="none" x="77.9167" y="0">Log</tspan></text><path d="M789 726C789 746.435 745.572 763 692 763 638.428 763 595 746.435 595 726 595 705.565 638.428 689 692 689 745.572 689 789 705.565 789 726Z" fill="#5385C2" fill-rule="evenodd" fill-opacity="1"/><path d="M817 763 674 763 674 748 817 748Z" fill="#5385C2" fill-rule="evenodd" fill-opacity="1"/><text fill="#4F4531" fill-opacity="1" font-family="Century Gothic,Century Gothic_MSFontService,sans-serif" font-style="normal" font-variant="normal" font-weight="700" font-stretch="normal" font-size="23" text-anchor="start" direction="ltr" writing-mode="lr-tb" unicode-bidi="normal" text-decoration="none" transform="matrix(1 0 0 1 625.478 736)">Archive<tspan fill="#4F4531" fill-opacity="1" font-family="Century Gothic,Century Gothic_MSFontService,sans-serif" font-style="normal" font-variant="normal" font-weight="700" font-stretch="normal" font-size="23" text-anchor="start" direction="ltr" writing-mode="lr-tb" unicode-bidi="normal" text-decoration="none" x="92.125" y="0">Log</tspan><tspan fill="#4F4531" fill-opacity="1" font-family="Century Gothic,Century Gothic_MSFontService,sans-serif" font-style="normal" font-variant="normal" font-weight="700" font-stretch="normal" font-size="23" text-anchor="start" direction="ltr" writing-mode="lr-tb" unicode-bidi="normal" text-decoration="none" x="0" y="0">Archive</tspan><tspan fill="#4F4531" fill-opacity="1" font-family="Century Gothic,Century Gothic_MSFontService,sans-serif" font-style="normal" font-variant="normal" font-weight="700" font-stretch="normal" font-size="23" text-anchor="start" direction="ltr" writing-mode="lr-tb" unicode-bidi="normal" text-decoration="none" x="92.125" y="0">Log</tspan><tspan fill="#4F4531" fill-opacity="1" font-family="Century Gothic,Century Gothic_MSFontService,sans-serif" font-style="normal" font-variant="normal" font-weight="700" font-stretch="normal" font-size="23" text-anchor="start" direction="ltr" writing-mode="lr-tb" unicode-bidi="normal" text-decoration="none" x="-330.394" y="-352">Data</tspan><tspan fill="#4F4531" fill-opacity="1" font-family="Century Gothic,Century Gothic_MSFontService,sans-serif" font-style="normal" font-variant="normal" font-weight="700" font-stretch="normal" font-size="23" text-anchor="start" direction="ltr" writing-mode="lr-tb" unicode-bidi="normal" text-decoration="none" x="-270.811" y="-352">Volume</tspan></text><path d="M400 319.1 400 335.635C399.239 337.491 397.767 338.957 395.921 339.694 392.184 341.59 388.166 342.852 384.026 343.432 379.449 344.175 374.833 344.646 370.201 344.842 366.516 345.053 362.822 345.053 359.137 344.842 352.902 344.617 346.726 343.552 340.769 341.674 338.466 341.001 336.3 339.919 334.369 338.481 333.305 337.695 332.504 336.598 332.074 335.338 331.976 333.763 331.976 332.184 332.074 330.61 332.074 327.17 332.074 323.729 332.074 320.264 332.026 319.865 332.094 319.461 332.269 319.1 332.684 318.853 332.782 319.1 332.88 319.447 333.676 321.031 334.988 322.29 336.592 323.011 340.491 324.974 344.684 326.27 349 326.847 354.21 327.71 359.476 328.166 364.755 328.209 373.374 328.468 381.986 327.477 390.328 325.264 392.704 324.616 394.969 323.606 397.045 322.268 398.069 321.688 398.915 320.831 399.487 319.793 399.512 319.373 399.61 319.076 400 319.1Z" fill="#3F5B6C" fill-rule="evenodd" fill-opacity="0.741176"/><path d="M400 318.627C398.661 321.191 396.352 323.082 393.61 323.858 389.817 325.371 385.85 326.384 381.806 326.872 377.072 327.583 372.297 327.957 367.513 327.993 362.992 328.044 358.472 327.819 353.976 327.321 349.722 326.895 345.517 326.061 341.416 324.83 338.768 324.103 336.283 322.86 334.099 321.168 333.265 320.458 332.668 319.501 332.391 318.428 332.08 318.118 331.943 317.668 332.026 317.232 332.026 312.649 332.026 308.091 332.026 303.507 331.958 303.033 332.026 302.549 332.221 302.112 332.611 301.838 332.733 302.112 332.831 302.436 333.782 304.421 335.453 305.949 337.489 306.696 341.226 308.381 345.175 309.529 349.221 310.108 355.925 311.239 362.722 311.69 369.513 311.453 376.788 311.369 384.017 310.271 391.001 308.19 392.96 307.655 394.828 306.815 396.537 305.699 397.689 304.979 398.639 303.967 399.293 302.76 399.293 302.511 399.513 302.212 399.903 302.237Z" fill="#3F5B6C" fill-rule="evenodd" fill-opacity="0.741176"/><path d="M399.927 302.578C398.546 305.263 396.113 307.239 393.221 308.024 389.448 309.434 385.529 310.409 381.539 310.932 378.394 311.4 375.248 311.622 372.102 311.843 368.642 312.053 365.173 312.053 361.713 311.843 357.767 311.694 353.833 311.299 349.934 310.661 346.279 310.099 342.686 309.183 339.204 307.925 337.866 307.477 336.595 306.847 335.424 306.052 333.962 305.227 332.876 303.856 332.401 302.233 332.089 301.916 331.952 301.464 332.035 301.025 332.035 296.589 332.035 292.129 332.035 287.693 331.951 287.152 332.019 286.597 332.23 286.092 332.742 285.796 332.766 286.289 332.839 286.535 333.277 287.771 334.144 288.804 335.278 289.443 337.52 290.926 339.993 292.018 342.594 292.671 347.422 293.972 352.363 294.798 357.348 295.136 360.907 295.452 364.481 295.584 368.054 295.53 375.978 295.525 383.86 294.38 391.465 292.129 394.617 291.353 397.438 289.574 399.513 287.053 399.619 286.891 399.813 286.813 400 286.856Z" fill="#3F5B6C" fill-rule="evenodd" fill-opacity="0.741176"/><path d="M332.271 335C333.829 337.55 336.317 339.404 339.218 340.175 343.042 341.569 347.014 342.523 351.056 343.017 354.823 343.528 358.59 343.698 362.357 343.965 365.968 344.135 369.587 344.087 373.193 343.819 379.326 343.619 385.405 342.606 391.268 340.807 394.046 340.086 396.611 338.72 398.753 336.822 399.242 336.336 399.364 335.607 400 335.219L400 350.816C398.705 353.112 396.594 354.844 394.081 355.676 389.975 357.294 385.675 358.381 381.289 358.907 373.857 359.995 366.327 360.272 358.835 359.733 351.953 359.511 345.151 358.207 338.68 355.87 336.719 355.207 334.931 354.121 333.446 352.687 332.639 351.843 332.199 350.717 332.222 349.553 332.222 345.01 332.222 340.467 332.222 335.923 331.975 335.737 331.927 335.386 332.115 335.14 332.157 335.084 332.211 335.037 332.271 335Z" fill="#3F5B6C" fill-rule="evenodd" fill-opacity="0.741176"/><path d="M399.951 286.997C398.12 289.568 395.469 291.424 392.443 292.256 388.276 293.701 383.96 294.662 379.578 295.12 376.496 295.514 373.414 295.687 370.308 295.86 368.131 295.86 365.954 296.058 363.802 295.984 355.858 295.945 347.96 294.765 340.346 292.478 338.402 291.862 336.556 290.964 334.868 289.812 333.49 289.052 332.534 287.696 332.275 286.133 331.786 285.713 332.055 285.244 332.275 284.824 332.891 283.402 333.97 282.235 335.332 281.516 338.552 279.667 342.058 278.382 345.703 277.714 348.824 277.024 351.986 276.529 355.168 276.233 355.519 276.14 355.893 276.203 356.195 276.406 360.677 276.032 365.177 275.916 369.672 276.06 377.182 276.137 384.644 277.292 391.831 279.492 393.594 280.067 395.285 280.845 396.87 281.812 398.299 282.618 399.406 283.901 400 285.442Z" fill="#3F5B6C" fill-rule="evenodd" fill-opacity="0.741176"/><text fill="#4F4531" fill-opacity="1" font-family="Century Gothic,Century Gothic_MSFontService,sans-serif" font-style="normal" font-variant="normal" font-weight="700" font-stretch="normal" font-size="23" text-anchor="start" direction="ltr" writing-mode="lr-tb" unicode-bidi="normal" text-decoration="none" transform="matrix(1 0 0 1 451.82 384)">Data<tspan fill="#4F4531" fill-opacity="1" font-family="Century Gothic,Century Gothic_MSFontService,sans-serif" font-style="normal" font-variant="normal" font-weight="700" font-stretch="normal" font-size="23" text-anchor="start" direction="ltr" writing-mode="lr-tb" unicode-bidi="normal" text-decoration="none" x="59.5834" y="0">Volume</tspan></text><path d="M557 319.1 557 335.635C556.233 337.487 554.749 338.951 552.884 339.694 549.088 341.583 545.01 342.845 540.81 343.432 536.164 344.175 531.478 344.646 526.777 344.842 523.036 345.053 519.287 345.053 515.546 344.842 509.217 344.62 502.947 343.554 496.901 341.674 494.564 341.001 492.365 339.919 490.405 338.481 489.325 337.695 488.512 336.598 488.075 335.338 487.975 333.763 487.975 332.184 488.075 330.61 488.075 327.17 488.075 323.729 488.075 320.264 488.036 319.862 488.113 319.459 488.298 319.1 488.719 318.853 488.819 319.1 488.918 319.447 489.72 321.036 491.053 322.297 492.686 323.011 496.635 324.974 500.883 326.27 505.256 326.847 510.553 327.709 515.907 328.164 521.273 328.209 530.014 328.471 538.748 327.479 547.207 325.264 549.628 324.621 551.936 323.611 554.05 322.268 555.091 321.69 555.95 320.833 556.529 319.793 556.604 319.373 556.604 319.076 557 319.1Z" fill="#3F5B6C" fill-rule="evenodd" fill-opacity="0.741176"/><path d="M557 318.627C555.654 321.201 553.305 323.095 550.518 323.858 546.678 325.371 542.662 326.384 538.567 326.872 533.766 327.581 528.921 327.955 524.068 327.993 519.473 328.043 514.88 327.818 510.311 327.321 505.997 326.89 501.731 326.056 497.569 324.83 494.884 324.101 492.364 322.858 490.146 321.168 489.292 320.465 488.685 319.505 488.414 318.428 488.094 318.12 487.945 317.672 488.018 317.232 488.018 312.649 488.018 308.091 488.018 303.507 487.967 303.031 488.043 302.549 488.241 302.112 488.637 301.838 488.761 302.112 488.835 302.436 489.808 304.414 491.5 305.94 493.561 306.696 497.362 308.377 501.375 309.526 505.487 310.108 512.287 311.24 519.183 311.691 526.072 311.453 533.452 311.367 540.785 310.269 547.87 308.19 549.855 307.646 551.748 306.806 553.487 305.699 554.656 304.979 555.619 303.967 556.283 302.76 556.406 302.511 556.505 302.212 556.876 302.237Z" fill="#3F5B6C" fill-rule="evenodd" fill-opacity="0.741176"/><path d="M557 302.578C555.615 305.267 553.147 307.247 550.211 308.024 546.373 309.446 542.382 310.421 538.319 310.932 535.147 311.4 531.951 311.622 528.755 311.843 525.24 312.053 521.715 312.053 518.2 311.843 514.19 311.695 510.194 311.3 506.233 310.661 502.512 310.096 498.853 309.18 495.306 307.925 493.954 307.477 492.67 306.847 491.49 306.052 490.004 305.227 488.901 303.856 488.418 302.233 488.097 301.918 487.949 301.468 488.022 301.025 488.022 296.589 488.022 292.129 488.022 287.693 487.958 287.149 488.035 286.598 488.245 286.092 488.765 285.796 488.79 286.289 488.839 286.535 489.296 287.764 490.173 288.794 491.317 289.443 493.592 290.931 496.106 292.023 498.75 292.671 503.615 293.964 508.593 294.789 513.616 295.136 517.241 295.452 520.88 295.583 524.518 295.53 532.568 295.523 540.577 294.378 548.303 292.129 551.506 291.353 554.373 289.574 556.48 287.053 556.579 286.895 556.768 286.816 556.951 286.856Z" fill="#3F5B6C" fill-rule="evenodd" fill-opacity="0.741176"/><path d="M489.293 335C490.844 337.556 493.336 339.411 496.24 340.175 500.063 341.572 504.035 342.526 508.079 343.017 511.821 343.528 515.613 343.698 519.379 343.965 522.991 344.135 526.61 344.087 530.215 343.819 536.342 343.622 542.413 342.609 548.267 340.807 551.045 340.086 553.61 338.72 555.753 336.822 556.266 336.336 556.388 335.607 557 335.219L557 350.816C555.716 353.121 553.601 354.857 551.08 355.676 546.983 357.296 542.691 358.382 538.312 358.907 530.88 359.995 523.35 360.272 515.857 359.733 508.975 359.511 502.173 358.207 495.702 355.87 493.738 355.214 491.949 354.126 490.467 352.687 489.66 351.843 489.22 350.717 489.244 349.553 489.244 345.01 489.244 340.467 489.244 335.923 488.995 335.762 488.925 335.431 489.088 335.184 489.139 335.106 489.21 335.043 489.293 335Z" fill="#3F5B6C" fill-rule="evenodd" fill-opacity="0.741176"/><path d="M556.976 286.997C555.154 289.578 552.497 291.437 549.462 292.256 545.302 293.701 540.991 294.662 536.614 295.12 533.53 295.514 530.422 295.687 527.338 295.86 525.16 295.86 522.982 296.058 520.804 295.984 512.856 295.942 504.953 294.761 497.334 292.478 495.396 291.862 493.557 290.964 491.876 289.811 490.498 289.047 489.535 287.695 489.258 286.133 488.792 285.713 489.062 285.244 489.258 284.824 489.858 283.4 490.93 282.23 492.292 281.516 495.522 279.667 499.039 278.382 502.693 277.714 505.817 277.023 508.98 276.528 512.165 276.233 512.516 276.14 512.89 276.203 513.192 276.406 517.677 276.031 522.18 275.916 526.677 276.06 534.192 276.137 541.659 277.292 548.851 279.492 550.608 280.062 552.292 280.841 553.868 281.813 555.305 282.61 556.415 283.896 557 285.442Z" fill="#3F5B6C" fill-rule="evenodd" fill-opacity="0.741176"/><text fill="#4F4531" fill-opacity="1" font-family="Century Gothic,Century Gothic_MSFontService,sans-serif" font-style="normal" font-variant="normal" font-weight="700" font-stretch="normal" font-size="23" text-anchor="start" direction="ltr" writing-mode="lr-tb" unicode-bidi="normal" text-decoration="none" transform="matrix(1 0 0 1 453.662 519)">Data<tspan fill="#4F4531" fill-opacity="1" font-family="Century Gothic,Century Gothic_MSFontService,sans-serif" font-style="normal" font-variant="normal" font-weight="700" font-stretch="normal" font-size="23" text-anchor="start" direction="ltr" writing-mode="lr-tb" unicode-bidi="normal" text-decoration="none" x="59.5833" y="0">Volume</tspan></text><path d="M559 453.248 559 469.73C558.222 471.571 556.729 473.022 554.86 473.751 551.073 475.637 547.004 476.895 542.81 477.477 538.162 478.212 533.478 478.69 528.777 478.908 525.033 479.068 521.284 479.019 517.545 478.76 511.217 478.537 504.947 477.475 498.901 475.602 496.558 474.925 494.352 473.848 492.38 472.419 491.308 471.633 490.504 470.539 490.075 469.285 489.975 467.716 489.975 466.142 490.075 464.573 490.075 461.143 490.075 457.714 490.075 454.26 490.023 453.859 490.101 453.453 490.297 453.1 490.694 452.853 490.794 453.1 490.893 453.445 491.708 455.02 493.037 456.273 494.661 456.998 498.619 458.955 502.875 460.247 507.256 460.822 512.552 461.689 517.906 462.151 523.273 462.204 531.988 462.434 540.693 461.445 549.133 459.268 551.549 458.603 553.855 457.589 555.975 456.258 557.013 455.677 557.871 454.824 558.455 453.791 558.504 453.519 558.604 453.199 559 453.248Z" fill="#3F5B6C" fill-rule="evenodd" fill-opacity="0.741176"/><path d="M559 453.692C557.648 456.244 555.305 458.122 552.527 458.879 548.693 460.387 544.683 461.396 540.594 461.882 535.794 462.614 530.947 462.987 526.091 462.999 521.477 463.019 516.865 462.762 512.281 462.23 507.97 461.813 503.709 460.981 499.557 459.748 496.874 459.027 494.356 457.788 492.145 456.099 491.298 455.404 490.692 454.457 490.415 453.394 490.098 453.075 489.952 452.623 490.02 452.178 490.02 447.611 490.02 443.069 490.02 438.502 489.959 438.026 490.036 437.544 490.242 437.112 490.638 436.839 490.737 437.112 490.835 437.434 491.792 439.417 493.487 440.942 495.555 441.679 499.349 443.362 503.356 444.515 507.463 445.104 514.256 446.212 521.14 446.653 528.019 446.419 535.386 446.34 542.709 445.255 549.785 443.193 551.763 442.638 553.651 441.803 555.393 440.711 556.558 440.009 557.513 439.006 558.16 437.807 558.16 437.558 558.383 437.236 558.778 437.261Z" fill="#3F5B6C" fill-rule="evenodd" fill-opacity="0.741176"/><path d="M559 437.553C557.622 440.248 555.152 442.23 552.212 442.999 548.374 444.421 544.383 445.396 540.32 445.907 537.148 446.375 533.953 446.597 530.732 446.843 527.225 447.052 523.709 447.052 520.202 446.843 516.193 446.695 512.196 446.3 508.236 445.66 504.518 445.095 500.86 444.187 497.31 442.949 495.956 442.477 494.667 441.84 493.47 441.052 491.99 440.226 490.896 438.854 490.423 437.233 490.102 436.928 489.953 436.485 490.027 436.049 490.027 431.589 490.027 427.129 490.027 422.693 489.957 422.152 490.025 421.6 490.225 421.092 490.745 420.796 490.77 421.289 490.844 421.535 491.291 422.77 492.171 423.802 493.322 424.443 495.597 425.931 498.11 427.023 500.754 427.671 505.616 428.977 510.595 429.803 515.619 430.135 519.244 430.451 522.882 430.583 526.52 430.53 534.57 430.521 542.578 429.377 550.304 427.129 553.506 426.353 556.372 424.574 558.48 422.053 558.58 421.895 558.767 421.817 558.95 421.856Z" fill="#3F5B6C" fill-rule="evenodd" fill-opacity="0.741176"/><path d="M490.301 470C491.874 472.543 494.391 474.39 497.325 475.154 501.21 476.56 505.25 477.515 509.362 477.998 513.159 478.533 517.006 478.679 520.828 478.946 524.493 479.129 528.166 479.08 531.823 478.8 538.039 478.6 544.199 477.586 550.14 475.786 552.962 475.075 555.568 473.707 557.734 471.799 558.231 471.313 558.38 470.583 559 470.219L559 485.802C557.707 488.116 555.558 489.856 552.994 490.664 548.84 492.297 544.484 493.384 540.038 493.897 532.489 494.983 524.842 495.268 517.23 494.749 510.248 494.501 503.348 493.189 496.779 490.859 494.796 490.196 492.99 489.108 491.492 487.674 490.673 486.829 490.227 485.702 490.251 484.538 490.251 479.992 490.251 475.446 490.251 470.899 490.005 470.753 489.926 470.439 490.075 470.198 490.129 470.112 490.207 470.043 490.301 470Z" fill="#3F5B6C" fill-rule="evenodd" fill-opacity="0.741176"/><path d="M558.95 421.997C557.104 424.579 554.409 426.439 551.331 427.256 547.114 428.714 542.741 429.675 538.3 430.12 535.172 430.539 532.02 430.712 528.868 430.86 526.659 430.86 524.475 431.058 522.266 430.984 514.204 430.945 506.189 429.765 498.462 427.478 496.502 426.861 494.638 425.971 492.927 424.836 491.528 424.061 490.553 422.701 490.272 421.133 489.775 420.713 490.073 420.244 490.272 419.824 490.897 418.402 491.991 417.236 493.374 416.516 496.655 414.677 500.219 413.393 503.923 412.714 507.082 412.023 510.282 411.528 513.504 411.233 513.869 411.153 514.251 411.215 514.571 411.406 519.12 411.031 523.685 410.916 528.247 411.06 535.861 411.137 543.424 412.292 550.71 414.492 552.5 415.062 554.217 415.841 555.823 416.813 557.287 417.614 558.413 418.91 559 420.467Z" fill="#3F5B6C" fill-rule="evenodd" fill-opacity="0.741176"/><path d="M400 714.245 400 730.726C399.205 732.569 397.695 734.025 395.804 734.773 391.954 736.651 387.82 737.902 383.562 738.479 378.859 739.227 374.117 739.708 369.358 739.918 365.559 740.064 361.754 740.015 357.96 739.771 351.54 739.544 345.178 738.486 339.039 736.626 336.668 735.938 334.434 734.858 332.434 733.432 331.338 732.646 330.514 731.548 330.075 730.287 329.975 728.72 329.975 727.149 330.075 725.582 330.074 722.144 330.074 718.706 330.074 715.269 330.032 714.866 330.11 714.459 330.298 714.098 330.72 713.855 330.82 714.099 330.919 714.44 331.746 716.018 333.094 717.273 334.743 718 338.916 720.025 343.407 721.344 348.028 721.9 352.791 722.663 357.605 723.087 362.43 723.168 371.824 723.536 381.222 722.534 390.316 720.194 392.265 719.62 394.146 718.844 395.928 717.877 397.385 717.211 398.598 716.122 399.404 714.757 399.479 714.513 399.603 714.196 400 714.245Z" fill="#86A2B4" fill-rule="evenodd" fill-opacity="0.768627"/><path d="M400 714.635C398.868 716.904 396.864 718.625 394.439 719.413 391.172 720.813 387.746 721.814 384.236 722.393 378.391 723.416 372.47 723.951 366.535 723.993 361.867 724.043 357.2 723.821 352.559 723.328 348.182 722.89 343.853 722.066 339.624 720.866 336.934 720.112 334.408 718.868 332.177 717.196 331.317 716.49 330.7 715.534 330.414 714.463 330.094 714.137 329.947 713.681 330.017 713.232 330.017 708.651 330.017 704.096 330.017 699.515 329.965 699.036 330.042 698.551 330.24 698.111 330.662 697.84 330.762 698.111 330.861 698.431 331.809 700.39 333.493 701.902 335.553 702.642 338.053 703.832 340.687 704.724 343.398 705.302 351.703 707.034 360.19 707.753 368.67 707.444 376.167 707.376 383.619 706.281 390.815 704.194 392.826 703.644 394.748 702.815 396.524 701.731 397.701 701.005 398.674 699.997 399.355 698.801 399.355 698.555 399.578 698.234 399.975 698.259Z" fill="#86A2B4" fill-rule="evenodd" fill-opacity="0.768627"/><path d="M400 698.118C398.591 700.92 396.083 702.981 393.099 703.789 389.204 705.261 385.156 706.272 381.035 706.802 377.833 707.283 374.58 707.511 371.329 707.764 368.273 708 365.206 708.06 362.144 707.941 357.57 707.814 353.01 707.383 348.491 706.65 344.721 706.061 341.014 705.112 337.419 703.815 336.047 703.33 334.738 702.675 333.522 701.865 332.024 700.998 330.912 699.574 330.419 697.89 330.1 697.565 329.953 697.104 330.022 696.649 330.022 692.016 330.022 687.383 330.022 682.75 329.958 682.191 330.035 681.625 330.245 681.104 330.767 680.775 330.791 681.307 330.866 681.56 331.242 682.718 331.995 683.71 333.001 684.37 334.889 685.762 336.996 686.815 339.231 687.484 344.701 689.113 350.327 690.132 356.012 690.523 359.685 690.86 363.372 690.995 367.059 690.928 375.225 690.927 383.349 689.742 391.188 687.409 394.559 686.597 397.556 684.631 399.677 681.838L399.975 681.838Z" fill="#86A2B4" fill-rule="evenodd" fill-opacity="0.768627"/><path d="M331.218 731C332.805 733.545 335.325 735.398 338.26 736.177 342.147 737.592 346.192 738.547 350.309 739.019 354.113 739.549 357.941 739.717 361.793 739.982 365.457 740.151 369.129 740.103 372.787 739.838 379.004 739.621 385.167 738.61 391.117 736.828 393.944 736.104 396.553 734.725 398.724 732.806 399.24 732.325 399.362 731.578 400 731.217L400 746.893C398.648 749.201 396.456 750.921 393.866 751.71 391.644 752.643 389.335 753.361 386.97 753.853 377.511 755.787 367.823 756.419 358.186 755.731 351.2 755.492 344.295 754.184 337.721 751.854 335.698 751.18 333.859 750.06 332.347 748.579 331.58 747.739 331.16 746.649 331.169 745.521 331.169 740.946 331.169 736.394 331.169 731.843 330.948 731.506 330.924 731.241 331.218 731Z" fill="#86A2B4" fill-rule="evenodd" fill-opacity="0.768627"/><path d="M399.657 682.352C397.778 684.7 395.206 686.404 392.302 687.223 388.26 688.622 384.074 689.569 379.822 690.048 377.051 690.414 374.256 690.633 371.461 690.755 368.666 690.876 365.994 691.071 363.272 690.974 355.21 690.919 347.196 689.739 339.465 687.467 337.499 686.852 335.632 685.957 333.924 684.812 332.515 684.048 331.539 682.683 331.276 681.111 330.785 680.721 331.055 680.234 331.276 679.82 331.894 678.397 332.984 677.228 334.365 676.508 337.646 674.676 341.207 673.392 344.908 672.709 348.071 672.028 351.272 671.54 354.495 671.247 354.854 671.141 355.242 671.204 355.549 671.418 360.098 671.041 364.666 670.919 369.23 671.053 376.852 671.141 384.422 672.305 391.713 674.511 393.503 675.071 395.215 675.848 396.813 676.824 398.28 677.614 399.412 678.902 400 680.453Z" fill="#86A2B4" fill-rule="evenodd" fill-opacity="0.768627"/><text fill="#4F4531" fill-opacity="1" font-family="Century Gothic,Century Gothic_MSFontService,sans-serif" font-style="normal" font-variant="normal" font-weight="700" font-stretch="normal" font-size="23" text-anchor="start" direction="ltr" writing-mode="lr-tb" unicode-bidi="normal" text-decoration="none" transform="matrix(1 0 0 1 291.326 778)">Temp<tspan fill="#4F4531" fill-opacity="1" font-family="Century Gothic,Century Gothic_MSFontService,sans-serif" font-style="normal" font-variant="normal" font-weight="700" font-stretch="normal" font-size="23" text-anchor="start" direction="ltr" writing-mode="lr-tb" unicode-bidi="normal" text-decoration="none" x="67.375" y="0">Volume</tspan></text><path d="M400 454.254 400 471.364C399.211 473.282 397.699 474.796 395.802 475.565 391.952 477.52 387.816 478.828 383.556 479.438 378.85 480.193 374.107 480.684 369.347 480.905 365.547 481.07 361.74 481.02 357.946 480.753 351.521 480.53 345.155 479.432 339.017 477.489 336.646 476.793 334.416 475.67 332.434 474.173 331.344 473.361 330.522 472.232 330.074 470.934 329.975 469.307 329.975 467.675 330.074 466.049 330.074 462.455 330.074 458.886 330.074 455.317 330.038 454.899 330.115 454.479 330.298 454.103 330.72 453.85 330.82 454.103 330.919 454.457 331.731 456.106 333.085 457.414 334.744 458.152 338.922 460.252 343.413 461.629 348.034 462.227 352.801 463.006 357.615 463.446 362.441 463.543 371.84 463.917 381.241 462.868 390.337 460.43 392.295 459.856 394.18 459.049 395.951 458.025 397.413 457.341 398.629 456.208 399.429 454.786 399.479 454.507 399.603 454.254 400 454.254Z" fill="#86A2B4" fill-rule="evenodd" fill-opacity="0.768627"/><path d="M400 454.635C398.877 456.911 396.87 458.635 394.44 459.413 391.178 460.832 387.75 461.841 384.236 462.417 378.391 463.433 372.47 463.96 366.536 463.994 361.868 464.042 357.201 463.82 352.559 463.329 348.181 462.903 343.852 462.078 339.626 460.866 336.927 460.133 334.398 458.886 332.178 457.197 331.313 456.494 330.695 455.537 330.416 454.463 330.093 454.139 329.945 453.681 330.018 453.231 330.019 448.676 330.019 444.095 330.019 439.514 329.969 439.035 330.046 438.551 330.242 438.11 330.664 437.839 330.763 438.11 330.863 438.455 331.825 440.403 333.505 441.911 335.554 442.666 338.059 443.845 340.691 444.737 343.399 445.326 351.706 447.045 360.191 447.765 368.671 447.469 376.166 447.375 383.614 446.282 390.815 444.218 392.829 443.678 394.753 442.848 396.525 441.755 397.711 441.042 398.688 440.031 399.355 438.825 399.355 438.578 399.578 438.258 399.975 438.307Z" fill="#86A2B4" fill-rule="evenodd" fill-opacity="0.768627"/><path d="M400 438.494C398.589 441.185 396.081 443.16 393.099 443.929 389.201 445.343 385.155 446.324 381.035 446.854 377.832 447.318 374.581 447.537 371.329 447.756 368.273 447.992 365.207 448.057 362.144 447.951 357.571 447.816 353.01 447.401 348.49 446.708 344.723 446.13 341.017 445.216 337.419 443.978 336.05 443.502 334.743 442.872 333.521 442.102 332.033 441.255 330.925 439.889 330.418 438.275 330.096 437.954 329.948 437.501 330.021 437.056 330.021 432.596 330.021 428.16 330.021 423.699 329.959 423.153 330.035 422.6 330.245 422.091 330.766 421.798 330.791 422.286 330.865 422.53 331.236 423.647 331.99 424.604 333 425.235 334.882 426.586 336.991 427.6 339.231 428.233 344.695 429.824 350.324 430.805 356.012 431.158 359.684 431.491 363.372 431.629 367.059 431.572 375.225 431.551 383.348 430.402 391.188 428.16 394.563 427.388 397.563 425.493 399.678 422.798L399.976 422.798Z" fill="#86A2B4" fill-rule="evenodd" fill-opacity="0.768627"/><path d="M331.161 471C332.732 473.56 335.257 475.417 338.199 476.179 342.118 477.598 346.192 478.56 350.339 479.045 354.14 479.575 357.966 479.72 361.816 479.985 365.478 480.178 369.148 480.129 372.803 479.84 379.018 479.636 385.178 478.623 391.123 476.829 393.942 476.104 396.548 474.734 398.725 472.831 399.24 472.325 399.362 471.602 400 471.217L400 486.874C398.651 489.184 396.46 490.905 393.869 491.691 391.654 492.644 389.345 493.37 386.978 493.859 377.522 495.781 367.843 496.414 358.211 495.738 351.231 495.487 344.332 494.179 337.758 491.86 335.739 491.168 333.904 490.04 332.387 488.56 331.612 487.725 331.191 486.63 331.21 485.501 331.21 480.948 331.21 476.372 331.21 471.819 330.968 471.627 330.929 471.278 331.125 471.04 331.136 471.026 331.148 471.013 331.161 471Z" fill="#86A2B4" fill-rule="evenodd" fill-opacity="0.768627"/><path d="M399.682 422.935C397.807 425.406 395.233 427.197 392.326 428.052 388.279 429.526 384.084 430.513 379.822 430.995 377.051 431.379 374.256 431.609 371.461 431.762 368.666 431.916 365.994 432.069 363.272 431.967 355.208 431.935 347.19 430.695 339.465 428.282 337.503 427.635 335.638 426.705 333.924 425.519 332.525 424.704 331.553 423.276 331.276 421.63 330.785 421.195 331.055 420.709 331.276 420.274 331.887 418.774 332.979 417.544 334.365 416.794 337.637 414.849 341.202 413.5 344.908 412.802 348.07 412.079 351.272 411.557 354.495 411.241 354.855 411.156 355.233 411.22 355.549 411.421 360.099 411.033 364.667 410.913 369.23 411.062 376.85 411.146 384.421 412.361 391.713 414.67 393.503 415.259 395.215 416.075 396.813 417.101 398.282 417.94 399.413 419.302 400 420.939Z" fill="#86A2B4" fill-rule="evenodd" fill-opacity="0.768627"/><text fill="#4F4531" fill-opacity="1" font-family="Century Gothic,Century Gothic_MSFontService,sans-serif" font-style="normal" font-variant="normal" font-weight="700" font-stretch="normal" font-size="23" text-anchor="start" direction="ltr" writing-mode="lr-tb" unicode-bidi="normal" text-decoration="none" transform="matrix(1 0 0 1 291.326 518)">Temp<tspan fill="#4F4531" fill-opacity="1" font-family="Century Gothic,Century Gothic_MSFontService,sans-serif" font-style="normal" font-variant="normal" font-weight="700" font-stretch="normal" font-size="23" text-anchor="start" direction="ltr" writing-mode="lr-tb" unicode-bidi="normal" text-decoration="none" x="67.375" y="0">Volume</tspan></text><path d="M453 1161C452.336 1160.98 451.671 1160.98 451.007 1161 450.968 1160.68 451.088 1160.36 451.359 1160.07 451.985 1159.9 452.18 1160.07 452.297 1160.33 452.486 1160.57 452.721 1160.79 453 1161Z" fill="#445B47" fill-rule="evenodd" fill-opacity="0.741176"/><text fill="#4F4531" fill-opacity="1" font-family="Century Gothic,Century Gothic_MSFontService,sans-serif" font-style="normal" font-variant="normal" font-weight="700" font-stretch="normal" font-size="23" text-anchor="start" direction="ltr" writing-mode="lr-tb" unicode-bidi="normal" text-decoration="none" transform="matrix(1 0 0 1 276.515 1081)">Backup<tspan fill="#4F4531" fill-opacity="1" font-family="Century Gothic,Century Gothic_MSFontService,sans-serif" font-style="normal" font-variant="normal" font-weight="700" font-stretch="normal" font-size="23" text-anchor="start" direction="ltr" writing-mode="lr-tb" unicode-bidi="normal" text-decoration="none" x="91.6667" y="0">Volume</tspan></text><path d="M403 1010.25 403 1027.36C402.226 1029.28 400.744 1030.79 398.886 1031.57 395.087 1033.51 391.01 1034.81 386.811 1035.41 382.165 1036.19 377.48 1036.69 372.778 1036.91 369.031 1037.07 365.278 1037.02 361.537 1036.75 355.212 1036.53 348.943 1035.43 342.899 1033.49 340.56 1032.78 338.356 1031.66 336.385 1030.17 335.317 1029.36 334.514 1028.23 334.083 1026.93 333.973 1025.3 333.973 1023.66 334.083 1022.02 334.083 1018.45 334.083 1014.89 334.083 1011.32 334.033 1010.9 334.11 1010.47 334.303 1010.1 334.695 1009.85 334.817 1010.1 334.915 1010.46 335.724 1012.1 337.056 1013.4 338.687 1014.15 342.886 1016.3 347.408 1017.68 352.059 1018.25 366.005 1020.49 380.244 1019.83 393.938 1016.3 395.56 1015.78 397.127 1015.1 398.616 1014.25 400.218 1013.54 401.564 1012.33 402.461 1010.79 402.51 1010.53 402.633 1010.2 403 1010.25Z" fill="#899C6C" fill-rule="evenodd" fill-opacity="0.768627"/><path d="M403 994.474C401.622 997.18 399.143 999.168 396.191 999.931 392.356 1001.35 388.37 1002.32 384.312 1002.83 381.054 1003.32 377.748 1003.54 374.515 1003.78 371.671 1004 368.817 1004.05 365.967 1003.95 361.373 1003.83 356.791 1003.41 352.251 1002.71 348.529 1002.14 344.871 1001.22 341.327 999.956 339.971 999.494 338.678 998.864 337.481 998.08 335.996 997.253 334.897 995.879 334.42 994.254 334.102 993.943 333.956 993.498 334.028 993.06 334.028 988.602 334.028 984.143 334.028 979.709 333.956 979.165 334.024 978.612 334.224 978.1 334.763 977.784 334.787 978.296 334.836 978.539 335.42 980.039 336.559 981.26 338.02 981.95 339.383 982.852 340.868 983.557 342.429 984.045 348.006 985.73 353.759 986.777 359.574 987.164 363.198 987.485 366.835 987.623 370.474 987.578 378.53 987.553 386.544 986.405 394.281 984.167 397.788 983.372 400.87 981.305 402.927 978.369Z" fill="#899C6C" fill-rule="evenodd" fill-opacity="0.768627"/><path d="M334.239 1027C335.809 1029.67 338.336 1031.6 341.282 1032.39 345.161 1033.86 349.197 1034.85 353.307 1035.35 357.11 1035.9 360.963 1036.07 364.791 1036.35 368.455 1036.54 372.127 1036.49 375.785 1036.2 382.012 1035.98 388.184 1034.93 394.141 1033.07 396.961 1032.31 399.566 1030.88 401.749 1028.91 402.24 1028.38 402.387 1027.6 403 1027.23L403 1043.49C401.576 1046.02 399.243 1047.88 396.497 1048.68 394.529 1049.55 392.483 1050.23 390.387 1050.69 380.802 1052.76 370.98 1053.45 361.208 1052.72 354.22 1052.48 347.313 1051.12 340.742 1048.68 338.048 1047.85 335.728 1046.08 334.19 1043.67 334.19 1038.41 334.19 1033.14 334.19 1027.88 333.963 1027.68 333.936 1027.33 334.129 1027.1 334.161 1027.06 334.198 1027.03 334.239 1027Z" fill="#899C6C" fill-rule="evenodd" fill-opacity="0.768627"/><path d="M395.928 984.068C391.783 985.553 387.488 986.546 383.126 987.029 380.452 987.386 377.753 987.615 375.054 987.743 372.355 987.871 369.408 988.074 366.585 987.973 358.442 987.928 350.347 986.691 342.541 984.298 340.556 983.653 338.671 982.716 336.946 981.516 335.532 980.718 334.547 979.3 334.271 977.663 333.776 977.229 334.073 976.745 334.271 976.311 334.907 974.784 336.035 973.531 337.465 972.764 340.779 970.844 344.376 969.499 348.113 968.783 351.307 968.068 354.54 967.557 357.795 967.252 358.159 967.169 358.54 967.233 358.86 967.431 363.455 967.048 368.068 966.92 372.677 967.048 380.373 967.153 388.016 968.373 395.383 970.672 397.186 971.268 398.915 972.082 400.534 973.096 402.358 974.106 403.635 975.92 404 978.021 402.172 981.039 399.277 983.207 395.928 984.069Z" fill="#899C6C" fill-rule="evenodd" fill-opacity="0.768627"/><path d="M403 1010.49C401.607 1013.18 399.133 1015.16 396.192 1015.93 392.354 1017.34 388.37 1018.32 384.314 1018.85 381.032 1019.32 377.75 1019.54 374.517 1019.78 371.673 1020 368.82 1020.05 365.97 1019.95 361.368 1019.83 356.779 1019.41 352.231 1018.71 348.514 1018.13 344.858 1017.22 341.307 1015.98 339.97 1015.49 338.689 1014.86 337.487 1014.1 336.012 1013.26 334.917 1011.89 334.426 1010.28 334.096 1009.96 333.949 1009.5 334.034 1009.06 334.034 1004.6 334.034 1000.14 334.034 995.699 333.952 995.156 334.02 994.6 334.23 994.091 334.744 993.798 334.769 994.286 334.842 994.53 335.424 996.024 336.553 997.243 338.001 997.942 339.376 998.839 340.867 999.545 342.434 1000.04 348.011 1001.72 353.763 1002.77 359.578 1003.16 363.193 1003.48 366.822 1003.62 370.452 1003.57 378.508 1003.55 386.522 1002.4 394.257 1000.16 397.771 999.366 400.861 997.298 402.926 994.359Z" fill="#899C6C" fill-rule="evenodd" fill-opacity="0.768627"/><path d="M365 533 365 633" stroke="#454D6F" stroke-width="9.81447" stroke-linecap="butt" stroke-linejoin="miter" stroke-miterlimit="8" stroke-opacity="1" fill="none" fill-rule="evenodd"/><path d="M352 629 365 652 378 629 352 629Z" fill="#454D6F" fill-rule="evenodd" fill-opacity="1"/><path d="M706 455 706 642" stroke="#454D6F" stroke-width="9.81447" stroke-linecap="butt" stroke-linejoin="miter" stroke-miterlimit="8" stroke-opacity="1" fill="none" fill-rule="evenodd"/><path d="M693 638 706.012 661 719 638 693 638Z" fill="#454D6F" fill-rule="evenodd" fill-opacity="1"/><path d="M49.0002 284.964 49.0002 276 149 276 149 337 134.605 337" fill="#78B1DF" fill-rule="evenodd" fill-opacity="0.839216"/><path d="M125.091 351 135 351 135 338.598 135 337.712 135 285 49.5399 285 33 285 33 296.295" fill="#70AEDE" fill-rule="evenodd" fill-opacity="0.839216"/><path d="M125 361.483C114.131 361.535 103.325 363.14 92.9092 366.249 78.7148 370.521 73.8275 375.089 62.4966 377.583 54.0295 379.459 41.3659 380.323 24.3578 374.62L23 296 124.21 296C124.358 309.861 124.49 323.713 124.605 337.557 124.605 342.001 124.605 346.446 124.605 350.891 124.926 354.446 124.951 358.027 125 361.483Z" fill="#5AA7DC" fill-rule="evenodd" fill-opacity="0.839216"/><text fill="#4F4531" fill-opacity="1" font-family="Century Gothic,Century Gothic_MSFontService,sans-serif" font-style="normal" font-variant="normal" font-weight="700" font-stretch="normal" font-size="23" text-anchor="start" direction="ltr" writing-mode="lr-tb" unicode-bidi="normal" text-decoration="none" transform="matrix(1 0 0 1 33 347)">DWB</text><path d="M112 395.111 112 386 212 386 212 448 197.609 448" fill="#78B1DF" fill-rule="evenodd" fill-opacity="0.839216"/><path d="M187.164 461 197 461 197 448.598 197 447.712 197 395 112.353 395 95.9999 395 95.9999 406.295" fill="#70AEDE" fill-rule="evenodd" fill-opacity="0.839216"/><path d="M188 471.505C177.112 471.556 166.288 473.159 155.855 476.264 141.636 480.531 136.74 485.094 125.391 487.585 116.909 489.459 104.224 490.322 87.1867 484.625L85.9999 406 187.382 406 187.753 447.508 187.901 460.825C187.926 464.451 187.951 468.027 188 471.505Z" fill="#5AA7DC" fill-rule="evenodd" fill-opacity="0.839216"/><text fill="#4F4531" fill-opacity="1" font-family="Century Gothic,Century Gothic_MSFontService,sans-serif" font-style="normal" font-variant="normal" font-weight="700" font-stretch="normal" font-size="23" text-anchor="start" direction="ltr" writing-mode="lr-tb" unicode-bidi="normal" text-decoration="none" transform="matrix(1 0 0 1 95.735 447)">TDE<tspan fill="#4F4531" fill-opacity="1" font-family="Century Gothic,Century Gothic_MSFontService,sans-serif" font-style="normal" font-variant="normal" font-weight="700" font-stretch="normal" font-size="23" text-anchor="start" direction="ltr" writing-mode="lr-tb" unicode-bidi="normal" text-decoration="none" x="0" y="28">Key</tspan></text><path d="M193 280.964 193 272 293 272 293 333 278.605 333" fill="#78B1DF" fill-rule="evenodd" fill-opacity="0.839216"/><path d="M268.186 347 278 347 278 334.597 278 333.712 278 281 193.357 281 177 281 177 292.32" fill="#70AEDE" fill-rule="evenodd" fill-opacity="0.839216"/><path d="M269.001 357.524C258.112 357.564 247.286 359.168 236.855 362.285 222.637 366.528 217.741 371.092 206.415 373.584 197.909 375.459 185.224 376.322 168.187 370.624L167 292 268.382 292C268.53 305.815 268.662 319.647 268.778 333.495 268.778 337.936 268.778 342.376 268.778 346.817 268.926 350.394 268.951 353.971 269.001 357.524Z" fill="#5AA7DC" fill-rule="evenodd" fill-opacity="0.839216"/><text fill="#4F4531" fill-opacity="1" font-family="Century Gothic,Century Gothic_MSFontService,sans-serif" font-style="normal" font-variant="normal" font-weight="700" font-stretch="normal" font-size="23" text-anchor="start" direction="ltr" writing-mode="lr-tb" unicode-bidi="normal" text-decoration="none" transform="matrix(1 0 0 1 176.815 347)">Control</text></g></svg>