<svg id="Layer_1" data-name="Layer 1" xmlns="http://www.w3.org/2000/svg" viewBox="0 0 841.89 595.28"><defs><style>.cls-1{fill:#7eb3e0;}.cls-2{fill:#e2ebf0;}.cls-3{fill:#c2cfd6;}.cls-4{fill:#e9a254;}.cls-5{fill:#5197c7;}.cls-18,.cls-6{fill:none;stroke-miterlimit:10;}.cls-6{stroke:#437eb5;stroke-linecap:round;stroke-width:10px;}.cls-7{fill:#fff;}.cls-8{fill:#437eb5;}.cls-10,.cls-9{font-size:22px;}.cls-9{fill:#5e92cb;}.cls-10,.cls-13,.cls-9{font-family:CenturyGothic-Bold, Century Gothic;font-weight:700;}.cls-10{fill:#437fb5;}.cls-11{opacity:0.4;}.cls-12{fill:#5385c2;}.cls-13{font-size:9px;fill:#4f4531;}.cls-14{fill:#3f5b6c;}.cls-14,.cls-16{opacity:0.74;}.cls-15{fill:#86a2b4;}.cls-15,.cls-17{opacity:0.77;}.cls-16{fill:#445b47;}.cls-17{fill:#899c6c;}.cls-18{stroke:#454d6f;stroke-width:4px;}.cls-19{fill:#454d6f;}.cls-20{fill:#78b1df;}.cls-20,.cls-21,.cls-22{opacity:0.84;}.cls-21{fill:#70aede;}.cls-22{fill:#5aa7dc;}</style></defs><path class="cls-1" d="M455.62,119.19c0,26.3-77.43,47.78-174.84,49.11,79.54-5.46,138.31-24.72,138.31-47.64,0-27.16-82.56-49.17-184.4-49.17-3.18,0-6.35,0-9.49.07,14.72-1,30.13-1.56,46-1.56C373.07,70,455.62,92,455.62,119.19Z"/><path class="cls-2" d="M251.24,171c22.07.51,44.09-1,66.09-2.91A467.65,467.65,0,0,0,385,157.3c7.72-1.85,15.36-4.23,23-6.37,2.59.35,2.58,2.85,2.68,5.1.23,5.09.1,10.19.1,15.29,0,27.25-.25,54.51.13,81.75.16,11.61-5.12,18.1-12.09,23.58-2.64,2.07-5.54,3.65-8,6.11-8.47,4.21-17.56,4.94-26.43,6.76-10.88,2.24-21.87,3.6-32.84,5-8,1-16,1.86-24,2.35-19.76,1.2-39.54,2.79-59.33,2.2-22.34-.66-44.68-1.4-67-3.94C153.53,292,126,287.79,99,279.07c-13.21-4.27-26.15-9.45-37.92-18.31-3.08-2.32-5.41-5.72-8.49-8.17-.8,1.73-.36,4.33-2.32,5.24-1.47-5.32-.91-10.84-.48-16.17.32-4,.6-8,.6-12.07q0-55.69.07-111.4c5.7,13.36,16.22,18.94,26.71,24.08,22.51,11,46.22,16.22,70.08,20.3a511.52,511.52,0,0,0,79.55,7.68c3.84.05,7.67,1.19,11.56.72C242.64,170.74,246.94,168.91,251.24,171Z"/><path class="cls-2" d="M50.28,494.27c-1.5-4.34-.92-8.83-.5-13.18.32-3.29.6-6.55.6-9.84q0-45.42.08-90.84a2.82,2.82,0,0,1,2.95,1.35c6.2,9,15.72,13.07,25.37,16.81,22.2,8.61,45.47,12.71,68.88,16.23,15.86,2.38,31.85,3.52,47.8,5,5.27.49,10.57.55,15.86.86,20.9,1.24,41.85,1.59,62.76.89,36.93-1.25,73.75-3.9,110.11-11.05,6.18-1.21,12.31-2.69,18.44-4.19,1.92-.47,3.92-1.08,5.88,0s2.2,3.24,2.2,5.28c.1,27.69.27,55.38-.1,83.07-.09,7.19-5.27,11.51-10.95,14.88a87.51,87.51,0,0,0-8,5c-8.82,3.18-18.11,4.11-27.28,5.61-17.81,2.9-35.8,4.22-53.75,5.89-5.41.5-10.87.68-16.29.86-19.62.65-39.25,1.72-58.88,1-35.48-1.34-70.92-3.34-105.94-9.62C111.21,515,93,511.18,75.64,504c-8.36-3.47-16.48-7.38-22.93-14.21C51.78,491.4,52.23,493.51,50.28,494.27Z"/><path class="cls-2" d="M50.3,378.8c-1.51-4.32-1-8.82-.51-13.14a103.28,103.28,0,0,0,.6-10.67q.11-45.08.16-90.14a3.14,3.14,0,0,1,3,1.4c7.25,9.5,17.88,13.65,28.49,17.6,20.4,7.59,41.73,11.3,63.14,14.61,14.86,2.29,29.82,3.79,44.8,4.93,6.12.46,12.28.79,18.43,1.16,21.49,1.31,43,1,64.5.72,43.79-.55,87.22-4.52,129.9-14.88,2.21-.54,4.46-1.33,6.62.25,1.49,1.48,1.34,3.42,1.35,5.26q.11,40.71,0,81.41c0,7.93-5.32,12.36-11.25,16.14-3.13,2-6.68,3.31-9.59,5.7-9.15,3.1-18.74,4.11-28.22,5.47-18.44,2.65-37,4.23-55.57,5.55-27.68,2-55.38,2-83,1.25-33.66-1-67.25-3.81-100.37-10.33C102.86,397.19,83,392.88,65,383c-5.51-3-11.11-6.1-13.44-11.43-.38-1.55-.93-1.24-.38-1.4a1.11,1.11,0,0,1,.13.36C52,373.44,53.48,376.41,50.3,378.8Z"/><path class="cls-1" d="M51,494.27v-9.74c18.54,19.94,43.49,24,67.64,29.41s48.94,7.92,73.71,9.73c25.78,1.88,51.59,2.89,77.42,2.21,38.3-1,76.49-3.55,114.2-10.93,2.53-.49,5-1.2,7.52-1.81,12.18-5.39,25.53-7.29,37.73-12.64,8.94-3.93,17.89-7.76,23.87-16.08.66-.92,1.64-1.91,2.85-1.38s.63,1.79.6,2.73c-.08,2.56.36,5.14-.26,7.69-.41,7.22-5.5,11.11-10.78,14.64-11.37,7.61-24.26,11.7-37.31,15.17-26.83,7.12-54.22,10.88-81.84,13.29a744.75,744.75,0,0,1-81.25,3.12c-44.92-1-89.73-3.7-133.74-13.63C94,522.13,76.7,517.71,61.56,507.74,56.62,504.49,52,500.7,51,494.27Z"/><path class="cls-1" d="M51,378.8V367.45c9.51,13.83,23.91,18.56,38.17,23.1,25.78,8.21,52.43,12.08,79.26,15.05,37.28,4.12,74.67,5,112.1,4,34.4-.93,68.65-4,102.55-10.28,2.25-.42,4.45-1.11,6.67-1.67,12.56-5.33,26.18-7.44,38.76-12.73,7.81-3.29,15.57-6.7,21.7-12.84.61-.61,1.21-1.23,1.77-1.88,1.17-1.35,1.8-4.09,3.88-3.35,1.58.57.62,3.1.65,4.74,0,2.13.39,4.3-.25,6.41l-.16,2.49c-.85,8.5-7.62,12-13.8,15.59-8.92,5.17-18.64,8.55-28.59,11.25-1.77.48-3.34-.22-5-.19A449.72,449.72,0,0,1,350,418c-12.66,1.49-25.34,2.91-38.06,3.7-22.46,1.41-45,2.27-67.49,1.86-44.06-.79-87.94-3.61-131.13-13-17.25-3.74-34.33-8.23-49.71-17.41-5.25-3.14-9.8-7-12.44-12.7C51.11,379.87,51.05,379.33,51,378.8Z"/><path class="cls-1" d="M409.56,292.74c-28.53,9-57.58,13.9-86.9,17-33.51,3.6-67.06,4-100.61,2.65-40.73-1.64-81.26-6.31-120.9-18.8C87.66,289.38,74.4,284.26,62.48,275a36.51,36.51,0,0,1-11.23-14.22c-.09-1-.18-1.94-.28-2.92V246.29c6.84,10.48,16,16.1,25.5,20.89,16.14,8.14,33.05,13,50.16,16.8,26.7,5.88,53.65,9.11,80.74,11a672.23,672.23,0,0,0,85.63.58c30.51-1.76,60.93-5.24,91-12.41,2.24-.53,4.43-1.43,6.65-2.15,12-6.13,24.95-8.77,37-14.85,9.56-4.83,19-9.74,25.47-20.42.68-1.13,1.7-2.34,2.88-1.69s.61,2.21.57,3.37c-.12,3.48.43,7-.3,10.45-.06,1-.13,2-.19,3.05-1.52,11.29-9.2,15.46-16.08,20.07-7.76,5.2-16.14,8.79-24.64,11.86C413.37,293.54,411.46,294.23,409.56,292.74Z"/><path class="cls-3" d="M409.56,290.93c9.23-3,18.55-5.81,27.34-10.09,7.71-3.76,14.7-8.23,19.14-15.86.06,23.38.17,46.76.15,70.14,0,12.61,0,25.21.7,37.81.09,1.69.33,3.46-.63,5.05V366.93c-5.72,10.13-14.68,14.41-23.67,18.31a187.43,187.43,0,0,1-42.84,12.39c5-3.24,10.66-5.59,14.92-10a16.6,16.6,0,0,0,5.05-12.27C409.51,347.19,409.58,319.06,409.56,290.93Z"/><path class="cls-3" d="M456.23,257.86V245.52c-6.65,11.6-16.25,17.07-26.07,21.89-12.76,6.26-25.86,11.25-39.53,13.59,5.11-4.13,10.63-7.52,14.84-13.26A20.34,20.34,0,0,0,409.68,255c-.09-32.85,0-65.69-.06-98.54,0-1.9.3-3.91-.91-5.52,8.32-3.19,16.74-6.09,24.69-10.57,9-5.09,17.92-10.45,22.72-22.11q0,55.94.12,111.87c0,7.36.47,14.72.66,22.09C457,254.12,457.14,256.1,456.23,257.86Z"/><path class="cls-3" d="M408.7,407.12c9-3,18.09-5.47,26.64-9.54,8.34-4,16.34-8.37,20.76-17.11,0,28.11.18,56.22,0,84.33,0,8,.77,16,.76,24,0,1.56.26,3.17-.64,4.62v-9.22C450.42,493,441.71,497.18,433,501a175.89,175.89,0,0,1-41.47,12.15c4.47-3.05,9.5-5.27,13.3-9.33,3.15-3.37,5-7,4.94-11.85-.18-26.49-.08-53-.1-79.49C409.61,410.66,410.1,408.72,408.7,407.12Z"/><path class="cls-4" d="M427.92,208.37a19.2,19.2,0,1,1-38.4-.08,19.2,19.2,0,1,1,38.4.08Z"/><path class="cls-4" d="M408.76,447.42a19.17,19.17,0,1,1-19.21,19.05A19,19,0,0,1,408.76,447.42Z"/><path class="cls-4" d="M408.6,330.93a19.18,19.18,0,1,1-19.05,19.21A19,19,0,0,1,408.6,330.93Z"/><path class="cls-5" d="M419.78,121.25c0,27.44-82.55,49.7-184.4,49.7S51,148.69,51,121.25s82.55-49.69,184.38-49.69S419.78,93.8,419.78,121.25Z"/><line class="cls-6" x1="437.33" y1="208.28" x2="580.51" y2="208.28"/><path class="cls-7" d="M437.86,217.68a9.4,9.4,0,1,1,9.4-9.4A9.4,9.4,0,0,1,437.86,217.68Z"/><path class="cls-8" d="M437.86,218.93a10.65,10.65,0,1,0-10.65-10.65,10.66,10.66,0,0,0,10.65,10.65Zm0-18.8a8.15,8.15,0,1,1-8.15,8.15,8.16,8.16,0,0,1,8.15-8.15Z"/><line class="cls-6" x1="437.33" y1="350.1" x2="580.51" y2="350.1"/><path class="cls-7" d="M437.86,359.5a9.4,9.4,0,1,1,9.4-9.4A9.4,9.4,0,0,1,437.86,359.5Z"/><path class="cls-8" d="M437.86,360.75a10.65,10.65,0,1,0-10.65-10.65,10.67,10.67,0,0,0,10.65,10.65Zm0-18.8a8.15,8.15,0,1,1-8.15,8.15,8.16,8.16,0,0,1,8.15-8.15Z"/><line class="cls-6" x1="437.33" y1="466.59" x2="580.51" y2="466.59"/><path class="cls-7" d="M437.86,476a9.4,9.4,0,1,1,9.4-9.4A9.4,9.4,0,0,1,437.86,476Z"/><path class="cls-8" d="M437.86,477.24a10.65,10.65,0,1,0-10.65-10.65,10.66,10.66,0,0,0,10.65,10.65Zm0-18.79a8.15,8.15,0,1,1-8.15,8.14,8.15,8.15,0,0,1,8.15-8.14Z"/><text class="cls-9" transform="translate(590.22 214.93)">Permanent Volume</text><text class="cls-9" transform="translate(590.22 356.4)">Temporary Volume</text><text class="cls-10" transform="translate(590.17 472.3)">Backup Volume</text><g class="cls-11"><ellipse class="cls-12" cx="334.76" cy="230.88" rx="39.62" ry="15.03"/><rect class="cls-12" x="327.38" y="239.71" width="58.3" height="6.2" transform="translate(713.06 485.63) rotate(180)"/></g><text class="cls-13" transform="translate(310.41 234.49)">Active Log</text><text class="cls-13" transform="translate(310.41 234.49)">Active Log</text><g class="cls-11"><ellipse class="cls-12" cx="327.27" cy="365.62" rx="39.62" ry="15.03"/><rect class="cls-12" x="319.89" y="374.46" width="58.3" height="6.2" transform="translate(698.08 755.11) rotate(180)"/></g><text class="cls-13" transform="translate(300.13 369.23)">Archive Log</text><text class="cls-13" transform="translate(300.13 369.23)">Archive Log</text><text class="cls-13" transform="translate(165.62 226.05)">Data Volume</text><path class="cls-14" d="M208.36,199.76v6.68a3,3,0,0,1-1.67,1.64,15.67,15.67,0,0,1-4.87,1.51,48.65,48.65,0,0,1-5.66.57,40.28,40.28,0,0,1-4.53,0,28.77,28.77,0,0,1-7.52-1.28,8.32,8.32,0,0,1-2.62-1.29,2.64,2.64,0,0,1-.94-1.27,15.19,15.19,0,0,1,0-1.91c0-1.39,0-2.78,0-4.18a.84.84,0,0,1,.08-.47c.17-.1.21,0,.25.14a3.13,3.13,0,0,0,1.52,1.44,16.18,16.18,0,0,0,5.08,1.55,42.11,42.11,0,0,0,6.45.55,37,37,0,0,0,10.47-1.19,9.93,9.93,0,0,0,2.75-1.21,2.6,2.6,0,0,0,1-1C208.16,199.87,208.2,199.75,208.36,199.76Z"/><path class="cls-14" d="M208.36,199.76a4.26,4.26,0,0,1-2.62,2.1,19.63,19.63,0,0,1-4.84,1.21,42.46,42.46,0,0,1-5.86.45,46.67,46.67,0,0,1-5.55-.27,27.93,27.93,0,0,1-5.15-1,8.7,8.7,0,0,1-3-1.47,2.14,2.14,0,0,1-.7-1.1.53.53,0,0,1-.15-.48c0-1.84,0-3.67,0-5.51a1,1,0,0,1,.08-.56c.16-.11.21,0,.25.13a3.41,3.41,0,0,0,1.91,1.71,18.15,18.15,0,0,0,4.81,1.37,42.22,42.22,0,0,0,8.32.54,32.78,32.78,0,0,0,8.81-1.31,8.1,8.1,0,0,0,2.27-1,3.2,3.2,0,0,0,1.13-1.18c0-.1.09-.22.25-.21Z"/><path class="cls-14" d="M208.36,193.17a4.38,4.38,0,0,1-2.75,2.21,21.93,21.93,0,0,1-4.79,1.18c-1.29.19-2.58.28-3.87.37a35.65,35.65,0,0,1-4.26,0,39.5,39.5,0,0,1-4.83-.48,23.64,23.64,0,0,1-4.4-1.11,6.38,6.38,0,0,1-1.55-.76,2.63,2.63,0,0,1-1.24-1.55.55.55,0,0,1-.15-.49c0-1.8,0-3.61,0-5.41a1.2,1.2,0,0,1,.08-.65c.21-.12.22.08.25.18a2.2,2.2,0,0,0,1,1.18,9.79,9.79,0,0,0,3,1.31,31.73,31.73,0,0,0,6.05,1,42.84,42.84,0,0,0,4.39.16,34.23,34.23,0,0,0,9.6-1.38,6.2,6.2,0,0,0,3.3-2.06.19.19,0,0,1,.2-.08Z"/><path class="cls-14" d="M180.67,206.35a4.76,4.76,0,0,0,2.84,2.13,21.78,21.78,0,0,0,4.84,1.17c1.54.21,3.08.28,4.62.39a36.33,36.33,0,0,0,4.43-.06,28.17,28.17,0,0,0,7.39-1.24,7.41,7.41,0,0,0,3.06-1.64c.2-.2.25-.5.51-.66v6.42a4.35,4.35,0,0,1-2.42,2,21,21,0,0,1-5.23,1.33,42.09,42.09,0,0,1-9.18.34,26.65,26.65,0,0,1-8.24-1.59,5.71,5.71,0,0,1-2.14-1.31,1.82,1.82,0,0,1-.5-1.29c0-1.87,0-3.74,0-5.61A.23.23,0,0,1,180.67,206.35Z"/><path class="cls-14" d="M208.36,186.85a5.59,5.59,0,0,1-3.07,2.13,23.67,23.67,0,0,1-5.26,1.16c-1.26.16-2.52.23-3.79.3-.89,0-1.78.08-2.66.05a34.2,34.2,0,0,1-9.59-1.42,8.58,8.58,0,0,1-2.24-1.08,2.09,2.09,0,0,1-1.06-1.49c-.2-.17-.09-.36,0-.53a2.76,2.76,0,0,1,1.25-1.34,13.42,13.42,0,0,1,4.24-1.54,31.75,31.75,0,0,1,3.87-.6.52.52,0,0,1,.42.07,48.28,48.28,0,0,1,5.51-.14,32.36,32.36,0,0,1,9.06,1.39,9.82,9.82,0,0,1,2.06.94,2.88,2.88,0,0,1,1.28,1.47Z"/><text class="cls-13" transform="translate(229.43 226.05)">Data Volume</text><path class="cls-14" d="M272.16,199.76v6.68a3,3,0,0,1-1.66,1.64,15.84,15.84,0,0,1-4.87,1.51,48.65,48.65,0,0,1-5.66.57,40.25,40.25,0,0,1-4.53,0,28.69,28.69,0,0,1-7.52-1.28,8.32,8.32,0,0,1-2.62-1.29,2.64,2.64,0,0,1-.94-1.27,15.19,15.19,0,0,1,0-1.91c0-1.39,0-2.78,0-4.18a.85.85,0,0,1,.09-.47c.17-.1.21,0,.25.14a3.09,3.09,0,0,0,1.52,1.44,16.12,16.12,0,0,0,5.07,1.55,42.35,42.35,0,0,0,6.46.55,36.87,36.87,0,0,0,10.46-1.19,9.87,9.87,0,0,0,2.76-1.21,2.58,2.58,0,0,0,1-1C272,199.87,272,199.75,272.16,199.76Z"/><path class="cls-14" d="M272.16,199.76a4.21,4.21,0,0,1-2.62,2.1,19.55,19.55,0,0,1-4.83,1.21,42.7,42.7,0,0,1-5.86.45,46.94,46.94,0,0,1-5.56-.27,28.26,28.26,0,0,1-5.15-1,8.74,8.74,0,0,1-3-1.47,2.08,2.08,0,0,1-.7-1.1.54.54,0,0,1-.16-.48c0-1.84,0-3.67,0-5.51a1.07,1.07,0,0,1,.09-.56c.16-.11.21,0,.24.13a3.45,3.45,0,0,0,1.91,1.71,18.33,18.33,0,0,0,4.82,1.37,42.17,42.17,0,0,0,8.32.54,32.84,32.84,0,0,0,8.81-1.31,8.36,8.36,0,0,0,2.27-1,3.2,3.2,0,0,0,1.13-1.18c.05-.1.09-.22.24-.21Z"/><path class="cls-14" d="M272.16,193.17a4.33,4.33,0,0,1-2.74,2.21,21.46,21.46,0,0,1-4.8,1.18c-1.28.19-2.57.28-3.86.37a35.67,35.67,0,0,1-4.26,0,39.3,39.3,0,0,1-4.83-.48,23.94,23.94,0,0,1-4.41-1.11,6.31,6.31,0,0,1-1.54-.76,2.63,2.63,0,0,1-1.24-1.55.56.56,0,0,1-.16-.49c0-1.8,0-3.61,0-5.41a1.31,1.31,0,0,1,.09-.65c.21-.12.22.08.24.18a2.26,2.26,0,0,0,1,1.18,9.68,9.68,0,0,0,3,1.31,31.76,31.76,0,0,0,6,1,43.14,43.14,0,0,0,4.4.16,34.28,34.28,0,0,0,9.6-1.38,6.2,6.2,0,0,0,3.3-2.06.18.18,0,0,1,.19-.08Z"/><path class="cls-14" d="M244.48,206.35a4.73,4.73,0,0,0,2.84,2.13,21.64,21.64,0,0,0,4.84,1.17c1.53.21,3.08.28,4.62.39a36.33,36.33,0,0,0,4.43-.06,28,28,0,0,0,7.38-1.24,7.41,7.41,0,0,0,3.06-1.64c.21-.2.26-.5.51-.66v6.42a4.29,4.29,0,0,1-2.42,2,20.86,20.86,0,0,1-5.22,1.33,42.09,42.09,0,0,1-9.18.34,26.65,26.65,0,0,1-8.24-1.59,5.63,5.63,0,0,1-2.14-1.31,1.82,1.82,0,0,1-.5-1.29c0-1.87,0-3.74,0-5.61A.22.22,0,0,1,244.48,206.35Z"/><path class="cls-14" d="M272.16,186.85a5.52,5.52,0,0,1-3.07,2.13,23.58,23.58,0,0,1-5.25,1.16c-1.26.16-2.53.23-3.79.3-.89,0-1.78.08-2.67.05a34.31,34.31,0,0,1-9.59-1.42,8.52,8.52,0,0,1-2.23-1.08,2.13,2.13,0,0,1-1.07-1.49c-.19-.17-.08-.36,0-.53a2.7,2.7,0,0,1,1.24-1.34,13.47,13.47,0,0,1,4.25-1.54,31.45,31.45,0,0,1,3.87-.6.52.52,0,0,1,.42.07,48.22,48.22,0,0,1,5.51-.14,32.36,32.36,0,0,1,9.06,1.39,9.52,9.52,0,0,1,2.05.94,2.83,2.83,0,0,1,1.28,1.47Z"/><text class="cls-13" transform="translate(230.18 280.85)">Data Volume</text><path class="cls-14" d="M272.91,254.56v6.68a3,3,0,0,1-1.67,1.63,15.7,15.7,0,0,1-4.86,1.51,51.19,51.19,0,0,1-5.66.58,40.22,40.22,0,0,1-4.53-.06,28.69,28.69,0,0,1-7.52-1.28,8.48,8.48,0,0,1-2.63-1.29,2.63,2.63,0,0,1-.93-1.27,15.19,15.19,0,0,1,0-1.91c0-1.39,0-2.78,0-4.18a.77.77,0,0,1,.09-.47c.16-.1.2,0,.24.14a3.17,3.17,0,0,0,1.52,1.44,16.18,16.18,0,0,0,5.08,1.55,42.36,42.36,0,0,0,6.46.56A37.6,37.6,0,0,0,268.93,257a10.33,10.33,0,0,0,2.76-1.22,2.62,2.62,0,0,0,1-1C272.71,254.67,272.75,254.54,272.91,254.56Z"/><path class="cls-14" d="M272.91,254.56a4.22,4.22,0,0,1-2.62,2.09,19.55,19.55,0,0,1-4.83,1.21,39.8,39.8,0,0,1-5.87.45A46.88,46.88,0,0,1,254,258a27.44,27.44,0,0,1-5.15-1,8.65,8.65,0,0,1-3-1.47,2.09,2.09,0,0,1-.7-1.09.57.57,0,0,1-.16-.49c0-1.84,0-3.67,0-5.51a1,1,0,0,1,.09-.56c.16-.11.2,0,.24.13a3.38,3.38,0,0,0,1.91,1.71,18.35,18.35,0,0,0,4.82,1.38,42.89,42.89,0,0,0,8.32.53,32.89,32.89,0,0,0,8.81-1.3,8.71,8.71,0,0,0,2.27-1,3.07,3.07,0,0,0,1.12-1.17c0-.1.09-.23.25-.22Z"/><path class="cls-14" d="M272.91,248a4.3,4.3,0,0,1-2.74,2.21,21.46,21.46,0,0,1-4.8,1.18c-1.28.19-2.57.28-3.87.38a35.47,35.47,0,0,1-4.25,0,39.11,39.11,0,0,1-4.83-.48,24.53,24.53,0,0,1-4.41-1.1,7,7,0,0,1-1.55-.77,2.61,2.61,0,0,1-1.23-1.55.54.54,0,0,1-.16-.48c0-1.81,0-3.62,0-5.42a1.32,1.32,0,0,1,.08-.65c.21-.12.22.08.25.18a2.21,2.21,0,0,0,1,1.18,9.68,9.68,0,0,0,3,1.31,30.86,30.86,0,0,0,6,1,43.14,43.14,0,0,0,4.4.16,34.33,34.33,0,0,0,9.6-1.38,6.2,6.2,0,0,0,3.3-2.06.18.18,0,0,1,.19-.08Z"/><path class="cls-14" d="M245.23,261.15a4.73,4.73,0,0,0,2.83,2.12,21.32,21.32,0,0,0,4.85,1.17c1.53.22,3.08.28,4.62.39a34.45,34.45,0,0,0,4.43-.06,28.09,28.09,0,0,0,7.38-1.24,7.29,7.29,0,0,0,3.06-1.64c.2-.2.26-.5.51-.65v6.41a4.24,4.24,0,0,1-2.42,2,20.44,20.44,0,0,1-5.22,1.33,42.82,42.82,0,0,1-9.19.35,27.07,27.07,0,0,1-8.24-1.6,5.67,5.67,0,0,1-2.13-1.31,1.82,1.82,0,0,1-.5-1.29c0-1.87,0-3.74,0-5.61A.21.21,0,0,1,245.23,261.15Z"/><path class="cls-14" d="M272.91,241.64a5.51,5.51,0,0,1-3.07,2.13,23,23,0,0,1-5.25,1.16c-1.26.17-2.53.24-3.8.3-.89,0-1.77.08-2.66.05a34.2,34.2,0,0,1-9.59-1.42,8.81,8.81,0,0,1-2.23-1.07,2.15,2.15,0,0,1-1.07-1.5c-.2-.17-.08-.36,0-.53a2.76,2.76,0,0,1,1.25-1.34,13.72,13.72,0,0,1,4.25-1.54,31.29,31.29,0,0,1,3.86-.6.59.59,0,0,1,.43.07,48.22,48.22,0,0,1,5.51-.14,32.29,32.29,0,0,1,9.05,1.39,9.59,9.59,0,0,1,2.06.94,2.82,2.82,0,0,1,1.28,1.48Z"/><path class="cls-15" d="M208.21,360.73v6.76a3.09,3.09,0,0,1-1.69,1.66,16,16,0,0,1-4.93,1.52,49.71,49.71,0,0,1-5.72.59,43.86,43.86,0,0,1-4.59-.06,29.45,29.45,0,0,1-7.62-1.29A8.75,8.75,0,0,1,181,368.6a2.67,2.67,0,0,1-.95-1.29,15.51,15.51,0,0,1,0-1.93c0-1.41,0-2.82,0-4.23a.86.86,0,0,1,.09-.48c.17-.1.21,0,.25.14a3.21,3.21,0,0,0,1.54,1.46,16.64,16.64,0,0,0,5.35,1.6,40.33,40.33,0,0,0,5.8.52,38.27,38.27,0,0,0,11.23-1.22,11.51,11.51,0,0,0,2.26-.95,3.16,3.16,0,0,0,1.4-1.28C208,360.84,208.05,360.71,208.21,360.73Z"/><path class="cls-15" d="M208.21,360.73a3.83,3.83,0,0,1-2.24,1.94,17.67,17.67,0,0,1-4.11,1.21,42.77,42.77,0,0,1-7.13.65,48.13,48.13,0,0,1-5.63-.27,29.81,29.81,0,0,1-5.21-1,9.07,9.07,0,0,1-3-1.49,2.16,2.16,0,0,1-.71-1.11.59.59,0,0,1-.16-.5c0-1.86,0-3.71,0-5.57a1.11,1.11,0,0,1,.09-.57c.17-.11.21,0,.25.13a3.37,3.37,0,0,0,1.89,1.71,14.21,14.21,0,0,0,3.16,1.08,42,42,0,0,0,10.18.87,32.86,32.86,0,0,0,8.92-1.32,8.9,8.9,0,0,0,2.3-1,3.33,3.33,0,0,0,1.14-1.19c0-.1.09-.23.25-.22Z"/><path class="cls-15" d="M208.21,354.05a4.39,4.39,0,0,1-2.78,2.24,21.85,21.85,0,0,1-4.86,1.19c-1.29.19-2.6.28-3.91.38a32.64,32.64,0,0,1-3.7.07,42.44,42.44,0,0,1-5.5-.51A24.48,24.48,0,0,1,183,356.3a7.15,7.15,0,0,1-1.57-.77,2.69,2.69,0,0,1-1.25-1.57.57.57,0,0,1-.16-.49c0-1.83,0-3.66,0-5.49a1.31,1.31,0,0,1,.09-.65c.21-.13.22.08.25.18a2.11,2.11,0,0,0,.86,1.11,8.26,8.26,0,0,0,2.51,1.23,31.74,31.74,0,0,0,6.76,1.2,41.37,41.37,0,0,0,4.45.16,34.71,34.71,0,0,0,9.72-1.39,6.1,6.1,0,0,0,3.42-2.2l.12,0Z"/><path class="cls-15" d="M180.18,367.4a4.85,4.85,0,0,0,2.87,2.15,21.19,21.19,0,0,0,4.91,1.18c1.55.22,3.11.29,4.68.4a37.18,37.18,0,0,0,4.48-.06,29.13,29.13,0,0,0,7.47-1.25,7.44,7.44,0,0,0,3.1-1.67c.21-.2.26-.51.52-.66V374a4.38,4.38,0,0,1-2.5,2,15.06,15.06,0,0,1-2.81.89,42.43,42.43,0,0,1-11.73.78,27.35,27.35,0,0,1-8.34-1.61,5.69,5.69,0,0,1-2.19-1.36,1.88,1.88,0,0,1-.48-1.27c0-1.9,0-3.79,0-5.68C180.07,367.61,180.06,367.5,180.18,367.4Z"/><path class="cls-15" d="M208.09,347.84a5.89,5.89,0,0,1-3,2A23.54,23.54,0,0,1,200,351c-1.13.15-2.27.24-3.41.29s-2.23.13-3.34.09a35.06,35.06,0,0,1-9.71-1.44,8.73,8.73,0,0,1-2.26-1.09,2.13,2.13,0,0,1-1.08-1.52c-.2-.16-.09-.36,0-.53a2.78,2.78,0,0,1,1.26-1.36,14,14,0,0,1,4.3-1.56,32.39,32.39,0,0,1,3.91-.6.5.5,0,0,1,.43.07,49.52,49.52,0,0,1,5.58-.15,32.79,32.79,0,0,1,9.17,1.42,9.31,9.31,0,0,1,2.08.95,2.83,2.83,0,0,1,1.3,1.49Z"/><text class="cls-13" transform="translate(164.09 386.36)">Temp Volume</text><path class="cls-15" d="M208.21,255v6.76a3.06,3.06,0,0,1-1.69,1.66,16.06,16.06,0,0,1-4.93,1.53,52,52,0,0,1-5.72.58,41.29,41.29,0,0,1-4.59-.06,29,29,0,0,1-7.62-1.29,8.31,8.31,0,0,1-2.65-1.31,2.69,2.69,0,0,1-.95-1.28,15.55,15.55,0,0,1,0-1.93c0-1.42,0-2.83,0-4.24a.9.9,0,0,1,.09-.48c.17-.1.21,0,.25.14a3.12,3.12,0,0,0,1.54,1.46,16.91,16.91,0,0,0,5.35,1.61,41.81,41.81,0,0,0,5.8.52,38.28,38.28,0,0,0,11.23-1.23,10.41,10.41,0,0,0,2.26-.95,3.11,3.11,0,0,0,1.4-1.28C208,255.1,208.05,255,208.21,255Z"/><path class="cls-15" d="M208.21,255a3.79,3.79,0,0,1-2.24,1.94,17.22,17.22,0,0,1-4.11,1.22,42.76,42.76,0,0,1-7.13.64,48.23,48.23,0,0,1-5.63-.27,28.92,28.92,0,0,1-5.21-1,8.7,8.7,0,0,1-3-1.49,2.12,2.12,0,0,1-.71-1.11.58.58,0,0,1-.16-.5c0-1.85,0-3.71,0-5.57a1.13,1.13,0,0,1,.09-.57c.17-.11.21,0,.25.14a3.44,3.44,0,0,0,1.89,1.71,14.74,14.74,0,0,0,3.16,1.08,42.52,42.52,0,0,0,10.18.87,33.66,33.66,0,0,0,8.92-1.32,8.6,8.6,0,0,0,2.3-1,3.18,3.18,0,0,0,1.14-1.19c0-.1.09-.23.25-.21Z"/><path class="cls-15" d="M208.21,248.32a4.38,4.38,0,0,1-2.78,2.23,22.44,22.44,0,0,1-4.86,1.2c-1.29.19-2.6.28-3.91.37a32.64,32.64,0,0,1-3.7.08,44.27,44.27,0,0,1-5.5-.51,25.32,25.32,0,0,1-4.46-1.12,7.62,7.62,0,0,1-1.57-.77,2.75,2.75,0,0,1-1.25-1.57.58.58,0,0,1-.16-.5c0-1.83,0-3.65,0-5.48a1.36,1.36,0,0,1,.09-.66c.21-.12.22.08.25.18a2.08,2.08,0,0,0,.86,1.11,8,8,0,0,0,2.51,1.23,30.54,30.54,0,0,0,6.76,1.2,41.38,41.38,0,0,0,4.45.17,35.09,35.09,0,0,0,9.72-1.4,6.05,6.05,0,0,0,3.42-2.2l.12,0Z"/><path class="cls-15" d="M180.18,261.66a4.77,4.77,0,0,0,2.87,2.15A21.73,21.73,0,0,0,188,265c1.55.22,3.11.28,4.68.39a33.47,33.47,0,0,0,4.48-.06,28.7,28.7,0,0,0,7.47-1.25,7.53,7.53,0,0,0,3.1-1.66c.21-.21.26-.51.52-.67v6.5a4.37,4.37,0,0,1-2.5,2,14.38,14.38,0,0,1-2.81.9,42.82,42.82,0,0,1-11.73.78,27.66,27.66,0,0,1-8.34-1.61,5.84,5.84,0,0,1-2.19-1.37,1.84,1.84,0,0,1-.48-1.27c0-1.89,0-3.79,0-5.68A.23.23,0,0,1,180.18,261.66Z"/><path class="cls-15" d="M208.09,242.1a5.85,5.85,0,0,1-3,2,23,23,0,0,1-5.1,1.15c-1.13.15-2.27.24-3.41.3s-2.23.12-3.34.08a34.33,34.33,0,0,1-9.71-1.44,9,9,0,0,1-2.26-1.08,2.17,2.17,0,0,1-1.08-1.52c-.2-.17-.09-.36,0-.53a2.74,2.74,0,0,1,1.26-1.36,13.55,13.55,0,0,1,4.3-1.56,32.42,32.42,0,0,1,3.91-.61.58.58,0,0,1,.43.07,49.51,49.51,0,0,1,5.58-.14,32.78,32.78,0,0,1,9.17,1.41,9.31,9.31,0,0,1,2.08.95,2.85,2.85,0,0,1,1.3,1.5Z"/><text class="cls-13" transform="translate(164.09 280.63)">Temp Volume</text><path class="cls-16" d="M229.73,542.6a4.36,4.36,0,0,0-.51,0,1.21,1.21,0,0,1,.09-.53c.16-.1.21,0,.24.15A2.31,2.31,0,0,0,229.73,542.6Z"/><text class="cls-13" transform="translate(158.06 509.65)"><tspan xml:space="preserve"> Backup Volume</tspan></text><path class="cls-17" d="M209.72,481.35v6.76a3.07,3.07,0,0,1-1.68,1.66,16.13,16.13,0,0,1-4.93,1.52,50.11,50.11,0,0,1-5.73.59,41.32,41.32,0,0,1-4.59-.06,29,29,0,0,1-7.61-1.29,8.68,8.68,0,0,1-2.66-1.31,2.67,2.67,0,0,1-.94-1.28,14,14,0,0,1,0-1.94c0-1.41,0-2.82,0-4.23a.81.81,0,0,1,.09-.48c.16-.1.21,0,.25.14a3.17,3.17,0,0,0,1.54,1.46,16.8,16.8,0,0,0,5.46,1.62,43.24,43.24,0,0,0,17.1-.77,10.33,10.33,0,0,0,1.91-.81,3.39,3.39,0,0,0,1.57-1.37C209.52,481.46,209.57,481.33,209.72,481.35Z"/><path class="cls-17" d="M209.72,474.67a4.34,4.34,0,0,1-2.78,2.24,21.77,21.77,0,0,1-4.85,1.19c-1.33.2-2.68.29-4,.39a31.27,31.27,0,0,1-3.49.07,44,44,0,0,1-5.6-.51,24.09,24.09,0,0,1-4.46-1.13,6.94,6.94,0,0,1-1.57-.77,2.65,2.65,0,0,1-1.25-1.57.56.56,0,0,1-.16-.49c0-1.83,0-3.66,0-5.48a1.34,1.34,0,0,1,.08-.66c.22-.13.23.08.25.18a2.58,2.58,0,0,0,1.3,1.4,7.1,7.1,0,0,0,1.8.86,31.28,31.28,0,0,0,7,1.28,44,44,0,0,0,4.45.17,35.2,35.2,0,0,0,9.72-1.4,5.9,5.9,0,0,0,3.53-2.38Z"/><path class="cls-17" d="M181.7,488a4.76,4.76,0,0,0,2.87,2.15,21.23,21.23,0,0,0,4.9,1.18c1.55.22,3.12.29,4.68.4a35.18,35.18,0,0,0,4.48-.06,28.85,28.85,0,0,0,7.48-1.25,7.6,7.6,0,0,0,3.1-1.66c.2-.21.26-.52.51-.67v6.49a4.47,4.47,0,0,1-2.65,2.07,13.39,13.39,0,0,1-2.49.8,42.48,42.48,0,0,1-11.89.81,27,27,0,0,1-8.34-1.61,4.87,4.87,0,0,1-2.67-2c0-2.1,0-4.2,0-6.3A.22.22,0,0,1,181.7,488Z"/><path class="cls-17" d="M206.61,470.43a23.33,23.33,0,0,1-5.17,1.16c-1.08.14-2.17.23-3.26.28s-2.28.13-3.42.09a34.69,34.69,0,0,1-9.71-1.44,8.73,8.73,0,0,1-2.26-1.09,2.14,2.14,0,0,1-1.08-1.51c-.2-.17-.08-.36,0-.53A2.82,2.82,0,0,1,183,466a14,14,0,0,1,4.3-1.56,32.09,32.09,0,0,1,3.91-.6.59.59,0,0,1,.43.07,51.92,51.92,0,0,1,5.58-.15,33.16,33.16,0,0,1,9.17,1.42,9.74,9.74,0,0,1,2.08.95,2.74,2.74,0,0,1,1.4,1.93A5.38,5.38,0,0,1,206.61,470.43Z"/><path class="cls-17" d="M209.72,481.43a4.38,4.38,0,0,1-2.78,2.23,22.35,22.35,0,0,1-4.85,1.2c-1.34.19-2.68.28-4,.38a31.27,31.27,0,0,1-3.49.07,44.13,44.13,0,0,1-5.61-.51,25.32,25.32,0,0,1-4.46-1.12,8.08,8.08,0,0,1-1.56-.77,2.71,2.71,0,0,1-1.25-1.57.55.55,0,0,1-.16-.5c0-1.83,0-3.66,0-5.48a1.25,1.25,0,0,1,.08-.66c.21-.12.22.08.25.18a2.6,2.6,0,0,0,1.29,1.4,7.33,7.33,0,0,0,1.81.86,31.28,31.28,0,0,0,7,1.28,43.93,43.93,0,0,0,4.44.17,35.09,35.09,0,0,0,9.72-1.4,5.92,5.92,0,0,0,3.54-2.38Z"/><line class="cls-18" x1="194.11" y1="287.09" x2="194.11" y2="327.55"/><polygon class="cls-19" points="188.72 325.98 194.11 335.3 199.5 325.98 188.72 325.98"/><line class="cls-18" x1="332.92" y1="255.31" x2="332.92" y2="331.18"/><polygon class="cls-19" points="327.53 329.6 332.92 338.93 338.3 329.6 327.53 329.6"/><polyline class="cls-20" points="65.63 185.89 65.63 182.2 106.13 182.2 106.13 207.31 100.3 207.31"/><polyline class="cls-21" points="96.28 212.71 100.3 212.71 100.3 207.67 100.3 207.31 100.3 185.89 65.63 185.89 58.92 185.89 58.92 190.48"/><path class="cls-22" d="M96.32,217a46.23,46.23,0,0,0-13,1.93c-5.75,1.73-7.73,3.58-12.32,4.59-3.43.76-8.56,1.11-15.45-1.2L55,190.48h41q.09,8.42.16,16.83c0,1.8,0,3.6,0,5.4C96.29,214.15,96.3,215.6,96.32,217Z"/><text class="cls-13" transform="translate(58.92 210.75)">DWB</text><polyline class="cls-20" points="91.17 230.88 91.17 227.19 131.68 227.19 131.68 252.3 125.85 252.3"/><polyline class="cls-21" points="121.82 257.7 125.85 257.7 125.85 252.66 125.85 252.3 125.85 230.88 91.17 230.88 84.47 230.88 84.47 235.47"/><path class="cls-22" d="M121.87,262a46.23,46.23,0,0,0-13,1.93c-5.75,1.73-7.73,3.58-12.32,4.59-3.43.76-8.56,1.11-15.45-1.2l-.48-31.88h41l.15,16.83.06,5.4C121.84,259.14,121.85,260.59,121.87,262Z"/><text class="cls-13" transform="translate(84.47 257.65)">TDE</text><polyline class="cls-20" points="124.17 184.28 124.17 180.59 164.67 180.59 164.67 205.7 158.84 205.7"/><polyline class="cls-21" points="154.82 211.1 158.84 211.1 158.84 206.06 158.84 205.7 158.84 184.28 124.17 184.28 117.47 184.28 117.47 188.88"/><path class="cls-22" d="M154.86,215.44a45.91,45.91,0,0,0-13,1.93c-5.75,1.72-7.73,3.57-12.31,4.58-3.44.76-8.57,1.11-15.46-1.2l-.48-31.87h41q.09,8.4.16,16.82c0,1.8,0,3.6,0,5.4C154.83,212.55,154.84,214,154.86,215.44Z"/><text class="cls-13" transform="translate(117.47 211.06)">Control</text></svg>