<svg width="1746" height="1127" xmlns="http://www.w3.org/2000/svg" xmlns:xlink="http://www.w3.org/1999/xlink" xml:space="preserve" overflow="hidden"><defs><clipPath id="clip0"><rect x="0" y="0" width="1746" height="1127"/></clipPath></defs><g clip-path="url(#clip0)"><path d="M978 117.596C978 180.469 793.515 231.821 561.426 235 750.938 221.948 890.963 175.904 890.963 121.109 890.963 56.18 694.255 3.5619 451.611 3.5619 444.035 3.5619 436.481 3.5619 429 3.7294 464.072 1.33892 500.788 0 538.6 0 781.316 0 978 52.5943 978 117.596Z" fill="#7EB3E0" fill-rule="evenodd" fill-opacity="1"/><path d="M491.917 241.039C544.591 242.256 597.144 238.652 649.651 234.093 704.043 229.472 758.022 220.863 811.154 208.341 829.58 203.927 847.814 198.246 866.047 193.139 872.229 193.975 872.205 199.941 872.444 205.31 872.992 217.459 872.682 229.631 872.682 241.802 872.682 306.839 872.085 371.899 872.992 436.911 873.373 464.62 860.772 480.11 844.137 493.188 837.837 498.129 830.916 501.9 825.044 507.771 804.829 517.818 783.135 519.561 761.966 523.904 735.999 529.25 709.77 532.497 683.588 535.838 664.495 538.224 645.402 540.276 626.309 541.446 579.15 544.31 531.941 548.105 484.71 546.697 431.392 545.122 378.074 543.356 324.805 537.293 258.719 529.823 193.015 519.776 128.575 498.964 97.0478 488.773 66.1644 476.41 38.0739 455.265 30.7228 449.727 25.1619 441.613 17.8112 435.766 15.9015 439.894 16.9522 446.1 12.2742 448.272 8.76558 435.574 10.1021 422.401 11.1282 409.679 11.8923 400.133 12.5608 390.586 12.5608 380.872 12.5608 292.265 12.616 203.641 12.7275 115 26.3314 146.886 51.4388 160.203 76.4747 172.471 130.198 198.724 186.785 211.182 243.731 220.92 306.441 231.971 369.921 238.1 433.588 239.249 442.753 239.368 451.893 242.089 461.178 240.968 471.392 240.418 481.655 236.052 491.917 241.039Z" fill="#E2EBF0" fill-rule="evenodd" fill-opacity="1"/><path d="M12.3138 1012.32C8.73711 1001.98 10.1198 991.289 11.1213 980.933 11.8847 973.097 12.552 965.328 12.552 957.491 12.552 885.366 12.6155 813.24 12.7426 741.114 15.5318 740.596 18.3458 741.883 19.7765 744.329 34.5594 765.767 57.2582 775.461 80.2671 784.37 133.199 804.879 188.683 814.645 244.499 823.029 282.316 828.699 320.44 831.414 358.47 834.94 371.035 836.106 383.672 836.25 396.286 836.988 446.118 839.941 496.07 840.775 545.926 839.107 633.979 836.13 721.77 829.818 808.464 812.787 823.2 809.905 837.815 806.379 852.432 802.807 857.009 801.687 861.779 800.234 866.451 802.807 871.124 805.379 871.697 810.524 871.697 815.384 871.935 881.34 872.341 947.297 871.458 1013.25 871.244 1030.38 858.893 1040.67 845.35 1048.7 838.782 1052.32 832.415 1056.3 826.275 1060.6 805.245 1068.19 783.096 1070.4 761.231 1073.97 718.766 1080.88 675.872 1084.02 633.074 1088 620.174 1089.19 607.156 1089.62 594.232 1090.04 547.452 1091.59 500.648 1094.15 453.844 1092.43 369.247 1089.24 284.747 1084.48 201.248 1069.51 157.591 1061.7 114.172 1052.6 72.7802 1035.5 52.8471 1027.24 33.4864 1017.93 18.1076 1001.66 15.8902 1005.49 16.9632 1010.52 12.3138 1012.32Z" fill="#E2EBF0" fill-rule="evenodd" fill-opacity="1"/><path d="M12.3961 736.264C8.79594 725.982 10.0119 715.271 11.1802 704.99 12.0958 696.554 12.5733 688.078 12.6109 679.594 12.7855 608.064 12.9129 536.551 12.9923 465.053 15.8172 464.716 18.5884 466.008 20.145 468.385 37.4308 490.997 62.7752 500.873 88.0724 510.274 136.711 528.34 187.567 537.17 238.614 545.047 274.043 550.498 309.711 554.068 345.428 556.782 360.019 557.876 374.707 558.662 389.369 559.542 440.607 562.66 491.892 561.922 543.153 561.256 647.559 559.947 751.108 550.498 852.866 525.84 858.136 524.555 863.501 522.675 868.65 526.435 872.203 529.958 871.845 534.576 871.869 538.954 872.044 603.55 872.044 668.138 871.869 732.717 871.869 751.591 859.185 762.135 845.046 771.132 837.583 775.892 829.12 779.01 822.182 784.698 800.366 792.076 777.501 794.48 754.898 797.717 710.932 804.025 666.681 807.784 622.406 810.927 556.41 815.687 490.366 815.687 424.513 813.901 344.259 811.521 264.173 804.833 185.207 789.315 137.712 780.034 90.3613 769.775 47.4445 746.259 34.3074 739.12 20.9556 731.741 15.4004 719.055 14.4941 715.366 13.1829 716.104 14.4941 715.723 14.6468 715.989 14.7515 716.279 14.8042 716.58 16.4496 723.506 19.9779 730.575 12.3961 736.264Z" fill="#E2EBF0" fill-rule="evenodd" fill-opacity="1"/><path d="M15.0001 1011.2 15.0001 987.913C59.1447 1035.59 118.551 1045.3 176.053 1058.23 233.555 1071.17 292.582 1077.16 351.56 1081.49 412.944 1085.98 474.398 1088.4 535.901 1086.78 627.094 1084.39 718.026 1078.29 807.816 1060.64 813.84 1059.47 819.721 1057.77 825.721 1056.31 854.722 1043.43 886.509 1038.88 915.558 1026.1 936.845 1016.7 958.154 1007.55 972.397 987.65 973.969 985.455 976.296 983.085 979.177 984.357 982.057 985.62 980.68 988.632 980.612 990.876 980.418 996.996 981.466 1003.16 979.991 1009.27 979.012 1026.53 966.892 1035.82 954.321 1044.27 927.249 1062.46 896.557 1072.23 865.484 1080.53 801.601 1097.56 736.384 1106.55 670.62 1112.31 606.316 1118.33 541.734 1120.82 477.16 1119.77 370.204 1117.38 263.51 1110.92 158.72 1087.17 117.385 1077.81 76.1927 1067.24 40.1437 1043.4 28.3815 1035.63 17.3812 1026.58 15.0001 1011.2Z" fill="#7EB3E0" fill-rule="evenodd" fill-opacity="1"/><path d="M15.0001 736.842 15.0001 709.731C37.6404 742.765 71.9214 754.063 105.87 764.908 167.243 784.518 230.687 793.761 294.561 800.856 383.312 810.697 472.323 812.798 561.431 810.411 643.326 808.189 724.863 800.856 805.568 785.856 810.925 784.853 816.162 783.204 821.447 781.866 851.348 769.136 883.772 764.096 913.721 751.46 932.314 743.601 950.787 735.456 965.381 720.79 966.833 719.333 968.262 717.852 969.595 716.3 972.38 713.075 973.883 706.53 978.83 708.298 982.593 709.659 980.304 715.702 980.381 719.62 980.381 724.708 981.312 729.891 979.78 734.931L979.402 740.878C977.384 761.182 961.263 769.542 946.55 778.117 925.315 790.466 902.175 798.539 878.488 804.988 874.273 806.135 870.536 804.463 866.584 804.535 820.619 816.278 773.927 824.944 726.815 830.475 696.677 834.034 666.49 837.425 636.208 839.313 582.739 842.681 529.079 844.734 475.538 843.755 370.646 841.869 266.183 835.133 163.363 812.703 122.296 803.77 81.6344 793.045 45.0202 771.117 32.522 763.618 21.6897 754.398 15.4047 740.783 15.2619 739.397 15.1191 738.107 15.0001 736.842Z" fill="#7EB3E0" fill-rule="evenodd" fill-opacity="1"/><path d="M868.562 531.478C800.571 552.923 731.341 564.599 661.469 571.986 581.61 580.564 501.656 581.517 421.703 578.301 324.639 574.393 228.051 563.264 133.584 533.503 101.437 523.471 69.8363 511.272 41.4298 489.207 29.8031 480.341 20.5987 468.687 14.6672 455.323 14.4527 452.94 14.2385 450.7 14.0001 448.365L14.0001 420.796C30.3004 445.768 52.1296 459.16 74.7696 470.573 113.233 489.969 153.532 501.55 194.307 510.605 257.936 524.616 322.16 532.312 386.719 536.815 454.643 541.612 522.803 542.074 590.786 538.197 663.494 534.004 735.988 525.712 807.649 508.626 812.987 507.364 818.207 505.22 823.497 503.504 852.094 488.897 882.955 482.607 911.671 468.119 934.454 456.61 956.951 444.91 972.37 419.462 973.99 416.769 976.425 413.886 979.237 415.435 982.04 416.984 980.683 420.701 980.595 423.465 980.304 431.757 981.614 440.145 979.877 448.365 979.732 450.747 979.567 453.13 979.422 455.634 975.804 482.535 957.499 492.471 941.104 503.456 922.61 515.846 902.64 524.401 882.384 531.717 877.641 533.384 873.089 535.028 868.562 531.478Z" fill="#7EB3E0" fill-rule="evenodd" fill-opacity="1"/><path d="M869.143 526.818C891.109 519.672 913.288 512.978 934.206 502.781 952.555 493.825 969.189 483.176 979.751 465 979.897 520.695 980.159 576.392 980.11 632.088 980.11 662.128 980.11 692.144 981.778 722.159 981.991 726.186 982.564 730.402 980.275 734.19L980.275 707.866C966.667 731.998 945.344 742.194 923.95 751.485 891.261 765.349 857.035 775.258 822 781 833.899 773.282 847.368 767.684 857.507 757.178 865.397 749.531 869.751 738.94 869.524 727.948 869.025 660.841 869.191 593.83 869.143 526.818Z" fill="#C2CFD6" fill-rule="evenodd" fill-opacity="1"/><path d="M980.225 447.972 980.225 418.628C964.392 446.213 941.529 459.221 918.142 470.683 887.754 485.569 856.555 497.436 824 503 836.17 493.18 849.316 485.118 859.342 471.468 866.02 462.792 869.554 452.112 869.369 441.171 869.154 363.053 869.369 284.959 869.225 206.84 869.225 202.322 869.94 197.543 867.058 193.714 886.873 186.128 906.925 179.231 925.859 168.578 947.292 156.474 968.536 143.728 979.963 116 979.963 204.684 980.06 293.361 980.254 382.03 980.254 399.532 981.369 417.035 981.825 434.56 982.067 439.079 982.396 443.787 980.225 447.972Z" fill="#C2CFD6" fill-rule="evenodd" fill-opacity="1"/><path d="M866.98 804.472C888.46 797.326 910.154 791.444 930.561 781.75 950.465 772.224 969.559 761.816 980.105 741 980.105 807.949 980.541 874.898 980.105 941.846 980.105 960.899 981.946 979.948 981.917 999.005 981.917 1002.72 982.537 1006.56 980.396 1010.01L980.396 988.052C966.551 1009.01 945.763 1018.96 924.976 1028.07 893.301 1041.73 860.058 1051.46 826 1057 836.668 1049.74 848.674 1044.45 857.742 1034.78 865.261 1026.76 869.676 1018.11 869.533 1006.56 869.104 943.466 869.342 880.328 869.295 817.237 869.151 812.903 870.321 808.283 866.98 804.472Z" fill="#C2CFD6" fill-rule="evenodd" fill-opacity="1"/><path d="M912 330.096C911.948 355.501 891.534 376.053 866.405 376 841.277 375.947 820.948 355.31 821 329.904 821.052 304.5 841.466 283.947 866.595 284 891.724 284.053 912.053 304.691 912 330.096Z" fill="#E9A254" fill-rule="evenodd" fill-opacity="1"/><path d="M866.596 900.003C891.725 900.056 912.053 920.694 912 946.098 911.947 971.498 891.534 992.058 866.404 992 841.276 991.942 820.947 971.305 821 945.905 821 945.841 821 945.777 821.001 945.713 820.934 920.534 841.07 900.068 865.975 900 866.183 900 866.39 900 866.596 900.003Z" fill="#E9A254" fill-rule="evenodd" fill-opacity="1"/><path d="M866.193 622.001C891.321 621.829 911.829 642.284 911.999 667.689 912.169 693.094 891.937 713.827 866.81 713.999 841.682 714.171 821.174 693.717 821.004 668.312 821.004 668.232 821.003 668.153 821.003 668.073 820.727 642.908 840.682 622.282 865.574 622.004 865.779 622.002 865.987 622.001 866.193 622.001Z" fill="#E9A254" fill-rule="evenodd" fill-opacity="1"/><path d="M893 122.488C893 187.92 696.463 241 453.976 241 211.49 241 15.0001 187.92 15.0001 122.488 15.0001 57.0561 211.537 4.00013 453.976 4.00013 696.415 4.00013 893 57.0323 893 122.488Z" fill="#5197C7" fill-rule="evenodd" fill-opacity="1"/><path d="M936 331 1277 331" stroke="#437EB5" stroke-width="23.7868" stroke-linecap="round" stroke-linejoin="miter" stroke-miterlimit="8" stroke-opacity="1" fill="none" fill-rule="evenodd"/><path d="M936.5 352C924.074 352 914 342.151 914 330 914 317.849 924.074 308 936.5 308 948.927 308 959 317.849 959 330 959 342.151 948.927 352 936.5 352Z" fill="#FFFFFF" fill-rule="evenodd" fill-opacity="1"/><path d="M936.5 355C950.583 355 962.001 343.808 962.001 330 962.001 316.193 950.583 305 936.5 305 922.417 305 911 316.193 911 330 911.014 343.802 922.422 354.988 936.5 355ZM936.5 310.868C947.278 310.868 956.015 319.434 956.015 330 956.015 340.566 947.278 349.132 936.5 349.132 925.722 349.132 916.987 340.566 916.987 330 916.999 319.439 925.728 310.882 936.5 310.868Z" fill="#437EB5" fill-rule="evenodd" fill-opacity="1"/><path d="M936 668 1277 668" stroke="#437EB5" stroke-width="23.7868" stroke-linecap="round" stroke-linejoin="miter" stroke-miterlimit="8" stroke-opacity="1" fill="none" fill-rule="evenodd"/><path d="M936.5 690C924.074 690 914 680.151 914 668 914 655.849 924.074 646 936.5 646 948.927 646 959 655.849 959 668 959 680.151 948.927 690 936.5 690Z" fill="#FFFFFF" fill-rule="evenodd" fill-opacity="1"/><path d="M936.5 693C950.583 693 962.001 681.808 962.001 668 962.001 654.194 950.583 643 936.5 643 922.417 643 911 654.194 911 668 911.027 681.797 922.428 692.974 936.5 693ZM936.5 648.868C947.278 648.868 956.015 657.434 956.015 668 956.015 678.566 947.278 687.132 936.5 687.132 925.722 687.132 916.987 678.566 916.987 668 916.999 657.44 925.728 648.882 936.5 648.868Z" fill="#437EB5" fill-rule="evenodd" fill-opacity="1"/><path d="M936 946 1277 946" stroke="#437EB5" stroke-width="23.7868" stroke-linecap="round" stroke-linejoin="miter" stroke-miterlimit="8" stroke-opacity="1" fill="none" fill-rule="evenodd"/><path d="M936.5 969C924.074 969 914 958.703 914 946 914 933.297 924.074 923 936.5 923 948.927 923 959 933.297 959 946 959 958.703 948.927 969 936.5 969Z" fill="#FFFFFF" fill-rule="evenodd" fill-opacity="1"/><path d="M936.5 972C950.583 972 962.001 960.36 962.001 946 962.001 931.641 950.583 920 936.5 920 922.417 920 911 931.641 911 946 911.014 960.354 922.422 971.99 936.5 972ZM936.5 926.127C947.278 926.127 956.015 935.036 956.015 946.025 956.015 957.013 947.278 965.922 936.5 965.922 925.722 965.922 916.987 957.013 916.987 946.025 916.987 946.017 916.987 946.009 916.987 946 916.999 935.021 925.732 926.127 936.5 926.127Z" fill="#437EB5" fill-rule="evenodd" fill-opacity="1"/><text fill="#5E92CB" fill-opacity="1" font-family="Century Gothic,Century Gothic_MSFontService,sans-serif" font-style="normal" font-variant="normal" font-weight="700" font-stretch="normal" font-size="44" text-anchor="start" direction="ltr" writing-mode="lr-tb" unicode-bidi="normal" text-decoration="none" transform="matrix(1 0 0 1 1299.61 337)">Permanent<tspan fill="#5E92CB" fill-opacity="1" font-family="Century Gothic,Century Gothic_MSFontService,sans-serif" font-style="normal" font-variant="normal" font-weight="700" font-stretch="normal" font-size="44" text-anchor="start" direction="ltr" writing-mode="lr-tb" unicode-bidi="normal" text-decoration="none" x="246.365" y="0">Volume</tspan><tspan fill="#5E92CB" fill-opacity="1" font-family="Century Gothic,Century Gothic_MSFontService,sans-serif" font-style="normal" font-variant="normal" font-weight="700" font-stretch="normal" font-size="44" text-anchor="start" direction="ltr" writing-mode="lr-tb" unicode-bidi="normal" text-decoration="none" x="0.012207" y="338">Temporary</tspan><tspan fill="#5E92CB" fill-opacity="1" font-family="Century Gothic,Century Gothic_MSFontService,sans-serif" font-style="normal" font-variant="normal" font-weight="700" font-stretch="normal" font-size="44" text-anchor="start" direction="ltr" writing-mode="lr-tb" unicode-bidi="normal" text-decoration="none" x="242.902" y="338">Volume</tspan><tspan fill="#437FB5" fill-opacity="1" font-family="Century Gothic,Century Gothic_MSFontService,sans-serif" font-style="normal" font-variant="normal" font-weight="700" font-stretch="normal" font-size="44" text-anchor="start" direction="ltr" writing-mode="lr-tb" unicode-bidi="normal" text-decoration="none" x="-0.134644" y="614">Backup</tspan><tspan fill="#437FB5" fill-opacity="1" font-family="Century Gothic,Century Gothic_MSFontService,sans-serif" font-style="normal" font-variant="normal" font-weight="700" font-stretch="normal" font-size="44" text-anchor="start" direction="ltr" writing-mode="lr-tb" unicode-bidi="normal" text-decoration="none" x="177.8" y="614">Volume</tspan></text><path d="M785 383.5C785 403.107 742.692 419 690.5 419 638.309 419 596 403.107 596 383.5 596 363.893 638.309 348 690.5 348 742.692 348 785 363.893 785 383.5Z" fill="#5385C2" fill-rule="evenodd" fill-opacity="1"/><path d="M812 419 673 419 673 405 812 405Z" fill="#5385C2" fill-rule="evenodd" fill-opacity="1"/><text fill="#4F4531" fill-opacity="1" font-family="Century Gothic,Century Gothic_MSFontService,sans-serif" font-style="normal" font-variant="normal" font-weight="700" font-stretch="normal" font-size="23" text-anchor="start" direction="ltr" writing-mode="lr-tb" unicode-bidi="normal" text-decoration="none" transform="matrix(1 0 0 1 632.57 394)">Active<tspan fill="#4F4531" fill-opacity="1" font-family="Century Gothic,Century Gothic_MSFontService,sans-serif" font-style="normal" font-variant="normal" font-weight="700" font-stretch="normal" font-size="23" text-anchor="start" direction="ltr" writing-mode="lr-tb" unicode-bidi="normal" text-decoration="none" x="75.6264" y="0">Log</tspan><tspan fill="#4F4531" fill-opacity="1" font-family="Century Gothic,Century Gothic_MSFontService,sans-serif" font-style="normal" font-variant="normal" font-weight="700" font-stretch="normal" font-size="23" text-anchor="start" direction="ltr" writing-mode="lr-tb" unicode-bidi="normal" text-decoration="none" x="0" y="0">Active</tspan><tspan fill="#4F4531" fill-opacity="1" font-family="Century Gothic,Century Gothic_MSFontService,sans-serif" font-style="normal" font-variant="normal" font-weight="700" font-stretch="normal" font-size="23" text-anchor="start" direction="ltr" writing-mode="lr-tb" unicode-bidi="normal" text-decoration="none" x="75.6264" y="0">Log</tspan></text><path d="M767 705C767 724.883 724.692 741 672.5 741 620.308 741 578 724.883 578 705 578 685.117 620.308 669 672.5 669 724.692 669 767 685.117 767 705Z" fill="#5385C2" fill-rule="evenodd" fill-opacity="1"/><path d="M794 741 655 741 655 726 794 726Z" fill="#5385C2" fill-rule="evenodd" fill-opacity="1"/><text fill="#4F4531" fill-opacity="1" font-family="Century Gothic,Century Gothic_MSFontService,sans-serif" font-style="normal" font-variant="normal" font-weight="700" font-stretch="normal" font-size="23" text-anchor="start" direction="ltr" writing-mode="lr-tb" unicode-bidi="normal" text-decoration="none" transform="matrix(1 0 0 1 608.032 715)">Archive<tspan fill="#4F4531" fill-opacity="1" font-family="Century Gothic,Century Gothic_MSFontService,sans-serif" font-style="normal" font-variant="normal" font-weight="700" font-stretch="normal" font-size="23" text-anchor="start" direction="ltr" writing-mode="lr-tb" unicode-bidi="normal" text-decoration="none" x="89.4454" y="0">Log</tspan><tspan fill="#4F4531" fill-opacity="1" font-family="Century Gothic,Century Gothic_MSFontService,sans-serif" font-style="normal" font-variant="normal" font-weight="700" font-stretch="normal" font-size="23" text-anchor="start" direction="ltr" writing-mode="lr-tb" unicode-bidi="normal" text-decoration="none" x="0" y="0">Archive</tspan><tspan fill="#4F4531" fill-opacity="1" font-family="Century Gothic,Century Gothic_MSFontService,sans-serif" font-style="normal" font-variant="normal" font-weight="700" font-stretch="normal" font-size="23" text-anchor="start" direction="ltr" writing-mode="lr-tb" unicode-bidi="normal" text-decoration="none" x="89.4454" y="0">Log</tspan><tspan fill="#4F4531" fill-opacity="1" font-family="Century Gothic,Century Gothic_MSFontService,sans-serif" font-style="normal" font-variant="normal" font-weight="700" font-stretch="normal" font-size="23" text-anchor="start" direction="ltr" writing-mode="lr-tb" unicode-bidi="normal" text-decoration="none" x="-320.665" y="-342">Data</tspan><tspan fill="#4F4531" fill-opacity="1" font-family="Century Gothic,Century Gothic_MSFontService,sans-serif" font-style="normal" font-variant="normal" font-weight="700" font-stretch="normal" font-size="23" text-anchor="start" direction="ltr" writing-mode="lr-tb" unicode-bidi="normal" text-decoration="none" x="-262.837" y="-342">Volume</tspan></text><path d="M389 310.096 389 325.995C388.262 327.78 386.833 329.19 385.041 329.898 381.414 331.721 377.514 332.934 373.496 333.492 369.054 334.207 364.573 334.66 360.078 334.848 356.501 335.051 352.915 335.051 349.339 334.848 343.287 334.632 337.293 333.608 331.511 331.802 329.276 331.155 327.173 330.114 325.299 328.732 324.266 327.976 323.489 326.921 323.072 325.709 322.976 324.195 322.976 322.677 323.072 321.163 323.072 317.856 323.072 314.547 323.072 311.215 323.025 310.832 323.091 310.443 323.261 310.096 323.663 309.859 323.759 310.096 323.854 310.43 324.626 311.953 325.9 313.163 327.457 313.857 331.241 315.744 335.311 316.99 339.5 317.545 344.556 318.375 349.668 318.814 354.792 318.855 363.157 319.104 371.516 318.151 379.613 316.023 381.919 315.4 384.117 314.429 386.132 313.142 387.126 312.585 387.947 311.76 388.502 310.762 388.527 310.359 388.622 310.073 389 310.096Z" fill="#3F5B6C" fill-rule="evenodd" fill-opacity="0.741176"/><path d="M389 308.988C387.701 311.453 385.46 313.271 382.798 314.017 379.117 315.472 375.266 316.446 371.342 316.915 366.747 317.599 362.112 317.959 357.469 317.993 353.081 318.043 348.694 317.826 344.329 317.347 340.201 316.938 336.119 316.136 332.139 314.952 329.569 314.253 327.157 313.058 325.037 311.431 324.227 310.748 323.648 309.828 323.379 308.796 323.077 308.498 322.945 308.065 323.025 307.646 323.025 303.24 323.025 298.857 323.025 294.449 322.959 293.993 323.025 293.528 323.214 293.108 323.593 292.844 323.711 293.108 323.806 293.42 324.729 295.328 326.351 296.797 328.327 297.515 331.954 299.136 335.787 300.24 339.714 300.796 346.221 301.884 352.818 302.317 359.41 302.09 366.471 302.009 373.487 300.953 380.266 298.952 382.167 298.438 383.98 297.63 385.639 296.557 386.757 295.864 387.679 294.891 388.314 293.731 388.314 293.491 388.528 293.204 388.906 293.228Z" fill="#3F5B6C" fill-rule="evenodd" fill-opacity="0.741176"/><path d="M388.93 293.94C387.589 296.522 385.228 298.422 382.421 299.177 378.759 300.532 374.955 301.47 371.082 301.973 368.03 302.423 364.976 302.636 361.923 302.849 358.565 303.051 355.198 303.051 351.839 302.849 348.01 302.705 344.191 302.325 340.407 301.712 336.859 301.172 333.372 300.291 329.992 299.081 328.694 298.65 327.46 298.045 326.323 297.28 324.904 296.487 323.85 295.169 323.389 293.608 323.086 293.304 322.954 292.869 323.034 292.447 323.034 288.181 323.034 283.893 323.034 279.628 322.952 279.107 323.019 278.574 323.224 278.088 323.72 277.804 323.744 278.278 323.815 278.514 324.24 279.703 325.081 280.696 326.182 281.31 328.358 282.737 330.758 283.786 333.282 284.414 337.969 285.665 342.764 286.459 347.603 286.785 351.057 287.088 354.526 287.215 357.994 287.163 365.685 287.158 373.335 286.058 380.716 283.893 383.776 283.147 386.514 281.437 388.528 279.012 388.631 278.857 388.819 278.781 389 278.823Z" fill="#3F5B6C" fill-rule="evenodd" fill-opacity="0.741176"/><path d="M323.263 325C324.775 327.448 327.19 329.228 330.006 329.968 333.717 331.306 337.572 332.222 341.495 332.696 345.152 333.187 348.808 333.35 352.464 333.606 355.969 333.769 359.482 333.723 362.982 333.466 368.934 333.274 374.835 332.301 380.525 330.575 383.221 329.882 385.711 328.571 387.79 326.749 388.265 326.282 388.383 325.583 389 325.21L389 340.183C387.743 342.387 385.695 344.05 383.255 344.849 379.27 346.402 375.096 347.445 370.839 347.95 363.626 348.995 356.318 349.261 349.046 348.743 342.366 348.53 335.764 347.278 329.484 345.035 327.58 344.398 325.845 343.356 324.404 341.979 323.62 341.169 323.193 340.088 323.215 338.971 323.215 334.609 323.215 330.248 323.215 325.886 322.976 325.708 322.929 325.37 323.112 325.134 323.152 325.081 323.205 325.035 323.263 325Z" fill="#3F5B6C" fill-rule="evenodd" fill-opacity="0.741176"/><path d="M388.953 278.447C387.176 280.889 384.603 282.653 381.665 283.443 377.621 284.816 373.432 285.729 369.179 286.164 366.187 286.538 363.196 286.702 360.181 286.867 358.068 286.867 355.956 287.055 353.867 286.984 346.156 286.947 338.491 285.827 331.101 283.654 329.214 283.069 327.422 282.216 325.784 281.121 324.446 280.399 323.518 279.111 323.267 277.626 322.792 277.227 323.053 276.782 323.267 276.383 323.865 275.032 324.912 273.923 326.234 273.24 329.359 271.484 332.762 270.263 336.3 269.628 339.329 268.973 342.398 268.503 345.487 268.221 345.827 268.133 346.19 268.193 346.483 268.386 350.834 268.03 355.201 267.92 359.564 268.057 366.853 268.13 374.096 269.227 381.071 271.317 382.783 271.864 384.424 272.603 385.962 273.521 387.349 274.287 388.424 275.506 389 276.97Z" fill="#3F5B6C" fill-rule="evenodd" fill-opacity="0.741176"/><text fill="#4F4531" fill-opacity="1" font-family="Century Gothic,Century Gothic_MSFontService,sans-serif" font-style="normal" font-variant="normal" font-weight="700" font-stretch="normal" font-size="23" text-anchor="start" direction="ltr" writing-mode="lr-tb" unicode-bidi="normal" text-decoration="none" transform="matrix(1 0 0 1 439.488 373)">Data<tspan fill="#4F4531" fill-opacity="1" font-family="Century Gothic,Century Gothic_MSFontService,sans-serif" font-style="normal" font-variant="normal" font-weight="700" font-stretch="normal" font-size="23" text-anchor="start" direction="ltr" writing-mode="lr-tb" unicode-bidi="normal" text-decoration="none" x="57.8287" y="0">Volume</tspan></text><path d="M542 310.096 542 325.995C541.256 327.776 539.814 329.183 538.003 329.898 534.318 331.715 530.358 332.928 526.279 333.492 521.768 334.207 517.218 334.66 512.653 334.848 509.021 335.051 505.38 335.051 501.748 334.848 495.602 334.634 489.514 333.61 483.643 331.802 481.374 331.155 479.239 330.114 477.335 328.732 476.287 327.976 475.497 326.921 475.073 325.709 474.976 324.195 474.976 322.677 475.073 321.163 475.073 317.856 475.073 314.547 475.073 311.215 475.035 310.829 475.11 310.441 475.289 310.096 475.698 309.859 475.795 310.096 475.891 310.43 476.67 311.958 477.964 313.17 479.55 313.857 483.385 315.744 487.51 316.99 491.756 317.545 496.899 318.374 502.098 318.811 507.309 318.855 515.796 319.107 524.277 318.153 532.491 316.023 534.842 315.405 537.083 314.434 539.136 313.142 540.147 312.587 540.981 311.763 541.543 310.762 541.616 310.359 541.616 310.073 542 310.096Z" fill="#3F5B6C" fill-rule="evenodd" fill-opacity="0.741176"/><path d="M542 308.988C540.693 311.463 538.412 313.284 535.706 314.018 531.977 315.472 528.078 316.447 524.102 316.916 519.44 317.597 514.735 317.957 510.023 317.994 505.561 318.042 501.101 317.826 496.665 317.348 492.476 316.933 488.333 316.131 484.292 314.952 481.685 314.251 479.238 313.056 477.084 311.431 476.255 310.755 475.665 309.832 475.402 308.796 475.091 308.5 474.947 308.07 475.018 307.646 475.018 303.24 475.018 298.857 475.018 294.449 474.968 293.991 475.042 293.528 475.234 293.108 475.619 292.844 475.739 293.108 475.811 293.42 476.756 295.321 478.399 296.788 480.4 297.516 484.091 299.132 487.988 300.237 491.98 300.796 498.583 301.885 505.279 302.319 511.969 302.09 519.135 302.007 526.255 300.951 533.135 298.952 535.062 298.429 536.9 297.621 538.589 296.557 539.724 295.865 540.659 294.892 541.304 293.731 541.424 293.491 541.52 293.204 541.88 293.228Z" fill="#3F5B6C" fill-rule="evenodd" fill-opacity="0.741176"/><path d="M542 293.94C540.655 296.526 538.259 298.429 535.408 299.177 531.681 300.544 527.806 301.481 523.861 301.973 520.781 302.423 517.677 302.636 514.574 302.849 511.161 303.051 507.738 303.051 504.325 302.849 500.431 302.706 496.551 302.326 492.705 301.712 489.091 301.169 485.538 300.288 482.094 299.081 480.781 298.65 479.535 298.045 478.389 297.28 476.946 296.487 475.875 295.169 475.406 293.608 475.094 293.305 474.951 292.873 475.021 292.447 475.021 288.181 475.021 283.893 475.021 279.628 474.959 279.105 475.034 278.575 475.238 278.088 475.743 277.804 475.767 278.278 475.815 278.514 476.258 279.696 477.11 280.686 478.221 281.31 480.43 282.741 482.871 283.791 485.438 284.414 490.163 285.658 494.996 286.451 499.873 286.785 503.394 287.088 506.927 287.214 510.46 287.163 518.276 287.157 526.053 286.056 533.555 283.893 536.666 283.147 539.449 281.437 541.495 279.012 541.591 278.86 541.775 278.785 541.952 278.823Z" fill="#3F5B6C" fill-rule="evenodd" fill-opacity="0.741176"/><path d="M476.284 325C477.79 327.454 480.209 329.234 483.027 329.968 486.738 331.309 490.593 332.225 494.518 332.696 498.15 333.187 501.831 333.35 505.486 333.606 508.992 333.769 512.504 333.723 516.003 333.466 521.95 333.277 527.842 332.304 533.524 330.575 536.22 329.882 538.71 328.571 540.79 326.749 541.288 326.282 541.406 325.583 542 325.21L542 340.183C540.754 342.396 538.701 344.063 536.255 344.849 532.278 346.404 528.112 347.446 523.862 347.95 516.649 348.995 509.34 349.261 502.067 348.743 495.388 348.53 488.786 347.278 482.505 345.035 480.599 344.405 478.863 343.361 477.424 341.979 476.641 341.169 476.214 340.088 476.237 338.971 476.237 334.609 476.237 330.248 476.237 325.886 475.995 325.731 475.927 325.413 476.086 325.177 476.135 325.102 476.204 325.041 476.284 325Z" fill="#3F5B6C" fill-rule="evenodd" fill-opacity="0.741176"/><path d="M541.977 278.447C540.209 280.899 537.63 282.665 534.684 283.443 530.646 284.815 526.462 285.728 522.214 286.163 519.221 286.538 516.204 286.702 513.211 286.867 511.097 286.867 508.983 287.055 506.869 286.984 499.154 286.944 491.484 285.823 484.089 283.654 482.208 283.068 480.423 282.216 478.791 281.12 477.454 280.394 476.519 279.11 476.25 277.626 475.798 277.227 476.06 276.782 476.25 276.383 476.833 275.03 477.873 273.918 479.195 273.24 482.33 271.484 485.744 270.263 489.29 269.628 492.322 268.972 495.393 268.502 498.484 268.222 498.824 268.133 499.187 268.193 499.48 268.386 503.834 268.029 508.204 267.92 512.569 268.057 519.863 268.13 527.111 269.228 534.091 271.318 535.796 271.859 537.431 272.599 538.96 273.522 540.355 274.279 541.432 275.501 542 276.97Z" fill="#3F5B6C" fill-rule="evenodd" fill-opacity="0.741176"/><text fill="#4F4531" fill-opacity="1" font-family="Century Gothic,Century Gothic_MSFontService,sans-serif" font-style="normal" font-variant="normal" font-weight="700" font-stretch="normal" font-size="23" text-anchor="start" direction="ltr" writing-mode="lr-tb" unicode-bidi="normal" text-decoration="none" transform="matrix(1 0 0 1 441.276 504)">Data<tspan fill="#4F4531" fill-opacity="1" font-family="Century Gothic,Century Gothic_MSFontService,sans-serif" font-style="normal" font-variant="normal" font-weight="700" font-stretch="normal" font-size="23" text-anchor="start" direction="ltr" writing-mode="lr-tb" unicode-bidi="normal" text-decoration="none" x="57.8287" y="0">Volume</tspan></text><path d="M544 440.238 544 456.087C543.245 457.857 541.795 459.252 539.98 459.953 536.303 461.767 532.352 462.976 528.28 463.536 523.766 464.243 519.218 464.702 514.653 464.912 511.018 465.066 507.377 465.019 503.747 464.77 497.602 464.555 491.514 463.534 485.643 461.733 483.368 461.082 481.226 460.047 479.311 458.673 478.27 457.917 477.49 456.865 477.073 455.659 476.976 454.15 476.976 452.637 477.073 451.128 477.073 447.83 477.073 444.533 477.073 441.211 477.022 440.826 477.098 440.436 477.289 440.096 477.674 439.859 477.771 440.096 477.867 440.428 478.659 441.942 479.949 443.147 481.526 443.844 485.369 445.726 489.502 446.969 493.756 447.521 498.899 448.355 504.097 448.799 509.309 448.85 517.771 449.071 526.224 448.12 534.419 446.027 536.765 445.387 539.005 444.412 541.063 443.133 542.071 442.574 542.904 441.754 543.471 440.761 543.519 440.499 543.616 440.191 544 440.238Z" fill="#3F5B6C" fill-rule="evenodd" fill-opacity="0.741176"/><path d="M544 440.05C542.687 442.504 540.412 444.309 537.715 445.038 533.992 446.487 530.098 447.458 526.128 447.925 521.467 448.629 516.76 448.987 512.045 448.999 507.565 449.018 503.087 448.771 498.636 448.26 494.45 447.859 490.312 447.059 486.28 445.873 483.675 445.18 481.23 443.988 479.083 442.364 478.261 441.696 477.672 440.785 477.403 439.763 477.095 439.457 476.954 439.022 477.02 438.594 477.02 434.203 477.02 429.835 477.02 425.444 476.961 424.986 477.035 424.523 477.236 424.107 477.62 423.845 477.716 424.107 477.811 424.417 478.741 426.324 480.386 427.79 482.394 428.499 486.078 430.117 489.969 431.226 493.957 431.792 500.553 432.857 507.238 433.282 513.917 433.057 521.071 432.98 528.181 431.937 535.052 429.955 536.973 429.421 538.806 428.618 540.498 427.568 541.629 426.893 542.556 425.929 543.185 424.776 543.185 424.536 543.401 424.227 543.785 424.251Z" fill="#3F5B6C" fill-rule="evenodd" fill-opacity="0.741176"/><path d="M544 424.917C542.663 427.508 540.264 429.414 537.409 430.153 533.682 431.521 529.807 432.458 525.862 432.95 522.782 433.4 519.679 433.613 516.552 433.85 513.146 434.051 509.732 434.051 506.327 433.85 502.434 433.707 498.553 433.327 494.708 432.712 491.097 432.169 487.545 431.296 484.098 430.105 482.783 429.651 481.532 429.039 480.369 428.281 478.932 427.487 477.87 426.168 477.411 424.609 477.099 424.316 476.954 423.89 477.026 423.471 477.026 419.182 477.026 414.893 477.026 410.628 476.958 410.107 477.024 409.577 477.218 409.088 477.723 408.804 477.747 409.278 477.819 409.514 478.253 410.702 479.108 411.694 480.226 412.31 482.435 413.741 484.875 414.792 487.442 415.415 492.163 416.67 496.998 417.465 501.877 417.784 505.397 418.088 508.929 418.215 512.462 418.163 520.278 418.155 528.054 417.055 535.556 414.893 538.666 414.147 541.449 412.437 543.495 410.012 543.593 409.86 543.774 409.785 543.952 409.823Z" fill="#3F5B6C" fill-rule="evenodd" fill-opacity="0.741176"/><path d="M477.293 456C478.82 458.543 481.264 460.39 484.113 461.154 487.885 462.56 491.808 463.515 495.801 463.998 499.488 464.533 503.224 464.679 506.935 464.946 510.494 465.129 514.06 465.08 517.611 464.8 523.647 464.6 529.628 463.586 535.397 461.786 538.137 461.075 540.668 459.707 542.771 457.799 543.254 457.313 543.398 456.583 544 456.219L544 471.802C542.745 474.116 540.658 475.856 538.169 476.664 534.135 478.297 529.905 479.384 525.588 479.897 518.258 480.983 510.832 481.268 503.441 480.749 496.662 480.501 489.961 479.189 483.583 476.859 481.657 476.196 479.904 475.108 478.449 473.674 477.654 472.829 477.221 471.702 477.244 470.538 477.244 465.992 477.244 461.446 477.244 456.899 477.005 456.753 476.929 456.439 477.073 456.198 477.126 456.112 477.202 456.043 477.293 456Z" fill="#3F5B6C" fill-rule="evenodd" fill-opacity="0.741176"/><path d="M543.952 409.447C542.159 411.9 539.543 413.667 536.554 414.443 532.459 415.828 528.213 416.741 523.9 417.163 520.863 417.561 517.802 417.726 514.742 417.867 512.597 417.867 510.476 418.055 508.331 417.984 500.503 417.947 492.72 416.826 485.217 414.654 483.314 414.067 481.504 413.222 479.842 412.144 478.484 411.407 477.537 410.116 477.264 408.626 476.782 408.227 477.071 407.782 477.264 407.383 477.871 406.032 478.933 404.924 480.276 404.24 483.462 402.493 486.923 401.273 490.52 400.628 493.587 399.972 496.694 399.502 499.823 399.222 500.177 399.146 500.548 399.204 500.859 399.386 505.276 399.029 509.709 398.92 514.139 399.057 521.532 399.13 528.876 400.228 535.951 402.318 537.689 402.859 539.356 403.599 540.916 404.522 542.337 405.283 543.43 406.514 544 407.994Z" fill="#3F5B6C" fill-rule="evenodd" fill-opacity="0.741176"/><path d="M389 693.236 389 709.083C388.228 710.855 386.761 712.255 384.924 712.974 381.184 714.78 377.168 715.983 373.032 716.538 368.463 717.257 363.857 717.719 359.234 717.921 355.543 718.062 351.847 718.015 348.161 717.78 341.925 717.562 335.745 716.545 329.781 714.756 327.478 714.095 325.308 713.056 323.364 711.685 322.3 710.929 321.499 709.873 321.073 708.661 320.976 707.154 320.976 705.643 321.073 704.137 321.072 700.831 321.072 697.525 321.072 694.22 321.031 693.833 321.107 693.441 321.289 693.094 321.699 692.861 321.796 693.095 321.893 693.423 322.696 694.941 324.006 696.147 325.608 696.846 329.661 698.794 334.024 700.062 338.513 700.597 343.14 701.33 347.816 701.738 352.503 701.816 361.629 702.169 370.759 701.206 379.593 698.956 381.486 698.404 383.313 697.658 385.044 696.728 386.46 696.088 387.638 695.041 388.421 693.728 388.494 693.493 388.614 693.189 389 693.236Z" fill="#86A2B4" fill-rule="evenodd" fill-opacity="0.768627"/><path d="M389 693.995C387.901 696.177 385.954 697.832 383.598 698.59 380.425 699.936 377.096 700.898 373.687 701.455 368.009 702.439 362.257 702.953 356.491 702.994 351.957 703.041 347.423 702.828 342.915 702.354 338.663 701.933 334.457 701.141 330.349 699.987 327.736 699.262 325.282 698.065 323.115 696.458 322.279 695.779 321.68 694.86 321.402 693.83 321.091 693.516 320.949 693.078 321.017 692.646 321.017 688.242 321.017 683.861 321.017 679.457 320.966 678.996 321.041 678.53 321.233 678.107 321.643 677.846 321.74 678.107 321.837 678.415 322.758 680.298 324.393 681.752 326.395 682.463 328.823 683.608 331.382 684.465 334.015 685.021 342.083 686.687 350.328 687.378 358.565 687.081 365.848 687.016 373.087 685.962 380.078 683.956 382.031 683.427 383.898 682.63 385.623 681.588 386.767 680.89 387.712 679.92 388.374 678.77 388.374 678.534 388.59 678.225 388.976 678.249Z" fill="#86A2B4" fill-rule="evenodd" fill-opacity="0.768627"/><path d="M389 677.484C387.632 680.182 385.195 682.167 382.297 682.945 378.513 684.362 374.581 685.336 370.577 685.846 367.467 686.31 364.306 686.529 361.149 686.773 358.18 687 355.2 687.058 352.226 686.943 347.783 686.821 343.353 686.406 338.963 685.7 335.3 685.133 331.699 684.219 328.207 682.97 326.874 682.503 325.603 681.872 324.421 681.092 322.966 680.257 321.886 678.886 321.407 677.264 321.097 676.952 320.954 676.508 321.021 676.07 321.021 671.608 321.021 667.147 321.021 662.685 320.959 662.147 321.034 661.602 321.238 661.101 321.745 660.784 321.768 661.296 321.841 661.54 322.206 662.655 322.938 663.61 323.915 664.245 325.749 665.586 327.796 666.6 329.967 667.244 335.281 668.813 340.746 669.794 346.269 670.171 349.837 670.495 353.419 670.625 357 670.56 364.933 670.56 372.825 669.418 380.44 667.172 383.715 666.39 386.626 664.497 388.687 661.807L388.976 661.807Z" fill="#86A2B4" fill-rule="evenodd" fill-opacity="0.768627"/><path d="M322.212 710C323.753 712.443 326.2 714.222 329.05 714.97 332.824 716.328 336.751 717.245 340.749 717.698 344.443 718.207 348.16 718.368 351.901 718.623 355.458 718.785 359.024 718.739 362.576 718.484 368.613 718.276 374.597 717.305 380.375 715.595 383.12 714.9 385.653 713.576 387.761 711.734 388.263 711.272 388.381 710.555 389 710.208L389 725.257C387.688 727.473 385.559 729.124 383.044 729.881 380.887 730.777 378.644 731.466 376.348 731.939 367.163 733.795 357.756 734.402 348.398 733.742 341.615 733.512 334.909 732.257 328.526 730.02 326.562 729.373 324.776 728.297 323.308 726.876 322.563 726.069 322.155 725.023 322.164 723.94 322.164 719.548 322.164 715.178 322.164 710.809 321.949 710.486 321.926 710.231 322.212 710Z" fill="#86A2B4" fill-rule="evenodd" fill-opacity="0.768627"/><path d="M388.667 662.352C386.843 664.7 384.345 666.404 381.525 667.223 377.601 668.622 373.536 669.569 369.407 670.048 366.716 670.414 364.003 670.633 361.288 670.755 358.574 670.876 355.98 671.071 353.337 670.974 345.508 670.919 337.727 669.739 330.22 667.467 328.311 666.852 326.498 665.957 324.839 664.812 323.471 664.048 322.524 662.683 322.268 661.111 321.791 660.721 322.054 660.234 322.268 659.82 322.868 658.397 323.927 657.228 325.267 656.508 328.453 654.676 331.911 653.392 335.505 652.709 338.576 652.028 341.684 651.54 344.814 651.247 345.163 651.141 345.54 651.204 345.838 651.418 350.255 651.041 354.69 650.919 359.122 651.053 366.523 651.141 373.874 652.305 380.954 654.511 382.691 655.071 384.354 655.848 385.906 656.824 387.33 657.614 388.429 658.902 389 660.453Z" fill="#86A2B4" fill-rule="evenodd" fill-opacity="0.768627"/><text fill="#4F4531" fill-opacity="1" font-family="Century Gothic,Century Gothic_MSFontService,sans-serif" font-style="normal" font-variant="normal" font-weight="700" font-stretch="normal" font-size="23" text-anchor="start" direction="ltr" writing-mode="lr-tb" unicode-bidi="normal" text-decoration="none" transform="matrix(1 0 0 1 283.719 756)">Temp<tspan fill="#4F4531" fill-opacity="1" font-family="Century Gothic,Century Gothic_MSFontService,sans-serif" font-style="normal" font-variant="normal" font-weight="700" font-stretch="normal" font-size="23" text-anchor="start" direction="ltr" writing-mode="lr-tb" unicode-bidi="normal" text-decoration="none" x="65.3912" y="0">Volume</tspan></text><path d="M389 441.244 389 457.721C388.234 459.568 386.765 461.026 384.922 461.767 381.182 463.649 377.165 464.909 373.026 465.496 368.455 466.223 363.847 466.696 359.223 466.909 355.532 467.068 351.833 467.02 348.148 466.763 341.906 466.548 335.722 465.491 329.76 463.619 327.457 462.949 325.29 461.868 323.365 460.426 322.306 459.644 321.508 458.557 321.072 457.307 320.976 455.74 320.976 454.168 321.072 452.603 321.072 449.141 321.072 445.705 321.072 442.268 321.037 441.865 321.112 441.461 321.29 441.098 321.7 440.855 321.797 441.098 321.893 441.44 322.682 443.028 323.997 444.287 325.609 444.998 329.667 447.02 334.03 448.346 338.519 448.922 343.15 449.672 347.826 450.096 352.515 450.189 361.645 450.549 370.777 449.54 379.613 447.191 381.516 446.639 383.347 445.862 385.067 444.876 386.487 444.217 387.668 443.126 388.446 441.756 388.494 441.488 388.615 441.244 389 441.244Z" fill="#86A2B4" fill-rule="evenodd" fill-opacity="0.768627"/><path d="M389 440.995C387.91 443.184 385.96 444.841 383.599 445.59 380.43 446.954 377.1 447.924 373.687 448.478 368.009 449.455 362.257 449.961 356.493 449.994 351.958 450.04 347.424 449.827 342.915 449.355 338.662 448.945 334.457 448.152 330.351 446.986 327.73 446.282 325.273 445.083 323.116 443.459 322.276 442.783 321.675 441.862 321.405 440.83 321.091 440.519 320.947 440.078 321.018 439.645 321.019 435.266 321.019 430.861 321.019 426.456 320.97 425.995 321.045 425.53 321.236 425.106 321.646 424.845 321.742 425.106 321.839 425.438 322.773 427.311 324.405 428.761 326.396 429.487 328.829 430.62 331.386 431.478 334.017 432.044 342.086 433.697 350.329 434.389 358.567 434.105 365.847 434.015 373.082 432.964 380.078 430.979 382.034 430.46 383.904 429.662 385.625 428.611 386.777 427.925 387.726 426.953 388.374 425.794 388.374 425.556 388.591 425.248 388.976 425.295Z" fill="#86A2B4" fill-rule="evenodd" fill-opacity="0.768627"/><path d="M389 425.859C387.63 428.447 385.193 430.346 382.297 431.085 378.51 432.445 374.579 433.388 370.577 433.898 367.466 434.344 364.307 434.554 361.149 434.765 358.18 434.992 355.201 435.055 352.226 434.952 347.783 434.823 343.353 434.424 338.962 433.757 335.303 433.202 331.702 432.323 328.207 431.132 326.877 430.675 325.608 430.069 324.42 429.328 322.975 428.514 321.899 427.201 321.406 425.649 321.093 425.34 320.949 424.905 321.02 424.477 321.02 420.188 321.02 415.923 321.02 411.634 320.96 411.109 321.034 410.577 321.238 410.088 321.744 409.806 321.768 410.275 321.84 410.509 322.201 411.584 322.933 412.504 323.914 413.111 325.742 414.409 327.791 415.385 329.967 415.993 335.275 417.523 340.743 418.466 346.269 418.806 349.836 419.126 353.419 419.259 357 419.204 364.933 419.183 372.824 418.079 380.44 415.923 383.719 415.181 386.633 413.359 388.688 410.767L388.977 410.767Z" fill="#86A2B4" fill-rule="evenodd" fill-opacity="0.768627"/><path d="M322.156 457C323.682 459.457 326.134 461.24 328.99 461.972 332.796 463.334 336.752 464.258 340.779 464.723 344.469 465.232 348.185 465.371 351.923 465.625 355.479 465.811 359.043 465.764 362.592 465.486 368.627 465.29 374.608 464.318 380.381 462.596 383.118 461.9 385.648 460.585 387.762 458.757 388.263 458.272 388.381 457.578 389 457.208L389 472.239C387.69 474.456 385.563 476.109 383.047 476.863 380.896 477.778 378.654 478.475 376.356 478.944 367.174 480.789 357.775 481.397 348.422 480.748 341.645 480.507 334.946 479.252 328.562 477.025 326.602 476.361 324.82 475.278 323.347 473.857 322.594 473.056 322.186 472.005 322.204 470.921 322.204 466.55 322.204 462.157 322.204 457.786 321.969 457.602 321.931 457.267 322.121 457.038 322.132 457.025 322.144 457.012 322.156 457Z" fill="#86A2B4" fill-rule="evenodd" fill-opacity="0.768627"/><path d="M388.691 410.367C386.871 412.72 384.371 414.426 381.549 415.24 377.619 416.644 373.546 417.584 369.407 418.043 366.716 418.409 364.003 418.628 361.288 418.773 358.574 418.92 355.98 419.066 353.337 418.969 345.507 418.938 337.721 417.757 330.22 415.459 328.314 414.843 326.504 413.957 324.839 412.828 323.481 412.052 322.537 410.691 322.268 409.124 321.791 408.71 322.054 408.247 322.268 407.832 322.862 406.404 323.922 405.232 325.267 404.518 328.445 402.666 331.906 401.381 335.505 400.716 338.575 400.028 341.684 399.53 344.814 399.23 345.164 399.148 345.531 399.21 345.838 399.401 350.256 399.032 354.691 398.917 359.122 399.059 366.521 399.139 373.873 400.296 380.954 402.495 382.691 403.056 384.354 403.833 385.906 404.811 387.332 405.61 388.43 406.907 389 408.466Z" fill="#86A2B4" fill-rule="evenodd" fill-opacity="0.768627"/><text fill="#4F4531" fill-opacity="1" font-family="Century Gothic,Century Gothic_MSFontService,sans-serif" font-style="normal" font-variant="normal" font-weight="700" font-stretch="normal" font-size="23" text-anchor="start" direction="ltr" writing-mode="lr-tb" unicode-bidi="normal" text-decoration="none" transform="matrix(1 0 0 1 283.719 504)">Temp<tspan fill="#4F4531" fill-opacity="1" font-family="Century Gothic,Century Gothic_MSFontService,sans-serif" font-style="normal" font-variant="normal" font-weight="700" font-stretch="normal" font-size="23" text-anchor="start" direction="ltr" writing-mode="lr-tb" unicode-bidi="normal" text-decoration="none" x="65.3912" y="0">Volume</tspan></text><path d="M441 1127C440.336 1126.98 439.671 1126.98 439.007 1127 438.968 1126.68 439.088 1126.36 439.359 1126.07 439.985 1125.9 440.18 1126.07 440.297 1126.33 440.486 1126.57 440.721 1126.79 441 1127Z" fill="#445B47" fill-rule="evenodd" fill-opacity="0.741176"/><text fill="#4F4531" fill-opacity="1" font-family="Century Gothic,Century Gothic_MSFontService,sans-serif" font-style="normal" font-variant="normal" font-weight="700" font-stretch="normal" font-size="23" text-anchor="start" direction="ltr" writing-mode="lr-tb" unicode-bidi="normal" text-decoration="none" transform="matrix(1 0 0 1 269.344 1050)">Backup<tspan fill="#4F4531" fill-opacity="1" font-family="Century Gothic,Century Gothic_MSFontService,sans-serif" font-style="normal" font-variant="normal" font-weight="700" font-stretch="normal" font-size="23" text-anchor="start" direction="ltr" writing-mode="lr-tb" unicode-bidi="normal" text-decoration="none" x="88.9675" y="0">Volume</tspan></text><path d="M392 980.251 392 997.36C391.248 999.28 389.809 1000.79 388.005 1001.57 384.316 1003.51 380.357 1004.81 376.28 1005.41 371.769 1006.19 367.219 1006.69 362.654 1006.91 359.015 1007.07 355.371 1007.02 351.738 1006.75 345.597 1006.53 339.509 1005.43 333.64 1003.49 331.369 1002.78 329.229 1001.66 327.315 1000.17 326.278 999.36 325.498 998.23 325.08 996.93 324.973 995.3 324.973 993.66 325.08 992.02 325.08 988.45 325.08 984.891 325.08 981.321 325.031 980.901 325.106 980.471 325.294 980.101 325.674 979.851 325.793 980.101 325.888 980.461 326.674 982.101 327.967 983.401 329.551 984.151 333.628 986.301 338.019 987.681 342.535 988.25 356.077 990.49 369.903 989.831 383.2 986.301 384.776 985.781 386.297 985.101 387.743 984.251 389.299 983.541 390.606 982.331 391.476 980.791 391.524 980.531 391.644 980.201 392 980.251Z" fill="#899C6C" fill-rule="evenodd" fill-opacity="0.768627"/><path d="M392 965.475C390.662 968.181 388.255 970.169 385.388 970.932 381.664 972.351 377.794 973.321 373.854 973.831 370.69 974.321 367.48 974.541 364.34 974.781 361.579 975.001 358.808 975.051 356.04 974.951 351.579 974.831 347.13 974.411 342.722 973.711 339.108 973.141 335.556 972.221 332.114 970.957 330.798 970.495 329.542 969.865 328.38 969.081 326.938 968.254 325.871 966.88 325.407 965.255 325.099 964.944 324.957 964.499 325.027 964.061 325.027 959.603 325.027 955.143 325.027 950.709 324.957 950.165 325.023 949.612 325.217 949.1 325.741 948.784 325.764 949.296 325.811 949.539 326.379 951.039 327.484 952.26 328.903 952.95 330.227 953.852 331.669 954.557 333.184 955.045 338.6 956.73 344.186 957.777 349.832 958.165 353.351 958.485 356.883 958.623 360.417 958.578 368.239 958.553 376.021 957.406 383.534 955.167 386.939 954.372 389.932 952.305 391.929 949.369Z" fill="#899C6C" fill-rule="evenodd" fill-opacity="0.768627"/><path d="M325.232 997C326.756 999.567 329.21 1001.42 332.071 1002.18 335.837 1003.6 339.756 1004.55 343.747 1005.03 347.44 1005.56 351.181 1005.72 354.898 1005.99 358.456 1006.17 362.022 1006.12 365.574 1005.85 371.62 1005.63 377.614 1004.62 383.398 1002.84 386.136 1002.11 388.666 1000.73 390.785 998.836 391.262 998.327 391.405 997.577 392 997.221L392 1012.85C390.617 1015.29 388.352 1017.08 385.685 1017.84 383.775 1018.68 381.788 1019.33 379.753 1019.78 370.445 1021.77 360.908 1022.43 351.419 1021.73 344.634 1021.5 337.927 1020.19 331.546 1017.84 328.93 1017.05 326.678 1015.34 325.184 1013.03 325.184 1007.97 325.184 1002.9 325.184 997.846 324.964 997.654 324.937 997.317 325.125 997.096 325.156 997.058 325.192 997.029 325.232 997Z" fill="#899C6C" fill-rule="evenodd" fill-opacity="0.768627"/><path d="M385.159 955.255C381.132 956.669 376.96 957.615 372.722 958.075 370.125 958.415 367.503 958.633 364.881 958.755 362.259 958.877 359.396 959.07 356.654 958.974 348.744 958.931 340.88 957.753 333.297 955.474 331.369 954.86 329.537 953.967 327.862 952.825 326.488 952.065 325.531 950.714 325.263 949.155 324.782 948.742 325.071 948.281 325.263 947.868 325.881 946.413 326.977 945.22 328.366 944.49 331.585 942.661 335.079 941.38 338.71 940.698 341.812 940.017 344.953 939.53 348.115 939.24 348.468 939.161 348.839 939.222 349.15 939.411 353.613 939.046 358.095 938.924 362.572 939.046 370.048 939.146 377.473 940.308 384.629 942.497 386.381 943.065 388.06 943.84 389.633 944.806 391.405 945.768 392.646 947.495 393 949.496 391.224 952.37 388.412 954.435 385.159 955.256Z" fill="#899C6C" fill-rule="evenodd" fill-opacity="0.768627"/><path d="M392 980.856C390.647 983.443 388.245 985.347 385.389 986.087 381.663 987.443 377.794 988.385 373.856 988.895 370.669 989.347 367.482 989.559 364.342 989.789 361.581 990.001 358.811 990.049 356.043 989.953 351.575 989.837 347.119 989.433 342.702 988.76 339.093 988.203 335.543 987.328 332.095 986.135 330.797 985.664 329.553 985.058 328.386 984.327 326.953 983.52 325.89 982.202 325.413 980.654 325.093 980.347 324.95 979.904 325.033 979.481 325.033 975.193 325.033 970.904 325.033 966.633 324.953 966.111 325.019 965.577 325.223 965.087 325.722 964.805 325.746 965.275 325.817 965.51 326.382 966.946 327.479 968.118 328.885 968.79 330.22 969.653 331.668 970.332 333.189 970.808 338.605 972.423 344.19 973.433 349.837 973.808 353.347 974.115 356.871 974.25 360.395 974.202 368.218 974.183 376 973.077 383.511 970.923 386.923 970.159 389.923 968.171 391.928 965.345Z" fill="#899C6C" fill-rule="evenodd" fill-opacity="0.768627"/><path d="M355 517 355 614" stroke="#454D6F" stroke-width="9.51493" stroke-linecap="butt" stroke-linejoin="miter" stroke-miterlimit="8" stroke-opacity="1" fill="none" fill-rule="evenodd"/><path d="M343 611 355.5 633 368 611 343 611Z" fill="#454D6F" fill-rule="evenodd" fill-opacity="1"/><path d="M686 442 686 623" stroke="#454D6F" stroke-width="9.51493" stroke-linecap="butt" stroke-linejoin="miter" stroke-miterlimit="8" stroke-opacity="1" fill="none" fill-rule="evenodd"/><path d="M674 619 686.512 642 699 619 674 619Z" fill="#454D6F" fill-rule="evenodd" fill-opacity="1"/><path d="M122 350.905C111.451 350.956 100.963 352.522 90.8533 355.556 77.0764 359.725 72.3328 364.183 61.3353 366.617 53.1172 368.448 40.8259 369.291 24.3179 363.725L23 287 121.234 287C121.377 300.527 121.505 314.045 121.617 327.556 121.617 331.893 121.617 336.231 121.617 340.568 121.929 344.038 121.953 347.532 122 350.905Z" fill="#5AA7DC" fill-rule="evenodd" fill-opacity="0.839216"/><text fill="#4F4531" fill-opacity="1" font-family="Century Gothic,Century Gothic_MSFontService,sans-serif" font-style="normal" font-variant="normal" font-weight="700" font-stretch="normal" font-size="23" text-anchor="start" direction="ltr" writing-mode="lr-tb" unicode-bidi="normal" text-decoration="none" transform="matrix(1 0 0 1 33 338)">DWB</text><path d="M183 457.926C172.432 457.976 161.927 459.54 151.8 462.571 138 466.735 133.248 471.188 122.232 473.619 114 475.448 101.688 476.29 85.1518 470.73L83.9999 394 182.4 394 182.76 434.507 182.904 447.503C182.928 451.042 182.952 454.532 183 457.926Z" fill="#5AA7DC" fill-rule="evenodd" fill-opacity="0.839216"/><text fill="#4F4531" fill-opacity="1" font-family="Century Gothic,Century Gothic_MSFontService,sans-serif" font-style="normal" font-variant="normal" font-weight="700" font-stretch="normal" font-size="23" text-anchor="start" direction="ltr" writing-mode="lr-tb" unicode-bidi="normal" text-decoration="none" transform="matrix(1 0 0 1 93.8908 435)">TDE<tspan fill="#4F4531" fill-opacity="1" font-family="Century Gothic,Century Gothic_MSFontService,sans-serif" font-style="normal" font-variant="normal" font-weight="700" font-stretch="normal" font-size="23" text-anchor="start" direction="ltr" writing-mode="lr-tb" unicode-bidi="normal" text-decoration="none" x="0" y="27">Key</tspan></text><path d="M188 272.67 188 264 285 264 285 323 271.037 323" fill="#78B1DF" fill-rule="evenodd" fill-opacity="0.839216"/><path d="M261.478 337 271 337 271 324.973 271 324.115 271 273 188.871 273 173 273 173 283.977" fill="#70AEDE" fill-rule="evenodd" fill-opacity="0.839216"/><path d="M262 346.945C251.432 346.984 240.924 348.549 230.8 351.591 217 355.732 212.248 360.186 201.255 362.618 192.999 364.448 180.688 365.29 164.152 359.729L163 283 261.399 283C261.543 296.482 261.671 309.981 261.784 323.495 261.784 327.829 261.784 332.162 261.784 336.496 261.927 339.987 261.952 343.478 262 346.945Z" fill="#5AA7DC" fill-rule="evenodd" fill-opacity="0.839216"/><text fill="#4F4531" fill-opacity="1" font-family="Century Gothic,Century Gothic_MSFontService,sans-serif" font-style="normal" font-variant="normal" font-weight="700" font-stretch="normal" font-size="23" text-anchor="start" direction="ltr" writing-mode="lr-tb" unicode-bidi="normal" text-decoration="none" transform="matrix(1 0 0 1 172.581 338)">Control</text></g></svg>