<?xml version="1.0" encoding="UTF-8" standalone="no"?>
<svg
   xmlns:dc="http://purl.org/dc/elements/1.1/"
   xmlns:cc="http://creativecommons.org/ns#"
   xmlns:rdf="http://www.w3.org/1999/02/22-rdf-syntax-ns#"
   xmlns:svg="http://www.w3.org/2000/svg"
   xmlns="http://www.w3.org/2000/svg"
   xmlns:sodipodi="http://sodipodi.sourceforge.net/DTD/sodipodi-0.dtd"
   xmlns:inkscape="http://www.inkscape.org/namespaces/inkscape"
   id="Layer_1"
   data-name="Layer 1"
   viewBox="0 0 722.81871 562.22611"
   version="1.1"
   sodipodi:docname="cubrid_process_structure.svg"
   inkscape:version="1.0.1 (3bc2e813f5, 2020-09-07)"
   inkscape:export-filename="C:\Users\hgryoo\Desktop\cubrid_process_structure.png"
   inkscape:export-xdpi="96"
   inkscape:export-ydpi="96"
   width="722.81873"
   height="562.22614">
  <metadata
     id="metadata590">
    <rdf:RDF>
      <cc:Work
         rdf:about="">
        <dc:format>image/svg+xml</dc:format>
        <dc:type
           rdf:resource="http://purl.org/dc/dcmitype/StillImage" />
        <dc:title></dc:title>
      </cc:Work>
    </rdf:RDF>
  </metadata>
  <sodipodi:namedview
     pagecolor="#ffffff"
     bordercolor="#666666"
     borderopacity="1"
     objecttolerance="10"
     gridtolerance="10"
     guidetolerance="10"
     inkscape:pageopacity="0"
     inkscape:pageshadow="2"
     inkscape:window-width="2560"
     inkscape:window-height="1377"
     id="namedview588"
     showgrid="false"
     inkscape:zoom="1.8561878"
     inkscape:cx="526.26214"
     inkscape:cy="377.7368"
     inkscape:window-x="1912"
     inkscape:window-y="-8"
     inkscape:window-maximized="1"
     inkscape:current-layer="Layer_1"
     fit-margin-top="0"
     fit-margin-left="0"
     fit-margin-right="0"
     fit-margin-bottom="0"
     lock-margins="true"
     inkscape:pagecheckerboard="true"
     showborder="true" />
  <defs
     id="defs303">
    <style
       id="style301">.cls-1{fill:#ff4e58;opacity:0.27;}.cls-2{fill:#002887;}.cls-2,.cls-3,.cls-4{opacity:0.24;}.cls-10,.cls-11,.cls-12,.cls-19,.cls-3{fill:#0091f8;}.cls-4{fill:#ff6306;}.cls-5{fill:#fff;}.cls-16,.cls-6{font-size:12px;}.cls-13,.cls-16,.cls-21,.cls-6,.cls-7,.cls-9{fill:#50442d;}.cls-13,.cls-16,.cls-21,.cls-6,.cls-7,.cls-8,.cls-9{font-family:CenturyGothic-Bold, Century Gothic;font-weight:700;}.cls-7{font-size:11.6px;}.cls-8{font-size:16.24px;fill:#b66d6a;}.cls-9{font-size:11px;}.cls-10{opacity:0.31;}.cls-11{opacity:0.62;}.cls-12{opacity:0.84;}.cls-13{font-size:9.11px;}.cls-14{fill:#355b6d;opacity:0.74;}.cls-15{fill:#7da2b5;opacity:0.77;}.cls-16{opacity:0.97;}.cls-17{fill:none;}.cls-18{opacity:0.4;}.cls-20{opacity:0.39;}.cls-21{font-size:11.73px;}</style>
  </defs>
  <rect
     class="cls-17"
     width="841.89001"
     height="595.28003"
     id="rect563"
     x="4.116211e-07"
     y="2.8930664e-08" />
  <g
     id="g761"
     transform="translate(-60.205666,-19.561636)">
    <rect
       class="cls-1"
       x="60.205666"
       y="19.561636"
       width="441.28"
       height="181.05836"
       rx="42.610001"
       id="rect305"
       style="stroke-width:0.979543" />
    <rect
       class="cls-2"
       x="550.51562"
       y="20.746124"
       width="231.97"
       height="137.53758"
       rx="42.610001"
       id="rect307"
       style="stroke-width:0.98845" />
    <rect
       class="cls-2"
       x="551.05438"
       y="168.70377"
       width="231.97"
       height="92.427887"
       rx="42.610001"
       id="rect309"
       style="stroke-width:0.904284" />
    <rect
       class="cls-3"
       x="551.05438"
       y="278.55127"
       width="231.97"
       height="251.92177"
       rx="42.610001"
       id="rect311"
       style="stroke-width:0.977116" />
    <rect
       class="cls-4"
       x="60.205666"
       y="218.6436"
       width="441.28"
       height="139.1264"
       rx="42.610001"
       id="rect313"
       style="stroke-width:0.975742" />
    <rect
       class="cls-4"
       x="60.205666"
       y="362.84793"
       width="441.28"
       height="137.72208"
       rx="42.610001"
       id="rect315"
       style="stroke-width:1.01882" />
    <polygon
       class="cls-5"
       points="556.68,253.31 603.99,270.54 670.88,270.54 718.18,253.31 718.18,228.94 670.88,211.71 603.99,211.71 556.68,228.94 "
       id="polygon317"
       transform="matrix(1,0,0,0.79840138,27.475668,35.676842)" />
    <polygon
       class="cls-5"
       points="556.68,86.08 603.99,98.43 670.88,98.43 718.18,86.08 718.18,68.62 670.88,56.27 603.99,56.27 556.68,68.62 "
       id="polygon319"
       transform="translate(27.475667)" />
    <polygon
       class="cls-5"
       points="603.99,147.46 670.88,147.46 718.18,135.11 718.18,117.65 670.88,105.3 603.99,105.3 556.68,117.65 556.68,135.11 "
       id="polygon321"
       transform="translate(27.475667,2.1549543)" />
    <text
       class="cls-6"
       id="text323"
       x="602.58569"
       y="81.414955">CUBRID Manager GUI</text>
    <text
       class="cls-6"
       id="text325"
       x="636.74567"
       y="132.77245">CM Server</text>
    <rect
       class="cls-5"
       x="283.61569"
       y="250.59"
       width="84.209999"
       height="34.02"
       rx="17.01"
       id="rect327" />
    <rect
       class="cls-5"
       x="192.66566"
       y="250.59"
       width="84.209999"
       height="34.02"
       rx="17.01"
       id="rect329" />
    <rect
       class="cls-5"
       x="99.58567"
       y="250.59"
       width="84.209999"
       height="34.02"
       rx="17.01"
       id="rect331" />
    <rect
       class="cls-5"
       x="192.66566"
       y="290.26999"
       width="84.209999"
       height="59.91"
       rx="17.01"
       id="rect333" />
    <rect
       class="cls-5"
       x="99.58567"
       y="290.26999"
       width="84.209999"
       height="59.91"
       rx="17.01"
       id="rect335" />
    <rect
       class="cls-5"
       x="373.02567"
       y="250.59"
       width="84.209999"
       height="34.02"
       rx="17.01"
       id="rect337" />
    <rect
       class="cls-5"
       x="374.02567"
       y="290.26999"
       width="82.199997"
       height="135.65109"
       rx="17.01"
       id="rect339"
       style="stroke-width:0.973047" />
    <rect
       class="cls-5"
       x="284.61569"
       y="290.26999"
       width="82.199997"
       height="134.88921"
       rx="17.01"
       id="rect341"
       style="stroke-width:0.970311" />
    <rect
       class="cls-5"
       x="99.788506"
       y="370.56824"
       width="82.199997"
       height="54.360001"
       rx="17.01"
       id="rect343" />
    <rect
       class="cls-5"
       x="99.55851"
       y="430.89825"
       width="173.94875"
       height="37.029999"
       rx="17.062845"
       id="rect345"
       style="stroke-width:1.00155" />
    <rect
       class="cls-5"
       x="283.44568"
       y="430.31"
       width="171.89"
       height="35.740002"
       rx="17.01"
       id="rect347" />
    <rect
       class="cls-5"
       x="192.87849"
       y="370.41824"
       width="82.199997"
       height="54.360001"
       rx="17.01"
       id="rect349" />
    <rect
       class="cls-5"
       x="571.3244"
       y="320.30432"
       width="92.169998"
       height="62.240002"
       rx="17.01"
       id="rect351" />
    <rect
       class="cls-5"
       x="670.58441"
       y="320.30432"
       width="92.169998"
       height="62.240002"
       rx="17.01"
       id="rect353" />
    <rect
       class="cls-5"
       x="571.3244"
       y="388.59433"
       width="92.169998"
       height="62.240002"
       rx="17.01"
       id="rect355" />
    <rect
       class="cls-5"
       x="670.58441"
       y="388.59433"
       width="92.169998"
       height="62.240002"
       rx="17.01"
       id="rect357" />
    <rect
       class="cls-5"
       x="571.3244"
       y="456.89432"
       width="92.169998"
       height="62.240002"
       rx="17.01"
       id="rect359" />
    <rect
       class="cls-5"
       x="670.58441"
       y="456.89432"
       width="92.169998"
       height="62.240002"
       rx="17.01"
       id="rect361" />
    <text
       class="cls-7"
       id="text365"
       x="573.21442"
       y="347.96432">Create, Delete, <tspan
   x="575.18439"
   y="361.88431"
   id="tspan363">Copy, Rename</tspan></text>
    <text
       class="cls-6"
       id="text369"
       x="704.86438"
       y="347.83432">Add <tspan
   x="696.34442"
   y="362.23431"
   id="tspan367">Volume</tspan></text>
    <text
       class="cls-8"
       transform="scale(1.086278,0.92057465)"
       id="text371"
       x="543.36395"
       y="49.240986"
       style="font-size:16.24px;stroke-width:1.08628">CUBRID Manager</text>
    <text
       class="cls-8"
       transform="scale(1.086278,0.92057465)"
       id="text373"
       x="221.18936"
       y="45.047951"
       style="font-size:16.24px;stroke-width:1.08628">Interface</text>
    <text
       class="cls-8"
       transform="scale(1.086278,0.92057464)"
       id="text375"
       x="231.45609"
       y="261.43451"
       style="font-size:16.24px;stroke-width:1.08628">Broker</text>
    <text
       class="cls-8"
       transform="scale(1.086278,0.92057465)"
       id="text377"
       x="231.51451"
       y="531.07141"
       style="font-size:16.24px;stroke-width:1.08628">Server</text>
    <text
       class="cls-6"
       id="text379"
       x="104.24567"
       y="271.0787">Job Queuing</text>
    <text
       class="cls-6"
       id="text383"
       x="199.55441"
       y="264.41748">Connection <tspan
   x="213.83441"
   y="278.81747"
   id="tspan381">Pooling</tspan></text>
    <text
       class="cls-6"
       transform="scale(1.086278,0.92057464)"
       id="text385"
       x="268.45398"
       y="293.88165"
       style="stroke-width:1.08628">Monitoring</text>
    <text
       class="cls-6"
       id="text387"
       x="392.2644"
       y="271.0787">Logging</text>
    <text
       class="cls-9"
       id="text391"
       x="107.58567"
       y="318.11496">Query Parser<tspan
   x="110.88567"
   y="331.31494"
   id="tspan389">&amp; Optimizer</tspan></text>
    <text
       class="cls-9"
       id="text393"
       x="202.31567"
       y="325.23502">Lock Cache</text>
    <text
       class="cls-6"
       id="text397"
       x="305.07315"
       y="353.65396">Object <tspan
   x="300.15314"
   y="368.05396"
   id="tspan395">Manager</tspan></text>
    <text
       class="cls-6"
       id="text401"
       x="381.40314"
       y="354.0152">Transaction <tspan
   x="389.56314"
   y="368.41522"
   id="tspan399">Manager</tspan></text>
    <text
       class="cls-6"
       id="text405"
       x="121.86725"
       y="394.92953">Query <tspan
   x="114.78724"
   y="409.32953"
   id="tspan403">Manager</tspan></text>
    <text
       class="cls-6"
       id="text409"
       x="333.08566"
       y="453.48999">Log Manager</text>
    <text
       class="cls-6"
       id="text413"
       x="219.03725"
       y="395.09454">Lock <tspan
   x="207.87724"
   y="409.49457"
   id="tspan411">Manager</tspan></text>
    <text
       class="cls-6"
       id="text415"
       x="132.99849"
       y="455.92825">Storage Manager</text>
    <text
       class="cls-8"
       transform="scale(1.086278,0.92057465)"
       id="text417"
       x="562.11615"
       y="331.87338"
       style="font-size:16.24px;stroke-width:1.08628">Admin Utility</text>
    <text
       class="cls-8"
       transform="scale(1.086278,0.92057465)"
       id="text419"
       style="font-size:16.24px;stroke-width:1.08628"
       x="546.85071"
       y="209.66547">CUBRID Java SP</text>
    <path
       class="cls-5"
       d="m 181.72567,72.23 v 20.24 h -80.08 V 72.23 a 18.39,18.39 0 0 1 18.34,-18.33 h 43.41 a 18.39,18.39 0 0 1 18.33,18.33 z"
       id="path421" />
    <path
       class="cls-5"
       d="m 181.72567,121.06 v 20.24 h -80.08 v -20.24 a 18.39,18.39 0 0 1 18.34,-18.33 h 43.41 a 18.39,18.39 0 0 1 18.33,18.33 z"
       id="path423" />
    <path
       class="cls-5"
       d="m 181.72567,169.7 v 20.24 h -80.08 V 169.7 a 18.38,18.38 0 0 1 18.34,-18.32 h 43.41 a 18.38,18.38 0 0 1 18.33,18.32 z"
       id="path425" />
    <path
       class="cls-5"
       d="m 274.81567,72.23 v 20.24 h -80.08 V 72.23 a 18.38,18.38 0 0 1 18.33,-18.33 h 43.41 a 18.39,18.39 0 0 1 18.34,18.33 z"
       id="path427" />
    <path
       class="cls-5"
       d="m 274.81567,121.06 v 20.24 h -80.08 v -20.24 a 18.38,18.38 0 0 1 18.33,-18.33 h 43.41 a 18.39,18.39 0 0 1 18.34,18.33 z"
       id="path429" />
    <path
       class="cls-5"
       d="m 274.81567,169.7 v 20.24 h -80.08 V 169.7 a 18.37,18.37 0 0 1 18.33,-18.32 h 43.41 a 18.39,18.39 0 0 1 18.34,18.32 z"
       id="path431" />
    <path
       class="cls-5"
       d="m 365.75567,72.23 v 20.24 h -80.08 V 72.23 a 18.39,18.39 0 0 1 18.34,-18.33 h 43.4 a 18.39,18.39 0 0 1 18.34,18.33 z"
       id="path433" />
    <path
       class="cls-5"
       d="m 365.75567,121.06 v 20.24 h -80.08 v -20.24 a 18.39,18.39 0 0 1 18.34,-18.33 h 43.4 a 18.39,18.39 0 0 1 18.34,18.33 z"
       id="path435" />
    <path
       class="cls-5"
       d="m 365.75567,169.7 v 20.24 h -80.08 V 169.7 a 18.38,18.38 0 0 1 18.34,-18.32 h 43.4 a 18.39,18.39 0 0 1 18.34,18.32 z"
       id="path437" />
    <path
       class="cls-5"
       d="m 455.16567,72.3 v 20.25 h -80.08 V 72.3 a 18.37,18.37 0 0 1 18.33,-18.32 h 43.41 a 18.39,18.39 0 0 1 18.34,18.32 z"
       id="path439" />
    <path
       class="cls-5"
       d="m 455.16567,121.11 v 20.25 h -80.08 v -20.25 a 18.37,18.37 0 0 1 18.33,-18.32 h 43.41 a 18.39,18.39 0 0 1 18.34,18.32 z"
       id="path441" />
    <path
       class="cls-5"
       d="m 455.16567,169.77 v 20.29 h -80.08 v -20.29 a 18.38,18.38 0 0 1 18.33,-18.32 h 43.41 a 18.39,18.39 0 0 1 18.34,18.32 z"
       id="path443" />
    <polyline
       class="cls-10"
       points="75.63 524.38 75.63 520.21 121.43 520.21 121.43 548.61 114.84 548.61"
       id="polyline445"
       transform="translate(23.475667,-4.3099086)" />
    <polyline
       class="cls-11"
       points="110.29 554.71 114.84 554.71 114.84 549.01 114.84 548.61 114.84 524.38 75.63 524.38 68.05 524.38 68.05 529.58"
       id="polyline447"
       transform="translate(23.475667,-4.3099086)" />
    <path
       class="cls-12"
       d="m 133.80567,555.31009 a 52.14,52.14 0 0 0 -14.74,2.18 c -6.5,2 -8.74,4 -13.92,5.19 -3.89,0.86 -9.690003,1.24 -17.480003,-1.37 l -0.54,-36 h 46.410003 q 0.09,9.51 0.17,19 l 0.06,6.1 c 0.01,1.63 0.03,3.26 0.04,4.9 z"
       id="path449" />
    <text
       class="cls-13"
       id="text455"
       x="92.54567"
       y="534.36005">File <tspan
   x="92.54567"
   y="545.29004"
   id="tspan451">Based</tspan><tspan
   x="92.54567"
   y="556.22009"
   id="tspan453">Objects</tspan></text>
    <text
       class="cls-9"
       id="text457"
       x="151.76566"
       y="579.65009">Data Volume</text>
    <path
       class="cls-14"
       d="m 366.55567,544.92009 v 8.3 a 3.77,3.77 0 0 1 -2.07,2 19.7,19.7 0 0 1 -6.05,1.87 61.33,61.33 0 0 1 -7,0.72 52.81,52.81 0 0 1 -5.63,-0.07 35.78,35.78 0 0 1 -9.35,-1.59 10.64,10.64 0 0 1 -3.26,-1.6 3.32,3.32 0 0 1 -1.16,-1.58 20.83,20.83 0 0 1 0,-2.37 c 0,-1.74 0,-3.47 0,-5.2 a 0.94,0.94 0 0 1 0.11,-0.59 c 0.2,-0.13 0.25,0.06 0.3,0.17 a 3.83,3.83 0 0 0 1.89,1.79 20,20 0 0 0 6.31,1.93 52.51,52.51 0 0 0 8,0.69 46,46 0 0 0 13,-1.48 12,12 0 0 0 3.42,-1.51 3.19,3.19 0 0 0 1.21,-1.26 c 0.03,-0.08 0.09,-0.24 0.28,-0.22 z"
       id="path459" />
    <path
       class="cls-14"
       d="m 366.55567,544.92009 c -0.61,1.47 -1.94,2.05 -3.26,2.6 a 24.23,24.23 0 0 1 -6,1.51 52.27,52.27 0 0 1 -7.29,0.56 58.93,58.93 0 0 1 -6.9,-0.33 35.7,35.7 0 0 1 -6.4,-1.26 10.86,10.86 0 0 1 -3.68,-1.83 2.63,2.63 0 0 1 -0.87,-1.36 0.69,0.69 0 0 1 -0.19,-0.61 c 0,-2.28 0,-4.56 0,-6.84 a 1.29,1.29 0 0 1 0.1,-0.7 c 0.21,-0.13 0.26,0.05 0.31,0.17 a 4.22,4.22 0 0 0 2.37,2.12 22.62,22.62 0 0 0 6,1.71 52,52 0 0 0 10.35,0.66 41.1,41.1 0 0 0 10.94,-1.57 10.94,10.94 0 0 0 2.82,-1.25 3.75,3.75 0 0 0 1.39,-1.46 c 0.07,-0.12 0.12,-0.28 0.31,-0.26 z"
       id="path461" />
    <path
       class="cls-14"
       d="m 366.55567,536.75009 a 5.38,5.38 0 0 1 -3.41,2.74 26.51,26.51 0 0 1 -6,1.47 c -1.59,0.23 -3.2,0.34 -4.8,0.46 a 44.66,44.66 0 0 1 -5.3,0.06 50.77,50.77 0 0 1 -6,-0.59 30.86,30.86 0 0 1 -5.47,-1.38 8.87,8.87 0 0 1 -1.93,-1 3.3,3.3 0 0 1 -1.53,-1.92 0.69,0.69 0 0 1 -0.19,-0.61 c 0,-2.24 0,-4.49 0,-6.73 a 1.56,1.56 0 0 1 0.1,-0.8 c 0.26,-0.16 0.27,0.09 0.31,0.21 a 2.69,2.69 0 0 0 1.2,1.47 11.61,11.61 0 0 0 3.73,1.63 38.13,38.13 0 0 0 7.51,1.25 49.82,49.82 0 0 0 5.46,0.2 42.64,42.64 0 0 0 11.93,-1.71 7.64,7.64 0 0 0 4.1,-2.56 0.23,0.23 0 0 1 0.24,-0.1 z"
       id="path463" />
    <path
       class="cls-14"
       d="m 332.15567,553.11009 c 0.73,1.48 2.11,2.08 3.52,2.64 a 26.57,26.57 0 0 0 6,1.45 c 1.91,0.27 3.83,0.35 5.75,0.49 a 43.87,43.87 0 0 0 5.5,-0.07 35.71,35.71 0 0 0 9.17,-1.54 9.23,9.23 0 0 0 3.81,-2 c 0.25,-0.25 0.31,-0.63 0.63,-0.82 v 8 a 5.32,5.32 0 0 1 -3,2.44 25.91,25.91 0 0 1 -6.49,1.66 52.5,52.5 0 0 1 -11.41,0.42 33.52,33.52 0 0 1 -10.24,-2 7.05,7.05 0 0 1 -2.65,-1.63 2.22,2.22 0 0 1 -0.63,-1.6 c 0,-2.33 0,-4.65 0,-7 a 0.28,0.28 0 0 1 0.04,-0.44 z"
       id="path465" />
    <path
       class="cls-14"
       d="m 366.55567,528.87009 a 6.88,6.88 0 0 1 -3.82,2.65 28.55,28.55 0 0 1 -6.53,1.44 c -1.56,0.21 -3.13,0.29 -4.71,0.37 -1.1,0.06 -2.21,0.11 -3.31,0.07 a 42.93,42.93 0 0 1 -11.91,-1.77 11,11 0 0 1 -2.78,-1.33 2.64,2.64 0 0 1 -1.32,-1.87 c -0.25,-0.2 -0.11,-0.44 0,-0.65 a 3.45,3.45 0 0 1 1.55,-1.67 17.15,17.15 0 0 1 5.28,-1.91 39.24,39.24 0 0 1 4.8,-0.75 0.7,0.7 0 0 1 0.53,0.09 62.61,62.61 0 0 1 6.85,-0.18 40.62,40.62 0 0 1 11.26,1.74 11.5,11.5 0 0 1 2.55,1.16 3.54,3.54 0 0 1 1.59,1.84 z"
       id="path467" />
    <path
       class="cls-15"
       d="m 309.91567,516.75009 a 2.23,2.23 0 0 1 0.93,-2.12 11.36,11.36 0 0 1 4.23,-2 38.49,38.49 0 0 1 7.46,-1.24 51.31,51.31 0 0 1 7.84,-0.1 34.48,34.48 0 0 1 10.81,2.07 8.67,8.67 0 0 1 2,1.12 2.43,2.43 0 0 1 1.08,2.33 3.46,3.46 0 0 1 -1.9,1.91 20,20 0 0 1 -6.41,2 53.19,53.19 0 0 1 -8.08,0.7 50.16,50.16 0 0 1 -11.47,-1 14,14 0 0 1 -5.63,-2.32 1.89,1.89 0 0 1 -0.86,-1.35 z"
       id="path469" />
    <path
       class="cls-15"
       d="m 309.91567,516.75009 c 0.64,1.37 1.93,1.93 3.19,2.47 a 24.33,24.33 0 0 0 6,1.52 50,50 0 0 0 7.34,0.56 54,54 0 0 0 6.85,-0.33 35.4,35.4 0 0 0 6.36,-1.24 11.49,11.49 0 0 0 3.69,-1.79 10.7,10.7 0 0 0 0.93,-1.09 v 6.74 a 36.57,36.57 0 0 0 -8,1.56 9.58,9.58 0 0 0 -3.2,1.66 2.07,2.07 0 0 0 -0.9,1.67 l -0.05,0.76 c -0.16,0.17 -0.36,0.15 -0.57,0.17 -1.69,0.15 -3.39,0.09 -5.08,0.12 a 42.54,42.54 0 0 1 -10.31,-1.12 13.86,13.86 0 0 1 -5.29,-2.17 2,2 0 0 1 -1,-1.64 z"
       id="path471" />
    <path
       class="cls-15"
       d="m 309.90567,524.55009 a 3.43,3.43 0 0 0 2,2.1 18.38,18.38 0 0 0 5.25,1.77 49.84,49.84 0 0 0 6.08,0.8 c 2.3,0.17 4.6,0.08 6.9,0.07 0.67,0 1.35,-0.07 2,-0.1 q 0,3.3 0,6.6 c 0,0.28 0,0.55 0,0.83 v 0.66 a 2.16,2.16 0 0 1 -1.17,0.26 59.39,59.39 0 0 1 -6.4,0 54.54,54.54 0 0 1 -6.64,-0.7 21.47,21.47 0 0 1 -5.7,-1.73 5.83,5.83 0 0 1 -1.72,-1.19 1.8,1.8 0 0 1 -0.58,-1.09 z"
       id="path473" />
    <path
       class="cls-15"
       d="m 332.15567,553.11009 v 0.42 a 66.67,66.67 0 0 1 -9.16,0 33,33 0 0 1 -9.88,-2 6.6,6.6 0 0 1 -2.67,-1.7 2,2 0 0 1 -0.52,-1.41 c 0,-2.58 0,-5.16 0,-7.74 a 0.19,0.19 0 0 1 0.18,0.11 4.64,4.64 0 0 0 2.85,2.37 22.74,22.74 0 0 0 5.25,1.46 61.54,61.54 0 0 0 7.3,0.7 c 1.94,0.08 3.86,0 5.79,-0.13 a 1,1 0 0 1 0.84,0.14 c 0,2.29 0,4.58 0,6.87 0,0.33 0.01,0.62 0.02,0.91 z"
       id="path475" />
    <path
       class="cls-15"
       d="m 332.11567,545.36009 c -1.28,0.07 -2.57,0.16 -3.85,0.21 -1.75,0.06 -3.49,-0.09 -5.23,-0.18 a 41.58,41.58 0 0 1 -4.86,-0.58 19,19 0 0 1 -6.66,-2.18 3.06,3.06 0 0 1 -1.61,-1.92 v -7.84 a 5.43,5.43 0 0 0 3.21,2.52 26.36,26.36 0 0 0 6.38,1.57 c 1.72,0.24 3.46,0.36 5.19,0.46 1.48,0.09 3,0.08 4.41,0.07 1,0 2,-0.14 3,-0.21 0,2.24 0,4.47 0,6.71 0,0.27 0,0.55 0,0.82 z"
       id="path477" />
    <path
       class="cls-14"
       d="m 292.76567,547.35009 v 8.3 a 3.73,3.73 0 0 1 -2.07,2 19.7,19.7 0 0 1 -6.05,1.87 61.33,61.33 0 0 1 -7,0.72 52.81,52.81 0 0 1 -5.63,-0.07 35.85,35.85 0 0 1 -9.35,-1.59 10.64,10.64 0 0 1 -3.26,-1.6 3.32,3.32 0 0 1 -1.16,-1.58 18.75,18.75 0 0 1 0,-2.37 c 0,-1.73 0,-3.47 0,-5.2 a 1,1 0 0 1 0.11,-0.59 c 0.2,-0.12 0.25,0.06 0.3,0.18 a 3.85,3.85 0 0 0 1.89,1.78 20.28,20.28 0 0 0 6.31,1.94 51.37,51.37 0 0 0 8,0.68 46.39,46.39 0 0 0 13,-1.47 12.33,12.33 0 0 0 3.42,-1.52 3.19,3.19 0 0 0 1.21,-1.26 c -0.01,-0.08 0.09,-0.24 0.28,-0.22 z"
       id="path479" />
    <path
       class="cls-14"
       d="m 292.76567,547.35009 c -0.61,1.47 -1.94,2 -3.26,2.61 a 24.55,24.55 0 0 1 -6,1.5 52.27,52.27 0 0 1 -7.29,0.56 58.93,58.93 0 0 1 -6.9,-0.33 35.7,35.7 0 0 1 -6.4,-1.26 10.84,10.84 0 0 1 -3.68,-1.82 2.62,2.62 0 0 1 -0.87,-1.37 0.69,0.69 0 0 1 -0.19,-0.61 c 0,-2.28 0,-4.56 0,-6.83 a 1.28,1.28 0 0 1 0.1,-0.7 c 0.21,-0.14 0.26,0 0.31,0.16 a 4.22,4.22 0 0 0 2.37,2.12 22.58,22.58 0 0 0 6,1.71 51.86,51.86 0 0 0 10.34,0.66 40.69,40.69 0 0 0 10.95,-1.61 10.94,10.94 0 0 0 2.82,-1.25 3.9,3.9 0 0 0 1.39,-1.46 c 0.07,-0.13 0.12,-0.29 0.31,-0.27 z"
       id="path481" />
    <path
       class="cls-14"
       d="m 292.76567,539.16009 a 5.43,5.43 0 0 1 -3.41,2.75 27,27 0 0 1 -6,1.46 c -1.59,0.23 -3.2,0.35 -4.8,0.47 a 44.65,44.65 0 0 1 -5.3,0 50.77,50.77 0 0 1 -6,-0.59 29.23,29.23 0 0 1 -5.47,-1.38 8.55,8.55 0 0 1 -1.92,-0.94 3.29,3.29 0 0 1 -1.54,-1.93 0.69,0.69 0 0 1 -0.19,-0.61 c 0,-2.24 0,-4.48 0,-6.73 a 1.56,1.56 0 0 1 0.1,-0.8 c 0.26,-0.16 0.27,0.09 0.31,0.22 a 2.7,2.7 0 0 0 1.2,1.46 11.86,11.86 0 0 0 3.73,1.64 39.66,39.66 0 0 0 7.51,1.25 c 1.82,0.12 3.64,0.26 5.46,0.2 a 42.65,42.65 0 0 0 12.03,-1.67 7.64,7.64 0 0 0 4.1,-2.56 0.25,0.25 0 0 1 0.24,-0.1 z"
       id="path483" />
    <path
       class="cls-14"
       d="m 258.36567,555.54009 c 0.73,1.48 2.12,2.09 3.52,2.64 a 26.07,26.07 0 0 0 6,1.46 c 1.91,0.26 3.83,0.35 5.75,0.48 a 43.87,43.87 0 0 0 5.5,-0.07 35.86,35.86 0 0 0 9.18,-1.54 9.25,9.25 0 0 0 3.8,-2 c 0.25,-0.25 0.32,-0.63 0.63,-0.82 v 8 a 5.28,5.28 0 0 1 -3,2.44 25.8,25.8 0 0 1 -6.49,1.66 52.5,52.5 0 0 1 -11.41,0.42 33.5,33.5 0 0 1 -10.24,-2 7,7 0 0 1 -2.65,-1.64 2.15,2.15 0 0 1 -0.62,-1.6 c 0,-2.32 0,-4.65 0,-7 a 0.28,0.28 0 0 1 0.03,-0.43 z"
       id="path485" />
    <path
       class="cls-14"
       d="m 292.76567,531.30009 a 6.89,6.89 0 0 1 -3.81,2.65 29.23,29.23 0 0 1 -6.53,1.45 c -1.57,0.2 -3.14,0.28 -4.72,0.36 -1.1,0.06 -2.21,0.11 -3.3,0.07 a 42.94,42.94 0 0 1 -11.93,-1.77 11.11,11.11 0 0 1 -2.78,-1.33 2.65,2.65 0 0 1 -1.32,-1.86 c -0.25,-0.21 -0.11,-0.45 0,-0.66 a 3.47,3.47 0 0 1 1.56,-1.67 17.1,17.1 0 0 1 5.27,-1.91 39.07,39.07 0 0 1 4.81,-0.74 0.64,0.64 0 0 1 0.52,0.09 60.21,60.21 0 0 1 6.85,-0.19 40.57,40.57 0 0 1 11.26,1.74 11.53,11.53 0 0 1 2.53,1.22 3.48,3.48 0 0 1 1.59,1.83 z"
       id="path487" />
    <path
       class="cls-15"
       d="m 236.12567,519.13009 a 2.23,2.23 0 0 1 0.93,-2.12 11.52,11.52 0 0 1 4.23,-2 39.27,39.27 0 0 1 7.46,-1.24 51.31,51.31 0 0 1 7.84,-0.09 34.18,34.18 0 0 1 10.81,2.07 8.67,8.67 0 0 1 2,1.12 2.44,2.44 0 0 1 1.08,2.34 3.44,3.44 0 0 1 -1.9,1.9 19.78,19.78 0 0 1 -6.41,2 53.19,53.19 0 0 1 -8.08,0.7 49.6,49.6 0 0 1 -11.45,-1.06 14,14 0 0 1 -5.63,-2.32 1.89,1.89 0 0 1 -0.88,-1.3 z"
       id="path489" />
    <path
       class="cls-15"
       d="m 236.12567,519.13009 c 0.64,1.37 1.93,1.93 3.19,2.47 a 24.33,24.33 0 0 0 6,1.52 50.07,50.07 0 0 0 7.34,0.56 56.17,56.17 0 0 0 6.86,-0.32 35.14,35.14 0 0 0 6.35,-1.25 11.29,11.29 0 0 0 3.69,-1.79 11.79,11.79 0 0 0 0.93,-1.08 v 6.74 a 36,36 0 0 0 -8,1.55 9.58,9.58 0 0 0 -3.2,1.66 2.08,2.08 0 0 0 -0.9,1.68 v 0.75 a 0.78,0.78 0 0 1 -0.57,0.18 c -1.69,0.14 -3.38,0.09 -5.08,0.11 a 43.09,43.09 0 0 1 -10.31,-1.11 14.19,14.19 0 0 1 -5.29,-2.17 2.08,2.08 0 0 1 -1,-1.65 z"
       id="path491" />
    <path
       class="cls-15"
       d="m 236.11567,526.98009 a 3.45,3.45 0 0 0 2,2.1 17.79,17.79 0 0 0 5.25,1.77 49.84,49.84 0 0 0 6.08,0.8 c 2.3,0.17 4.6,0.08 6.9,0.07 0.67,0 1.35,-0.07 2,-0.1 0,2.2 0,4.4 0,6.61 0,0.27 0,0.55 0,0.82 v 0.66 a 2.16,2.16 0 0 1 -1.17,0.26 59.39,59.39 0 0 1 -6.4,0 54.54,54.54 0 0 1 -6.64,-0.7 21.47,21.47 0 0 1 -5.7,-1.73 5.79,5.79 0 0 1 -1.72,-1.18 1.91,1.91 0 0 1 -0.58,-1.1 z"
       id="path493" />
    <path
       class="cls-15"
       d="m 258.36567,555.54009 v 0.42 a 66.67,66.67 0 0 1 -9.16,0 33.05,33.05 0 0 1 -9.88,-2 6.7,6.7 0 0 1 -2.67,-1.71 2,2 0 0 1 -0.52,-1.41 c 0,-2.58 0,-5.16 0,-7.73 a 0.18,0.18 0 0 1 0.18,0.1 4.66,4.66 0 0 0 2.85,2.37 22.76,22.76 0 0 0 5.25,1.47 63.7,63.7 0 0 0 7.3,0.69 c 1.94,0.08 3.86,0 5.79,-0.13 a 1,1 0 0 1 0.84,0.15 c 0,2.29 0,4.58 0,6.87 0,0.33 0.01,0.62 0.02,0.91 z"
       id="path495" />
    <path
       class="cls-15"
       d="m 258.32567,547.80009 c -1.28,0.07 -2.57,0.15 -3.85,0.2 -1.75,0.06 -3.49,-0.09 -5.23,-0.18 a 41.58,41.58 0 0 1 -4.86,-0.58 19.17,19.17 0 0 1 -6.66,-2.17 3.11,3.11 0 0 1 -1.61,-1.92 v -7.85 a 5.43,5.43 0 0 0 3.21,2.52 26.85,26.85 0 0 0 6.38,1.58 c 1.73,0.24 3.46,0.35 5.19,0.46 1.48,0.09 3,0.07 4.42,0.06 1,0 2,-0.13 3,-0.21 0,2.24 0,4.47 0,6.71 0,0.27 0,0.55 0,0.82 z"
       id="path497" />
    <path
       class="cls-14"
       d="m 216.28567,545.46009 v 8.29 a 3.75,3.75 0 0 1 -2.07,2 19.45,19.45 0 0 1 -6.05,1.88 61.09,61.09 0 0 1 -7,0.71 48.05,48.05 0 0 1 -5.63,-0.07 35.91,35.91 0 0 1 -9.35,-1.58 10.67,10.67 0 0 1 -3.26,-1.61 3.3,3.3 0 0 1 -1.16,-1.57 18.91,18.91 0 0 1 0,-2.38 c 0,-1.73 0,-3.46 0,-5.19 a 1,1 0 0 1 0.11,-0.59 c 0.2,-0.13 0.25,0.06 0.3,0.17 a 3.87,3.87 0 0 0 1.89,1.79 20,20 0 0 0 6.31,1.93 52.62,52.62 0 0 0 8,0.69 46,46 0 0 0 13,-1.48 12.31,12.31 0 0 0 3.42,-1.51 3.19,3.19 0 0 0 1.18,-1.19 c 0.06,-0.15 0.12,-0.31 0.31,-0.29 z"
       id="path499" />
    <path
       class="cls-14"
       d="m 216.28567,545.46009 c -0.6,1.46 -1.94,2 -3.25,2.6 a 24.31,24.31 0 0 1 -6,1.51 50.78,50.78 0 0 1 -7.29,0.55 56.93,56.93 0 0 1 -6.9,-0.33 34.82,34.82 0 0 1 -6.4,-1.25 10.86,10.86 0 0 1 -3.68,-1.83 2.63,2.63 0 0 1 -0.87,-1.36 0.69,0.69 0 0 1 -0.19,-0.61 c 0,-2.28 0,-4.56 0,-6.84 a 1.29,1.29 0 0 1 0.1,-0.7 c 0.21,-0.13 0.26,0 0.31,0.17 a 4.25,4.25 0 0 0 2.37,2.12 23.07,23.07 0 0 0 6,1.71 51.86,51.86 0 0 0 10.34,0.66 41,41 0 0 0 10.95,-1.62 10.94,10.94 0 0 0 2.82,-1.25 3.92,3.92 0 0 0 1.4,-1.46 c 0.06,-0.12 0.11,-0.28 0.3,-0.26 z"
       id="path501" />
    <path
       class="cls-14"
       d="m 216.28567,537.27009 a 5.38,5.38 0 0 1 -3.41,2.74 27.06,27.06 0 0 1 -6,1.47 c -1.59,0.23 -3.2,0.34 -4.8,0.46 a 44.51,44.51 0 0 1 -5.29,0.06 48.38,48.38 0 0 1 -6,-0.6 30.31,30.31 0 0 1 -5.48,-1.37 8.58,8.58 0 0 1 -1.92,-0.95 3.27,3.27 0 0 1 -1.54,-1.92 0.69,0.69 0 0 1 -0.19,-0.61 c 0,-2.25 0,-4.49 0,-6.73 a 1.61,1.61 0 0 1 0.1,-0.81 c 0.26,-0.15 0.28,0.1 0.31,0.22 a 2.69,2.69 0 0 0 1.2,1.47 11.94,11.94 0 0 0 3.73,1.63 38.25,38.25 0 0 0 7.51,1.25 49.82,49.82 0 0 0 5.46,0.2 42.58,42.58 0 0 0 11.93,-1.71 7.64,7.64 0 0 0 4.1,-2.56 0.21,0.21 0 0 1 0.24,-0.1 z"
       id="path503" />
    <path
       class="cls-14"
       d="m 181.88567,553.65009 c 0.73,1.48 2.12,2.08 3.53,2.64 a 26.36,26.36 0 0 0 6,1.45 c 1.91,0.27 3.83,0.35 5.75,0.49 a 43.85,43.85 0 0 0 5.5,-0.07 35.79,35.79 0 0 0 9.18,-1.54 9.19,9.19 0 0 0 3.8,-2 c 0.25,-0.25 0.32,-0.63 0.63,-0.82 v 8 a 5.29,5.29 0 0 1 -3,2.44 25.4,25.4 0 0 1 -6.48,1.65 52.57,52.57 0 0 1 -11.42,0.43 33.88,33.88 0 0 1 -10.24,-2 7.11,7.11 0 0 1 -2.65,-1.64 2.15,2.15 0 0 1 -0.62,-1.59 c 0,-2.33 0,-4.65 0,-7 a 0.27,0.27 0 0 1 0.02,-0.44 z"
       id="path505" />
    <path
       class="cls-14"
       d="m 216.28567,529.41009 a 6.89,6.89 0 0 1 -3.81,2.65 29.21,29.21 0 0 1 -6.53,1.44 c -1.57,0.2 -3.14,0.29 -4.72,0.37 -1.1,0 -2.2,0.11 -3.3,0.06 a 42.56,42.56 0 0 1 -11.92,-1.76 10.81,10.81 0 0 1 -2.78,-1.34 2.65,2.65 0 0 1 -1.32,-1.86 c -0.25,-0.21 -0.11,-0.44 0,-0.65 a 3.36,3.36 0 0 1 1.57,-1.67 16.86,16.86 0 0 1 5.27,-1.92 41.08,41.08 0 0 1 4.81,-0.74 0.64,0.64 0 0 1 0.52,0.09 60.27,60.27 0 0 1 6.85,-0.18 40.57,40.57 0 0 1 11.26,1.74 11.5,11.5 0 0 1 2.55,1.16 3.52,3.52 0 0 1 1.59,1.83 z"
       id="path507" />
    <path
       class="cls-15"
       d="m 159.64567,517.23009 a 2.2,2.2 0 0 1 0.94,-2.11 11.29,11.29 0 0 1 4.23,-2 39,39 0 0 1 7.45,-1.25 52.62,52.62 0 0 1 7.84,-0.09 34.13,34.13 0 0 1 10.81,2.06 9.09,9.09 0 0 1 2,1.13 2.43,2.43 0 0 1 1.08,2.33 3.46,3.46 0 0 1 -1.9,1.91 20.28,20.28 0 0 1 -6.41,2 54.5,54.5 0 0 1 -8.08,0.7 50.73,50.73 0 0 1 -11.47,-1.05 14.06,14.06 0 0 1 -5.63,-2.32 1.93,1.93 0 0 1 -0.86,-1.31 z"
       id="path509" />
    <path
       class="cls-15"
       d="m 159.64567,517.23009 a 5.39,5.39 0 0 0 3.19,2.47 24.34,24.34 0 0 0 6,1.53 50.07,50.07 0 0 0 7.34,0.56 58.25,58.25 0 0 0 6.86,-0.33 35.12,35.12 0 0 0 6.35,-1.24 11.46,11.46 0 0 0 3.7,-1.8 10.68,10.68 0 0 0 0.92,-1.08 v 6.74 a 36.68,36.68 0 0 0 -8,1.56 9.4,9.4 0 0 0 -3.2,1.66 2.07,2.07 0 0 0 -0.9,1.67 l -0.05,0.76 a 0.8,0.8 0 0 1 -0.56,0.17 c -1.7,0.15 -3.39,0.09 -5.09,0.12 a 42.59,42.59 0 0 1 -10.31,-1.12 13.86,13.86 0 0 1 -5.29,-2.17 2,2 0 0 1 -1,-1.64 z"
       id="path511" />
    <path
       class="cls-15"
       d="m 159.63567,525.09009 a 3.48,3.48 0 0 0 2,2.1 18.49,18.49 0 0 0 5.25,1.77 49.74,49.74 0 0 0 6.09,0.8 c 2.29,0.17 4.59,0.08 6.89,0.07 0.67,0 1.35,-0.08 2,-0.1 0,2.2 0,4.4 0,6.6 0,0.28 0,0.55 0,0.83 v 0.66 a 2.16,2.16 0 0 1 -1.17,0.26 59.39,59.39 0 0 1 -6.4,0 54.75,54.75 0 0 1 -6.64,-0.7 21.84,21.84 0 0 1 -5.7,-1.73 6,6 0 0 1 -1.72,-1.19 1.85,1.85 0 0 1 -0.58,-1.1 z"
       id="path513" />
    <path
       class="cls-15"
       d="m 181.88567,553.65009 v 0.41 a 65.12,65.12 0 0 1 -9.16,0 33.06,33.06 0 0 1 -9.88,-2 6.67,6.67 0 0 1 -2.67,-1.7 2,2 0 0 1 -0.52,-1.41 c 0,-2.58 0,-5.16 0,-7.74 a 0.19,0.19 0 0 1 0.18,0.11 4.62,4.62 0 0 0 2.85,2.36 22.22,22.22 0 0 0 5.26,1.47 61.18,61.18 0 0 0 7.29,0.7 c 1.94,0.08 3.86,0 5.79,-0.14 a 1.08,1.08 0 0 1 0.84,0.15 c 0,2.29 0,4.58 0,6.87 0,0.33 0.01,0.63 0.02,0.92 z"
       id="path515" />
    <path
       class="cls-15"
       d="m 181.84567,545.90009 c -1.28,0.07 -2.56,0.16 -3.85,0.21 -1.75,0.06 -3.49,-0.1 -5.23,-0.19 a 39.75,39.75 0 0 1 -4.86,-0.57 18.87,18.87 0 0 1 -6.65,-2.18 3.1,3.1 0 0 1 -1.62,-1.92 v -7.85 a 5.39,5.39 0 0 0 3.21,2.52 25.92,25.92 0 0 0 6.38,1.58 c 1.73,0.24 3.46,0.36 5.2,0.46 1.47,0.09 2.94,0.08 4.41,0.06 1,0 2,-0.13 3,-0.2 0,2.23 0,4.47 0,6.7 0,0.28 0,0.55 0,0.83 z"
       id="path517" />
    <text
       class="cls-9"
       id="text519"
       x="230.77567"
       y="579.65009">Data Volume</text>
    <text
       class="cls-9"
       id="text521"
       x="304.76569"
       y="579.65009">Temp Volume</text>
    <text
       class="cls-6"
       id="text523"
       x="130.88567"
       y="77.350006">PHP</text>
    <text
       class="cls-6"
       id="text525"
       x="220.24567"
       y="77.350006">Ruby</text>
    <text
       class="cls-6"
       id="text527"
       x="300.27567"
       y="77.350006">ADO.NET</text>
    <text
       class="cls-6"
       id="text529"
       x="406.24567"
       y="77.43">Go</text>
    <text
       class="cls-6"
       id="text531"
       x="129.08566"
       y="126.16">PDO</text>
    <text
       class="cls-6"
       id="text533"
       x="215.09567"
       y="126.16">Python</text>
    <text
       class="cls-6"
       id="text535"
       x="311.59567"
       y="126.16">Perl</text>
    <text
       class="cls-6"
       id="text537"
       x="393.16568"
       y="126.24001">Node.js</text>
    <text
       class="cls-6"
       id="text539"
       x="121.52567"
       y="178.84">OLE DB</text>
    <text
       class="cls-6"
       id="text541"
       x="217.37567"
       y="178.02">ODBC</text>
    <text
       class="cls-6"
       id="text543"
       x="310.47568"
       y="178.29001">JDBC</text>
    <text
       class="cls-6"
       id="text545"
       x="404.08566"
       y="178.64">CCI</text>
    <text
       class="cls-16"
       id="text549"
       x="600.24438"
       y="417.71432">Load/<tspan
   x="596.7644"
   y="432.11432"
   id="tspan547">Unload</tspan></text>
    <text
       class="cls-16"
       id="text553"
       x="690.71442"
       y="417.71432">Backup/<tspan
   x="694.43439"
   y="432.11432"
   id="tspan551">Restore</tspan></text>
    <text
       class="cls-6"
       id="text557"
       x="586.93439"
       y="485.44431">Compact/<tspan
   x="591.49438"
   y="499.8443"
   id="tspan555">Optimize</tspan></text>
    <text
       class="cls-6"
       id="text561"
       x="694.46442"
       y="485.44431">Check/<tspan
   x="703.10443"
   y="499.8443"
   id="tspan559">Diag</tspan></text>
    <text
       class="cls-6"
       id="text565"
       x="665.31134"
       y="225.80659"><tspan
         sodipodi:role="line"
         id="tspan596"
         x="665.31134"
         y="225.80659"
         style="text-align:center;text-anchor:middle">Java Stored Procedure</tspan><tspan
         sodipodi:role="line"
         id="tspan598"
         x="665.31134"
         y="240.80659"
         style="text-align:center;text-anchor:middle">Server</tspan></text>
    <g
       class="cls-18"
       id="g571"
       transform="translate(27.475667,-4.3099086)">
      <ellipse
         class="cls-19"
         cx="397.44"
         cy="568.65997"
         rx="36.540001"
         ry="13.87"
         id="ellipse567" />
      <rect
         class="cls-19"
         x="390.63"
         y="583.75"
         width="53.77"
         height="5.7199998"
         transform="rotate(180,417.515,583.14)"
         id="rect569" />
    </g>
    <g
       class="cls-20"
       id="g577"
       transform="translate(27.475667,-4.3099086)">
      <ellipse
         class="cls-19"
         cx="395.13"
         cy="528.09003"
         rx="36.540001"
         ry="13.87"
         id="ellipse573" />
      <rect
         class="cls-19"
         x="388.32999"
         y="543.19"
         width="53.77"
         height="5.7199998"
         transform="rotate(180,415.21,542.575)"
         id="rect575" />
    </g>
    <text
       class="cls-21"
       id="text579"
       x="391.34567"
       y="568.44006">Archive Log</text>
    <text
       class="cls-21"
       id="text581"
       x="391.34567"
       y="568.44006">Archive Log</text>
    <text
       class="cls-21"
       id="text583"
       x="392.47568"
       y="529.43011">Active Log</text>
    <text
       class="cls-21"
       id="text585"
       x="392.47568"
       y="529.43011">Active Log</text>
  </g>
  <text
     xml:space="preserve"
     style="font-style:normal;font-weight:normal;font-size:40px;line-height:1.25;font-family:sans-serif;fill:#000000;fill-opacity:1;stroke:none"
     x="520.42145"
     y="575.3728"
     id="text594"><tspan
       sodipodi:role="line"
       id="tspan592"
       x="520.42145"
       y="575.3728"></tspan></text>
</svg>
